<svg width="203" height="166" viewBox="0 0 203 166" fill="none" xmlns="http://www.w3.org/2000/svg" ><path d="M193.517 74.3398L193.274 165.95L74 97.1145L74.2427 5.50391L193.517 74.3398Z" fill="url(#paint0_linear_41504_66163)"/><path d="M193.516 74.3407L202.999 68.8281L202.756 160.439L193.273 165.951L193.516 74.3407Z" fill="#156AB3"/><path d="M74.2422 5.50512L83.725 0L203 68.8273L193.517 74.3399L74.2422 5.50512Z" fill="#0078D4"/><path d="M94.8711 129.301L112.297 119.211L152.326 142.141L134.511 152.228L94.8711 129.301Z" fill="#0078D4"/><path d="M107.066 122.236L112.292 119.211L152.321 142.141L147.129 145.078L107.066 122.236Z" fill="#156AB3"/><path d="M134.511 154.462V152.228L94.8711 129.301V131.903L134.511 154.462Z" fill="#2195DC"/><path d="M154.214 143.405L134.508 154.462V152.228L152.323 142.145L154.214 143.405Z" fill="#0078D4"/><path d="M56.2237 115.506C69.1431 122.964 69.2144 135.051 56.377 142.509C43.5395 149.968 22.6549 149.968 9.73551 142.509C-3.18391 135.051 -3.25522 122.96 9.58331 115.506C22.4218 108.052 43.299 108.048 56.2237 115.506Z" fill="#CDCDD0"/><path d="M56.2237 111.241C69.1431 118.699 69.2144 130.786 56.377 138.244C43.5395 145.702 22.6549 145.702 9.73551 138.244C-3.18391 130.786 -3.25522 118.695 9.58331 111.241C22.4218 103.787 43.299 103.782 56.2237 111.241Z" fill="white"/><path d="M32.5378 111.796L32.3516 133.218L50.8808 122.414L51.066 100.992L32.5378 111.796Z" fill="#2195DC"/><path d="M32.5376 111.797L32.4365 111.821L32.4759 111.797L14.0094 101.18L13.8242 122.6L32.3525 133.219L32.5376 111.797Z" fill="#32B0E7"/><path d="M14.0117 101.179L32.541 90.375L51.0692 100.993L32.541 111.797L14.0117 101.179Z" fill="#0078D4"/><path d="M32.5378 78.8664L32.3516 100.288L50.8808 89.4841L51.066 68.0625L32.5378 78.8664Z" fill="#45CAF2"/><path d="M32.5376 78.8677L32.4599 78.8773L32.4759 78.8677L14.0094 68.25L13.8242 89.6705L32.3525 100.289L32.5376 78.8677Z" fill="#ACF3FD"/><path d="M14.0117 68.2492L32.541 57.4453L51.0692 68.063L32.541 78.8669L14.0117 68.2492Z" fill="#84ECFD"/><path d="M45.9492 46.9718L64.4774 36.169L83.0057 46.7867L64.4774 57.5906L45.9492 46.9718ZM45.9492 20.377L64.4774 9.57422L83.0057 20.1919L64.4774 30.9958L45.9492 20.377Z" fill="#ACF3FD"/><path d="M149.483 101.906L144.357 90.6634L149.399 84.9242L148.999 84.5732L149.424 84.254L130.267 59.2549L130.189 59.3155L129.426 58.7188L128.962 59.3123L110.52 65.4568L110.684 65.9568L110.203 66.1844L115.245 76.8224L110.265 83.1817L110.684 83.5094L110.275 83.8508L129.433 106.722L129.841 106.381L129.956 106.9L149.114 102.645L148.999 102.126L149.483 101.906ZM147.429 99.9662L141.2 94.2579L143.588 91.5399L147.429 99.9662ZM129.067 84.0413L129.475 84.4274L129.841 84.0413L130.208 83.6551L129.841 83.3094V82.9775H129.49L119.305 73.3629L129.416 60.4506L140.165 84.0413H129.841V84.5732L129.482 84.9646L139.712 94.3377L129.976 105.423L119.843 84.0413H129.067ZM119.339 82.9775L116.488 76.9607L118.646 74.2044L127.94 82.9775H119.339ZM129.608 60.2123L129.597 60.2176L129.608 60.2123ZM131.205 85.1051H140.649L143.097 90.4772L140.408 93.5388L131.205 85.1051ZM143.87 89.6017L141.823 85.1051H147.828L143.87 89.6017ZM141.336 84.0413L131.668 62.8356L147.92 84.0413H141.336ZM127.77 60.8251L118.528 72.6332L111.696 66.1844L127.77 60.8251ZM112.377 68.2865L117.869 73.4704L115.978 75.8852L112.377 68.2865ZM115.753 77.8979L118.162 82.9775H111.776L115.753 77.8979ZM118.666 84.0413L127.581 102.851L111.823 84.0413H118.666ZM131.318 105.509L140.498 95.0579L147.887 101.828L131.318 105.509Z" fill="#ACF3FD"/><path d="M110.685 79.1101C111.618 79.7382 112.392 80.5746 112.946 81.553C113.5 82.5315 113.819 83.6253 113.878 84.7482C113.878 86.7609 112.415 87.5651 110.685 86.6268C109.764 85.9866 108.998 85.1474 108.446 84.1715C107.893 83.1955 107.567 82.1077 107.492 80.9887C107.492 78.976 108.956 78.1707 110.685 79.1101ZM110.685 62.0894C111.618 62.7176 112.392 63.5539 112.946 64.5324C113.5 65.5108 113.819 66.6047 113.878 67.7275C113.878 69.7402 112.415 70.5444 110.685 69.6061C109.764 68.966 108.998 68.1268 108.446 67.1508C107.893 66.1748 107.567 65.087 107.492 63.968C107.492 61.9554 108.956 61.1501 110.685 62.0894ZM149 98.2583C149.932 98.8865 150.707 99.7228 151.261 100.701C151.815 101.68 152.134 102.774 152.192 103.896C152.192 105.909 150.729 106.713 149 105.775C148.078 105.135 147.313 104.296 146.76 103.32C146.208 102.344 145.882 101.256 145.807 100.137C145.807 98.1243 147.27 97.319 149 98.2583ZM149 81.2376C149.932 81.8658 150.707 82.7021 151.261 83.6806C151.815 84.6591 152.134 85.7529 152.192 86.8757C152.192 88.8884 150.729 89.6927 149 88.7544C148.078 88.1142 147.313 87.275 146.76 86.299C146.208 85.3231 145.882 84.2353 145.807 83.1163C145.807 81.1036 147.27 80.2983 149 81.2376ZM129.842 80.193C130.775 80.8212 131.549 81.6575 132.103 82.636C132.658 83.6145 132.977 84.7083 133.035 85.8311C133.035 87.8427 131.572 88.648 129.842 87.7087C128.926 87.0964 128.161 86.2826 127.608 85.3294C127.054 84.3763 126.727 83.3093 126.649 82.2099C126.649 80.059 127.98 79.2515 129.842 80.193ZM129.842 55.7034C130.775 56.3316 131.549 57.1679 132.103 58.1464C132.658 59.1249 132.977 60.2187 133.035 61.3415C133.035 63.3532 131.572 64.1574 129.842 63.2191C128.925 62.6067 128.161 61.7927 127.608 60.8394C127.054 59.8861 126.726 58.8188 126.649 57.7193C126.649 55.5694 128.113 54.7652 129.842 55.7034ZM129.709 102.6C130.626 103.212 131.39 104.026 131.944 104.979C132.497 105.933 132.825 107 132.902 108.099C132.902 110.111 131.439 110.915 129.709 109.977C128.776 109.349 128.002 108.513 127.448 107.534C126.894 106.556 126.575 105.462 126.516 104.339C126.516 102.336 127.98 101.527 129.709 102.6Z" fill="#84ECFD"/><path d="M64.2899 79.013L45.7617 68.3942L45.9469 46.9737L64.4134 57.5914L64.3676 57.618L64.4741 57.5914L64.2899 79.013ZM64.4751 30.9966L64.3687 31.0221L64.4134 30.9966L45.9469 20.3789L45.7617 41.7994L64.2899 52.4182L64.4751 30.9966Z" fill="#D5F9FD"/><path d="M64.4782 57.5901L64.293 79.0117L82.8223 68.2078L83.0074 46.7862L64.4782 57.5901ZM64.4782 30.9953L64.293 52.4169L82.8223 41.613L83.0074 20.1914L64.4782 30.9953Z" fill="#84ECFD"/><defs><linearGradient id="paint0_linear_41504_66163" x1="73.0485" y1="6.41664" x2="194.396" y2="165.092" gradientUnits="userSpaceOnUse"><stop stop-color="#2195DC"/><stop offset="1" stop-color="#0078D4"/></linearGradient></defs></svg>
