<svg width="28" height="28" viewBox="0 0 28 28" fill="none" xmlns="http://www.w3.org/2000/svg">
<path d="M9.95203 18.5343H7.77685V10.0666H9.95203V10.7658H8.61197V17.8351H9.95203V18.5343ZM10.895 16.4756C10.895 16.2361 10.9532 16.0678 11.0697 15.9707C11.1863 15.8736 11.3255 15.825 11.4873 15.825C11.6556 15.825 11.798 15.8736 11.9146 15.9707C12.0376 16.0678 12.0991 16.2361 12.0991 16.4756C12.0991 16.7087 12.0376 16.877 11.9146 16.9806C11.798 17.0842 11.6556 17.1359 11.4873 17.1359C11.3255 17.1359 11.1863 17.0842 11.0697 16.9806C10.9532 16.877 10.895 16.7087 10.895 16.4756ZM13.4933 16.4756C13.4933 16.2361 13.5516 16.0678 13.6681 15.9707C13.7846 15.8736 13.9238 15.825 14.0857 15.825C14.254 15.825 14.3964 15.8736 14.5129 15.9707C14.6359 16.0678 14.6974 16.2361 14.6974 16.4756C14.6974 16.7087 14.6359 16.877 14.5129 16.9806C14.3964 17.0842 14.254 17.1359 14.0857 17.1359C13.9238 17.1359 13.7846 17.0842 13.6681 16.9806C13.5516 16.877 13.4933 16.7087 13.4933 16.4756ZM16.0917 16.4756C16.0917 16.2361 16.1499 16.0678 16.2665 15.9707C16.383 15.8736 16.5222 15.825 16.684 15.825C16.8523 15.825 16.9948 15.8736 17.1113 15.9707C17.2343 16.0678 17.2958 16.2361 17.2958 16.4756C17.2958 16.7087 17.2343 16.877 17.1113 16.9806C16.9948 17.0842 16.8523 17.1359 16.684 17.1359C16.5222 17.1359 16.383 17.0842 16.2665 16.9806C16.1499 16.877 16.0917 16.7087 16.0917 16.4756ZM18.2336 17.8351H19.5737V10.7658H18.2336V10.0666H20.4088V18.5343H18.2336V17.8351Z" fill="black"/>
</svg>
