<svg width="106" height="78" viewBox="0 0 106 78" fill="none" xmlns="http://www.w3.org/2000/svg">
<path d="M66.8269 49.7694L105.379 56.5381C105.426 56.5473 105.473 56.5438 105.518 56.5284C105.562 56.5132 105.603 56.4865 105.634 56.4508C105.704 56.3664 105.741 56.2586 105.738 56.1486V7.29271C105.744 7.17941 105.71 7.06753 105.647 6.97435C105.581 6.88119 105.489 6.81198 105.379 6.77741L66.8269 0.00424762C66.6315 -0.0298206 66.4708 0.144779 66.4708 0.393903V49.2541C66.4645 49.3673 66.4959 49.4795 66.5621 49.5727C66.6252 49.666 66.7197 49.7354 66.8269 49.7694Z" fill="#9FB4D0"/>
<path d="M66.8269 49.7694L105.379 56.5381C105.426 56.5473 105.473 56.5438 105.518 56.5284C105.562 56.5132 105.603 56.4865 105.634 56.4508C105.704 56.3664 105.741 56.2586 105.738 56.1486V7.29271C105.744 7.17941 105.71 7.06753 105.647 6.97435C105.581 6.88119 105.489 6.81198 105.379 6.77741L66.8269 0.00424762C66.6315 -0.0298206 66.4708 0.144779 66.4708 0.393903V49.2541C66.4645 49.3673 66.4959 49.4795 66.5621 49.5727C66.6252 49.666 66.7197 49.7354 66.8269 49.7694Z" fill="url(#paint0_linear_47571_62651)" fill-opacity="0.5"/>
<path d="M66.8269 49.7694L105.379 56.5381C105.426 56.5473 105.473 56.5438 105.518 56.5284C105.562 56.5132 105.603 56.4865 105.634 56.4508C105.704 56.3664 105.741 56.2586 105.738 56.1486V7.29271C105.744 7.17941 105.71 7.06753 105.647 6.97435C105.581 6.88119 105.489 6.81198 105.379 6.77741L66.8269 0.00424762C66.6315 -0.0298206 66.4708 0.144779 66.4708 0.393903V49.2541C66.4645 49.3673 66.4959 49.4795 66.5621 49.5727C66.6252 49.666 66.7197 49.7354 66.8269 49.7694Z" fill="url(#paint1_linear_47571_62651)" fill-opacity="0.5"/>
<path opacity="0.5" d="M105.59 56.4892L103.592 56.2166V57.7198C103.595 57.7854 103.583 57.8503 103.554 57.9102C103.529 57.97 103.488 58.023 103.438 58.0649L105.59 56.4892Z" fill="#5E7490"/>
<path d="M64.6808 1.58842L66.6663 1.93549C66.6537 1.30949 66.6411 0.682064 66.6285 0.0532227L64.4791 1.63101C64.539 1.59058 64.6115 1.57527 64.6808 1.58842Z" fill="#9FB4D0"/>
<g opacity="0.5">
<path opacity="0.5" d="M103.236 8.35745L66.6663 1.93559L64.6809 1.58852C64.6116 1.57595 64.5391 1.59124 64.4823 1.63111C64.4288 1.67274 64.3878 1.72578 64.3626 1.78603C64.3342 1.84627 64.3216 1.91206 64.3248 1.97818V50.834C64.3185 50.9475 64.35 51.06 64.413 51.1533C64.4792 51.2469 64.5737 51.3156 64.6809 51.3493L103.233 58.1184C103.271 58.1266 103.309 58.1269 103.346 58.119C103.381 58.1114 103.416 58.0957 103.447 58.0736C103.498 58.0317 103.539 57.9787 103.564 57.9189C103.589 57.859 103.602 57.7941 103.598 57.7285V8.87271C103.605 8.75854 103.573 8.64584 103.507 8.55249C103.441 8.45918 103.346 8.39051 103.236 8.35745Z" fill="#C9D7E9" fill-opacity="0.75"/>
<path opacity="0.5" d="M103.236 8.35745L66.6663 1.93559L64.6809 1.58852C64.6116 1.57595 64.5391 1.59124 64.4823 1.63111C64.4288 1.67274 64.3878 1.72578 64.3626 1.78603C64.3342 1.84627 64.3216 1.91206 64.3248 1.97818V50.834C64.3185 50.9475 64.35 51.06 64.413 51.1533C64.4792 51.2469 64.5737 51.3156 64.6809 51.3493L103.233 58.1184C103.271 58.1266 103.309 58.1269 103.346 58.119C103.381 58.1114 103.416 58.0957 103.447 58.0736C103.498 58.0317 103.539 57.9787 103.564 57.9189C103.589 57.859 103.602 57.7941 103.598 57.7285V8.87271C103.605 8.75854 103.573 8.64584 103.507 8.55249C103.441 8.45918 103.346 8.39051 103.236 8.35745Z" fill="url(#paint2_linear_47571_62651)" fill-opacity="0.5"/>
</g>
<path d="M86.5206 17.0085C86.467 16.9872 86.4008 16.9638 86.3221 16.9383C83.2935 15.9226 79.8048 17.0383 77.7217 18.5288C73.7508 21.3863 73.6058 26.5732 73.5617 28.1488C73.5617 28.1488 73.3474 35.2692 79.4077 40.5154C79.9592 40.9878 80.5548 41.4076 81.182 41.7697C81.6169 42.0111 82.0707 42.2191 82.5371 42.3915C82.5939 42.4126 82.8838 42.5128 83.262 42.6297C83.5173 42.6915 83.7757 42.7492 84.0372 42.7939C90.9043 43.9861 96.4604 39.0188 96.4446 31.7004C96.4288 25.3062 92.1712 19.2378 86.5206 17.0085Z" fill="#C9D7E9"/>
<path d="M86.5206 17.0085C86.467 16.9872 86.4008 16.9638 86.3221 16.9383C83.2935 15.9226 79.8048 17.0383 77.7217 18.5288C73.7508 21.3863 73.6058 26.5732 73.5617 28.1488C73.5617 28.1488 73.3474 35.2692 79.4077 40.5154C79.9592 40.9878 80.5548 41.4076 81.182 41.7697C81.6169 42.0111 82.0707 42.2191 82.5371 42.3915C82.5939 42.4126 82.8838 42.5128 83.262 42.6297C83.5173 42.6915 83.7757 42.7492 84.0372 42.7939C90.9043 43.9861 96.4604 39.0188 96.4446 31.7004C96.4288 25.3062 92.1712 19.2378 86.5206 17.0085Z" fill="url(#paint3_linear_47571_62651)"/>
<path d="M83.4857 32.9476C83.1548 32.779 82.7734 32.7446 82.4205 32.8518C81.7019 33.1074 81.2355 34.0954 81.3868 35.3109L84.5572 35.8731C84.7494 34.5189 84.3082 33.35 83.4857 32.9476Z" fill="#24466C"/>
<path d="M83.4857 32.9476C83.1548 32.779 82.7734 32.7446 82.4205 32.8518C81.7019 33.1074 81.2355 34.0954 81.3868 35.3109L84.5572 35.8731C84.7494 34.5189 84.3082 33.35 83.4857 32.9476Z" fill="url(#paint4_linear_47571_62651)"/>
<g opacity="0.5">
<path opacity="0.5" d="M81.1819 41.7652C80.5547 41.4031 79.9591 40.9834 79.4076 40.5113C73.3568 35.2647 73.5616 28.1445 73.5616 28.1445C73.6057 26.5688 73.7507 21.382 77.7216 18.5245C79.8047 17.034 83.2934 15.9226 86.322 16.9382C86.4007 16.9637 86.4669 16.9872 86.5173 17.0085C85.698 16.6817 84.847 16.4405 83.9772 16.2888C77.0976 15.0964 71.5636 20.0639 71.5636 27.3822C71.5794 34.4217 76.7446 41.0691 83.2556 42.6256C82.8774 42.5084 82.5874 42.4125 82.5307 42.387C82.0674 42.2143 81.6168 42.0066 81.1819 41.7652Z" fill="#566C89"/>
<path opacity="0.5" d="M81.1819 41.7652C80.5547 41.4031 79.9591 40.9834 79.4076 40.5113C73.3568 35.2647 73.5616 28.1445 73.5616 28.1445C73.6057 26.5688 73.7507 21.382 77.7216 18.5245C79.8047 17.034 83.2934 15.9226 86.322 16.9382C86.4007 16.9637 86.4669 16.9872 86.5173 17.0085C85.698 16.6817 84.847 16.4405 83.9772 16.2888C77.0976 15.0964 71.5636 20.0639 71.5636 27.3822C71.5794 34.4217 76.7446 41.0691 83.2556 42.6256C82.8774 42.5084 82.5874 42.4125 82.5307 42.387C82.0674 42.2143 81.6168 42.0066 81.1819 41.7652Z" fill="url(#paint5_linear_47571_62651)" fill-opacity="0.5"/>
<path opacity="0.5" d="M81.1819 41.7652C80.5547 41.4031 79.9591 40.9834 79.4076 40.5113C73.3568 35.2647 73.5616 28.1445 73.5616 28.1445C73.6057 26.5688 73.7507 21.382 77.7216 18.5245C79.8047 17.034 83.2934 15.9226 86.322 16.9382C86.4007 16.9637 86.4669 16.9872 86.5173 17.0085C85.698 16.6817 84.847 16.4405 83.9772 16.2888C77.0976 15.0964 71.5636 20.0639 71.5636 27.3822C71.5794 34.4217 76.7446 41.0691 83.2556 42.6256C82.8774 42.5084 82.5874 42.4125 82.5307 42.387C82.0674 42.2143 81.6168 42.0066 81.1819 41.7652Z" fill="url(#paint6_linear_47571_62651)" fill-opacity="0.5"/>
</g>
<path d="M88.3169 32.8588L87.8127 32.7819C87.7433 32.7699 87.6803 32.734 87.6331 32.681C87.5889 32.6278 87.5605 32.5603 87.5605 32.4904V28.4447C87.5605 28.4132 87.5669 28.382 87.5795 28.3533C87.5921 28.3246 87.611 28.2991 87.6362 28.2788C87.6583 28.2584 87.6866 28.2436 87.7181 28.2355C87.7496 28.2274 87.7812 28.2261 87.8127 28.2318L88.3169 28.3084C88.3862 28.3202 88.4524 28.3557 88.4966 28.4089C88.5438 28.4621 88.569 28.5297 88.5722 28.6001V32.6457C88.5722 32.6776 88.5659 32.7088 88.5533 32.7378C88.5407 32.7667 88.5186 32.7923 88.4966 32.8128C88.4714 32.8329 88.443 32.8477 88.4115 32.8556C88.38 32.8638 88.3484 32.8648 88.3169 32.8588Z" fill="#24466C"/>
<path d="M88.3169 32.8588L87.8127 32.7819C87.7433 32.7699 87.6803 32.734 87.6331 32.681C87.5889 32.6278 87.5605 32.5603 87.5605 32.4904V28.4447C87.5605 28.4132 87.5669 28.382 87.5795 28.3533C87.5921 28.3246 87.611 28.2991 87.6362 28.2788C87.6583 28.2584 87.6866 28.2436 87.7181 28.2355C87.7496 28.2274 87.7812 28.2261 87.8127 28.2318L88.3169 28.3084C88.3862 28.3202 88.4524 28.3557 88.4966 28.4089C88.5438 28.4621 88.569 28.5297 88.5722 28.6001V32.6457C88.5722 32.6776 88.5659 32.7088 88.5533 32.7378C88.5407 32.7667 88.5186 32.7923 88.4966 32.8128C88.4714 32.8329 88.443 32.8477 88.4115 32.8556C88.38 32.8638 88.3484 32.8648 88.3169 32.8588Z" fill="url(#paint7_linear_47571_62651)"/>
<path d="M79.2501 31.2724L78.7427 31.1957C78.6734 31.1839 78.6104 31.1484 78.5631 31.0952C78.519 31.042 78.4906 30.9744 78.4906 30.904V26.8584C78.4875 26.8267 78.4969 26.7953 78.5095 26.7664C78.5221 26.7375 78.541 26.7119 78.5662 26.6915C78.5883 26.6711 78.6167 26.6564 78.6482 26.6484C78.6797 26.6405 78.7112 26.6395 78.7427 26.6455L79.2501 26.7222C79.3194 26.7335 79.3825 26.7686 79.4297 26.8214C79.4739 26.8743 79.5022 26.9415 79.5022 27.0117V31.0573C79.5054 31.0892 79.499 31.1209 79.4833 31.15C79.4707 31.1792 79.4518 31.205 79.4266 31.2257C79.4045 31.2463 79.3762 31.2612 79.3446 31.2693C79.3131 31.2774 79.2816 31.2784 79.2501 31.2724Z" fill="#24466C"/>
<path d="M79.2501 31.2724L78.7427 31.1957C78.6734 31.1839 78.6104 31.1484 78.5631 31.0952C78.519 31.042 78.4906 30.9744 78.4906 30.904V26.8584C78.4875 26.8267 78.4969 26.7953 78.5095 26.7664C78.5221 26.7375 78.541 26.7119 78.5662 26.6915C78.5883 26.6711 78.6167 26.6564 78.6482 26.6484C78.6797 26.6405 78.7112 26.6395 78.7427 26.6455L79.2501 26.7222C79.3194 26.7335 79.3825 26.7686 79.4297 26.8214C79.4739 26.8743 79.5022 26.9415 79.5022 27.0117V31.0573C79.5054 31.0892 79.499 31.1209 79.4833 31.15C79.4707 31.1792 79.4518 31.205 79.4266 31.2257C79.4045 31.2463 79.3762 31.2612 79.3446 31.2693C79.3131 31.2774 79.2816 31.2784 79.2501 31.2724Z" fill="url(#paint8_linear_47571_62651)"/>
<path fill-rule="evenodd" clip-rule="evenodd" d="M41.4919 44.3761L53.2343 41.0481C53.354 41.0112 53.4612 40.9385 53.5368 40.8398C53.6125 40.7412 53.6566 40.6214 53.6629 40.4966V37.9543C53.666 37.925 53.6629 37.8954 53.6597 37.8667L53.7953 37.9691L53.9371 37.8648L53.5211 37.665C53.4801 37.6407 53.4391 37.625 53.3919 37.6193C53.3414 37.6124 53.2879 37.6193 53.2374 37.6392L41.4919 40.9693C41.3721 41.0059 41.2681 41.0784 41.1925 41.1767C41.1168 41.275 41.0727 41.3945 41.0664 41.5186V44.0631C41.0633 44.1161 41.0696 44.1693 41.0916 44.2179C41.1137 44.2664 41.1483 44.3083 41.1925 44.3398C41.2334 44.3714 41.2839 44.3912 41.3375 44.3975C41.391 44.4038 41.4446 44.3966 41.4919 44.3761Z" fill="url(#paint9_linear_47571_62651)"/>
<path d="M53.6695 41.2548L41.9271 44.5828C41.8767 44.6032 41.8231 44.6105 41.7727 44.6042C41.7191 44.5976 41.6687 44.5774 41.6246 44.5459C41.5805 44.5141 41.5489 44.4718 41.5269 44.423C41.5048 44.3741 41.4954 44.3206 41.5017 44.2676V41.7253C41.508 41.6008 41.5521 41.4817 41.6277 41.3831C41.7033 41.2847 41.8074 41.2116 41.9271 41.1738L53.6695 37.8458C53.7199 37.826 53.7735 37.8191 53.8239 37.8257C53.8775 37.8323 53.9279 37.8525 53.9689 37.8837C54.013 37.9149 54.0477 37.9568 54.0698 38.005C54.0918 38.0529 54.1013 38.1058 54.095 38.1588V40.7137C54.0887 40.8363 54.0414 40.9535 53.9657 41.0503C53.8901 41.1467 53.7861 41.2179 53.6695 41.2548Z" fill="#EDF5FF"/>
<path d="M53.6695 41.2548L41.9271 44.5828C41.8767 44.6032 41.8231 44.6105 41.7727 44.6042C41.7191 44.5976 41.6687 44.5774 41.6246 44.5459C41.5805 44.5141 41.5489 44.4718 41.5269 44.423C41.5048 44.3741 41.4954 44.3206 41.5017 44.2676V41.7253C41.508 41.6008 41.5521 41.4817 41.6277 41.3831C41.7033 41.2847 41.8074 41.2116 41.9271 41.1738L53.6695 37.8458C53.7199 37.826 53.7735 37.8191 53.8239 37.8257C53.8775 37.8323 53.9279 37.8525 53.9689 37.8837C54.013 37.9149 54.0477 37.9568 54.0698 38.005C54.0918 38.0529 54.1013 38.1058 54.095 38.1588V40.7137C54.0887 40.8363 54.0414 40.9535 53.9657 41.0503C53.8901 41.1467 53.7861 41.2179 53.6695 41.2548Z" fill="url(#paint10_linear_47571_62651)" fill-opacity="0.5"/>
<path d="M53.6695 41.2548L41.9271 44.5828C41.8767 44.6032 41.8231 44.6105 41.7727 44.6042C41.7191 44.5976 41.6687 44.5774 41.6246 44.5459C41.5805 44.5141 41.5489 44.4718 41.5269 44.423C41.5048 44.3741 41.4954 44.3206 41.5017 44.2676V41.7253C41.508 41.6008 41.5521 41.4817 41.6277 41.3831C41.7033 41.2847 41.8074 41.2116 41.9271 41.1738L53.6695 37.8458C53.7199 37.826 53.7735 37.8191 53.8239 37.8257C53.8775 37.8323 53.9279 37.8525 53.9689 37.8837C54.013 37.9149 54.0477 37.9568 54.0698 38.005C54.0918 38.0529 54.1013 38.1058 54.095 38.1588V40.7137C54.0887 40.8363 54.0414 40.9535 53.9657 41.0503C53.8901 41.1467 53.7861 41.2179 53.6695 41.2548Z" fill="url(#paint11_linear_47571_62651)" fill-opacity="0.5"/>
<path d="M43.9883 46.8588L55.7213 43.5308C55.841 43.4952 55.9481 43.4234 56.0269 43.3244C56.1057 43.2258 56.1499 43.1051 56.1562 42.9793V40.4241C56.1593 40.4014 56.1593 40.3787 56.1562 40.356L56.2822 40.4499L56.4461 40.356C56.4019 40.3248 55.9387 40.0979 55.8851 40.0913C55.8347 40.0847 55.7811 40.0916 55.7307 40.1112L43.9883 43.4394C43.8686 43.4773 43.7645 43.5501 43.6889 43.6487C43.6133 43.747 43.5691 43.8665 43.5628 43.9906V46.5458C43.5565 46.5988 43.566 46.6521 43.5881 46.7006C43.6101 46.7491 43.6448 46.791 43.6857 46.8225C43.7299 46.8541 43.7803 46.8739 43.8338 46.8802C43.8843 46.8865 43.9379 46.8793 43.9883 46.8588Z" fill="url(#paint12_linear_47571_62651)"/>
<path d="M56.1562 43.7353L44.4138 47.0569C44.3666 47.0765 44.313 47.0834 44.2594 47.0768C44.2058 47.0702 44.1554 47.0503 44.1144 47.0188C44.0703 46.9876 44.0388 46.9457 44.0167 46.8978C43.9947 46.8496 43.9852 46.7966 43.9884 46.7437V44.2014C43.9947 44.0769 44.0388 43.9574 44.1144 43.8588C44.19 43.7602 44.2941 43.6874 44.4138 43.6499L56.1657 40.3282C56.2161 40.3087 56.2697 40.3017 56.3201 40.3083C56.3737 40.315 56.4241 40.3348 56.4651 40.3663C56.5092 40.3975 56.5438 40.4394 56.5627 40.4873C56.5848 40.5356 56.5943 40.5885 56.5911 40.6415V43.1838C56.5848 43.3092 56.5376 43.4296 56.4588 43.5282C56.3831 43.6269 56.276 43.699 56.1562 43.7353Z" fill="#EDF5FF"/>
<path d="M56.1562 43.7353L44.4138 47.0569C44.3666 47.0765 44.313 47.0834 44.2594 47.0768C44.2058 47.0702 44.1554 47.0503 44.1144 47.0188C44.0703 46.9876 44.0388 46.9457 44.0167 46.8978C43.9947 46.8496 43.9852 46.7966 43.9884 46.7437V44.2014C43.9947 44.0769 44.0388 43.9574 44.1144 43.8588C44.19 43.7602 44.2941 43.6874 44.4138 43.6499L56.1657 40.3282C56.2161 40.3087 56.2697 40.3017 56.3201 40.3083C56.3737 40.315 56.4241 40.3348 56.4651 40.3663C56.5092 40.3975 56.5438 40.4394 56.5627 40.4873C56.5848 40.5356 56.5943 40.5885 56.5911 40.6415V43.1838C56.5848 43.3092 56.5376 43.4296 56.4588 43.5282C56.3831 43.6269 56.276 43.699 56.1562 43.7353Z" fill="url(#paint13_linear_47571_62651)" fill-opacity="0.5"/>
<path d="M56.1562 43.7353L44.4138 47.0569C44.3666 47.0765 44.313 47.0834 44.2594 47.0768C44.2058 47.0702 44.1554 47.0503 44.1144 47.0188C44.0703 46.9876 44.0388 46.9457 44.0167 46.8978C43.9947 46.8496 43.9852 46.7966 43.9884 46.7437V44.2014C43.9947 44.0769 44.0388 43.9574 44.1144 43.8588C44.19 43.7602 44.2941 43.6874 44.4138 43.6499L56.1657 40.3282C56.2161 40.3087 56.2697 40.3017 56.3201 40.3083C56.3737 40.315 56.4241 40.3348 56.4651 40.3663C56.5092 40.3975 56.5438 40.4394 56.5627 40.4873C56.5848 40.5356 56.5943 40.5885 56.5911 40.6415V43.1838C56.5848 43.3092 56.5376 43.4296 56.4588 43.5282C56.3831 43.6269 56.276 43.699 56.1562 43.7353Z" fill="url(#paint14_linear_47571_62651)" fill-opacity="0.5"/>
<path fill-rule="evenodd" clip-rule="evenodd" d="M52.2925 38.8547C54.9492 43.1987 53.5184 50.1095 50.14 51.407L50.1621 51.4108L49.951 51.4732C49.9037 51.4874 49.8596 51.5009 49.8123 51.5132L44.0356 53.1992L44.168 53.1526C44.2279 53.1312 44.398 53.0672 44.5934 52.9714C45.0788 52.7366 45.5263 52.4309 45.9234 52.0644C46.0778 51.9194 46.2259 51.766 46.3677 51.6046C46.4024 51.5639 46.5379 51.4086 46.6986 51.1788C46.7081 51.1681 46.7144 51.1577 46.7238 51.1473C44.4012 50.1433 42.1164 47.7024 41.2939 44.9272C40.506 42.2561 40.9409 38.8578 42.4378 36.7318C42.0817 36.6048 41.7162 36.5078 41.3411 36.4422C41.1394 36.406 40.9283 36.3867 40.9283 36.3867C40.881 36.3719 40.8022 36.3719 40.7045 36.3719C40.4146 36.3593 40.1247 36.3685 39.8379 36.3994C39.8347 36.3994 39.8316 36.4003 39.8284 36.4012C39.8095 36.406 39.7528 36.4186 39.6835 36.4186C39.5542 36.4378 39.4471 36.4592 39.3715 36.4763L44.8298 34.8882C44.8519 34.8816 44.8739 34.875 44.896 34.8687C44.9212 34.8608 44.9495 34.8532 44.9748 34.8463L44.9779 34.845V34.8454C47.7701 34.0931 50.8744 36.5418 52.2925 38.8547Z" fill="#C9D7E9"/>
<path fill-rule="evenodd" clip-rule="evenodd" d="M52.2925 38.8547C54.9492 43.1987 53.5184 50.1095 50.14 51.407L50.1621 51.4108L49.951 51.4732C49.9037 51.4874 49.8596 51.5009 49.8123 51.5132L44.0356 53.1992L44.168 53.1526C44.2279 53.1312 44.398 53.0672 44.5934 52.9714C45.0788 52.7366 45.5263 52.4309 45.9234 52.0644C46.0778 51.9194 46.2259 51.766 46.3677 51.6046C46.4024 51.5639 46.5379 51.4086 46.6986 51.1788C46.7081 51.1681 46.7144 51.1577 46.7238 51.1473C44.4012 50.1433 42.1164 47.7024 41.2939 44.9272C40.506 42.2561 40.9409 38.8578 42.4378 36.7318C42.0817 36.6048 41.7162 36.5078 41.3411 36.4422C41.1394 36.406 40.9283 36.3867 40.9283 36.3867C40.881 36.3719 40.8022 36.3719 40.7045 36.3719C40.4146 36.3593 40.1247 36.3685 39.8379 36.3994C39.8347 36.3994 39.8316 36.4003 39.8284 36.4012C39.8095 36.406 39.7528 36.4186 39.6835 36.4186C39.5542 36.4378 39.4471 36.4592 39.3715 36.4763L44.8298 34.8882C44.8519 34.8816 44.8739 34.875 44.896 34.8687C44.9212 34.8608 44.9495 34.8532 44.9748 34.8463L44.9779 34.845V34.8454C47.7701 34.0931 50.8744 36.5418 52.2925 38.8547Z" fill="url(#paint15_linear_47571_62651)"/>
<path fill-rule="evenodd" clip-rule="evenodd" d="M52.2925 38.8547C54.9492 43.1987 53.5184 50.1095 50.14 51.407L50.1621 51.4108L49.951 51.4732C49.9037 51.4874 49.8596 51.5009 49.8123 51.5132L44.0356 53.1992L44.168 53.1526C44.2279 53.1312 44.398 53.0672 44.5934 52.9714C45.0788 52.7366 45.5263 52.4309 45.9234 52.0644C46.0778 51.9194 46.2259 51.766 46.3677 51.6046C46.4024 51.5639 46.5379 51.4086 46.6986 51.1788C46.7081 51.1681 46.7144 51.1577 46.7238 51.1473C44.4012 50.1433 42.1164 47.7024 41.2939 44.9272C40.506 42.2561 40.9409 38.8578 42.4378 36.7318C42.0817 36.6048 41.7162 36.5078 41.3411 36.4422C41.1394 36.406 40.9283 36.3867 40.9283 36.3867C40.881 36.3719 40.8022 36.3719 40.7045 36.3719C40.4146 36.3593 40.1247 36.3685 39.8379 36.3994C39.8347 36.3994 39.8316 36.4003 39.8284 36.4012C39.8095 36.406 39.7528 36.4186 39.6835 36.4186C39.5542 36.4378 39.4471 36.4592 39.3715 36.4763L44.8298 34.8882C44.8519 34.8816 44.8739 34.875 44.896 34.8687C44.9212 34.8608 44.9495 34.8532 44.9748 34.8463L44.9779 34.845V34.8454C47.7701 34.0931 50.8744 36.5418 52.2925 38.8547Z" fill="url(#paint16_linear_47571_62651)" fill-opacity="0.4"/>
<path d="M43.8148 53.2695C47.3287 52.2611 49.1029 47.7031 47.7762 43.0893C46.4525 38.4755 42.5321 35.5529 39.0182 36.5613C35.5043 37.5701 33.73 42.1281 35.0568 46.7419C36.3804 51.3556 40.3009 54.2783 43.8148 53.2695Z" fill="#4A6588" fill-opacity="0.5"/>
<path d="M43.8148 53.2695C47.3287 52.2611 49.1029 47.7031 47.7762 43.0893C46.4525 38.4755 42.5321 35.5529 39.0182 36.5613C35.5043 37.5701 33.73 42.1281 35.0568 46.7419C36.3804 51.3556 40.3009 54.2783 43.8148 53.2695Z" fill="url(#paint17_linear_47571_62651)" fill-opacity="0.4"/>
<path d="M41.3754 46.6947L40.1117 47.0587L40.6569 46.6074L41.3754 46.6947Z" fill="#B7AEBD"/>
<path d="M41.0007 46.8532C41.6688 46.6619 42.0124 45.8195 41.7697 44.9718C41.5239 44.124 40.7864 43.592 40.1215 43.7833C39.4534 43.9746 39.1098 44.8173 39.3525 45.6651C39.5952 46.5128 40.3358 47.0448 41.0007 46.8532Z" fill="#001D3E"/>
<path d="M41.0007 46.8532C41.6688 46.6619 42.0124 45.8195 41.7697 44.9718C41.5239 44.124 40.7864 43.592 40.1215 43.7833C39.4534 43.9746 39.1098 44.8173 39.3525 45.6651C39.5952 46.5128 40.3358 47.0448 41.0007 46.8532Z" fill="url(#paint18_linear_47571_62651)" fill-opacity="0.3"/>
<g opacity="0.8">
<path opacity="0.8" fill-rule="evenodd" clip-rule="evenodd" d="M41.0006 46.8532C41.6687 46.6619 42.0122 45.8195 41.7696 44.9717C41.5269 44.1338 40.8052 43.6043 40.1434 43.777L40.1466 43.7732L38.8828 44.1353L39.5131 44.2482C39.2767 44.6159 39.2011 45.1394 39.3524 45.6647C39.51 46.2059 39.8661 46.6181 40.2758 46.7961L39.7936 47.197L40.9124 46.8746C40.9407 46.8689 40.9722 46.862 41.0006 46.8532Z" fill="#C9D7E9"/>
<path opacity="0.8" fill-rule="evenodd" clip-rule="evenodd" d="M41.0006 46.8532C41.6687 46.6619 42.0122 45.8195 41.7696 44.9717C41.5269 44.1338 40.8052 43.6043 40.1434 43.777L40.1466 43.7732L38.8828 44.1353L39.5131 44.2482C39.2767 44.6159 39.2011 45.1394 39.3524 45.6647C39.51 46.2059 39.8661 46.6181 40.2758 46.7961L39.7936 47.197L40.9124 46.8746C40.9407 46.8689 40.9722 46.862 41.0006 46.8532Z" fill="url(#paint19_linear_47571_62651)" fill-opacity="0.5"/>
<path opacity="0.8" fill-rule="evenodd" clip-rule="evenodd" d="M41.0006 46.8532C41.6687 46.6619 42.0122 45.8195 41.7696 44.9717C41.5269 44.1338 40.8052 43.6043 40.1434 43.777L40.1466 43.7732L38.8828 44.1353L39.5131 44.2482C39.2767 44.6159 39.2011 45.1394 39.3524 45.6647C39.51 46.2059 39.8661 46.6181 40.2758 46.7961L39.7936 47.197L40.9124 46.8746C40.9407 46.8689 40.9722 46.862 41.0006 46.8532Z" fill="url(#paint20_linear_47571_62651)" fill-opacity="0.5"/>
</g>
<path d="M39.7964 47.198C40.4614 47.0064 40.8049 46.164 40.5622 45.3162C40.3196 44.4685 39.5821 43.9365 38.914 44.1278C38.2459 44.3194 37.9024 45.1618 38.1482 46.0096C38.3909 46.8573 39.1283 47.3893 39.7964 47.198Z" fill="#001D3E"/>
<path d="M39.7964 47.198C40.4614 47.0064 40.8049 46.164 40.5622 45.3162C40.3196 44.4685 39.5821 43.9365 38.914 44.1278C38.2459 44.3194 37.9024 45.1618 38.1482 46.0096C38.3909 46.8573 39.1283 47.3893 39.7964 47.198Z" fill="url(#paint21_linear_47571_62651)" fill-opacity="0.5"/>
<path d="M38.3186 45.9922C36.9225 46.342 35.5579 46.8087 34.2406 47.3867C32.8256 48.0063 26.5447 50.7616 24.0361 55.4397C20.7649 61.5463 26.2579 66.5694 23.8249 70.9342C22.224 73.8216 17.2793 76.1849 3 74.358" stroke="url(#paint22_linear_47571_62651)" stroke-width="4.64908" stroke-linecap="round" stroke-linejoin="round"/>
<defs>
<linearGradient id="paint0_linear_47571_62651" x1="103.1" y1="58.8791" x2="72.5468" y2="30.6679" gradientUnits="userSpaceOnUse">
<stop offset="0.275866" stop-color="#001D3E"/>
<stop offset="1" stop-color="white" stop-opacity="0"/>
</linearGradient>
<linearGradient id="paint1_linear_47571_62651" x1="111.408" y1="6.60127" x2="88.2412" y2="13.3672" gradientUnits="userSpaceOnUse">
<stop offset="0.185318" stop-color="#001D3E"/>
<stop offset="1" stop-color="white" stop-opacity="0"/>
</linearGradient>
<linearGradient id="paint2_linear_47571_62651" x1="63.4392" y1="4.68881" x2="112.12" y2="70.9071" gradientUnits="userSpaceOnUse">
<stop stop-color="#F5F7FB"/>
<stop offset="0.9998" stop-color="#7692C6"/>
</linearGradient>
<linearGradient id="paint3_linear_47571_62651" x1="81.2734" y1="13.5832" x2="83.9584" y2="34.4025" gradientUnits="userSpaceOnUse">
<stop stop-color="#DAE1EA"/>
<stop offset="1" stop-color="white" stop-opacity="0"/>
</linearGradient>
<linearGradient id="paint4_linear_47571_62651" x1="86.0321" y1="38.6284" x2="83.7536" y2="30.8543" gradientUnits="userSpaceOnUse">
<stop stop-color="#7692C6" stop-opacity="0.5"/>
<stop offset="1" stop-color="white" stop-opacity="0"/>
</linearGradient>
<linearGradient id="paint5_linear_47571_62651" x1="79.0137" y1="40.8819" x2="74.7151" y2="14.211" gradientUnits="userSpaceOnUse">
<stop offset="0.19787" stop-color="#001D3E"/>
<stop offset="1" stop-color="white" stop-opacity="0"/>
</linearGradient>
<linearGradient id="paint6_linear_47571_62651" x1="86.4669" y1="16.1823" x2="73.8862" y2="34.9476" gradientUnits="userSpaceOnUse">
<stop stop-color="#001D3E"/>
<stop offset="1" stop-color="white" stop-opacity="0"/>
</linearGradient>
<linearGradient id="paint7_linear_47571_62651" x1="89.0166" y1="37.0045" x2="83.035" y2="32.777" gradientUnits="userSpaceOnUse">
<stop stop-color="#7692C6" stop-opacity="0.5"/>
<stop offset="1" stop-color="white" stop-opacity="0"/>
</linearGradient>
<linearGradient id="paint8_linear_47571_62651" x1="79.9497" y1="35.4187" x2="73.9619" y2="31.1794" gradientUnits="userSpaceOnUse">
<stop stop-color="#7692C6" stop-opacity="0.5"/>
<stop offset="1" stop-color="white" stop-opacity="0"/>
</linearGradient>
<linearGradient id="paint9_linear_47571_62651" x1="51.9138" y1="34.1568" x2="47.5049" y2="44.4016" gradientUnits="userSpaceOnUse">
<stop stop-color="#001D3E"/>
<stop offset="0.309392" stop-color="#B8C6D9"/>
<stop offset="1" stop-color="white"/>
</linearGradient>
<linearGradient id="paint10_linear_47571_62651" x1="45.9705" y1="44.4772" x2="54.6055" y2="36.2856" gradientUnits="userSpaceOnUse">
<stop offset="0.456172" stop-color="#7692C6"/>
<stop offset="1" stop-color="white" stop-opacity="0"/>
</linearGradient>
<linearGradient id="paint11_linear_47571_62651" x1="44.1867" y1="37.8799" x2="47.001" y2="45.3835" gradientUnits="userSpaceOnUse">
<stop stop-color="white"/>
<stop offset="1" stop-color="white" stop-opacity="0"/>
</linearGradient>
<linearGradient id="paint12_linear_47571_62651" x1="54.4228" y1="36.6234" x2="50.0044" y2="46.8824" gradientUnits="userSpaceOnUse">
<stop stop-color="#001D3E"/>
<stop offset="0.309392" stop-color="#B8C6D9"/>
<stop offset="1" stop-color="white"/>
</linearGradient>
<linearGradient id="paint13_linear_47571_62651" x1="48.4603" y1="46.9501" x2="57.0828" y2="38.7525" gradientUnits="userSpaceOnUse">
<stop offset="0.456172" stop-color="#7692C6"/>
<stop offset="1" stop-color="white" stop-opacity="0"/>
</linearGradient>
<linearGradient id="paint14_linear_47571_62651" x1="46.6766" y1="40.3626" x2="49.4814" y2="47.8593" gradientUnits="userSpaceOnUse">
<stop stop-color="white"/>
<stop offset="1" stop-color="white" stop-opacity="0"/>
</linearGradient>
<linearGradient id="paint15_linear_47571_62651" x1="44.7731" y1="35.4662" x2="43.607" y2="54.3294" gradientUnits="userSpaceOnUse">
<stop stop-color="#DAE1EA"/>
<stop offset="1" stop-color="white" stop-opacity="0"/>
</linearGradient>
<linearGradient id="paint16_linear_47571_62651" x1="51.5236" y1="47.4343" x2="38.3378" y2="34.124" gradientUnits="userSpaceOnUse">
<stop stop-color="#7692C6"/>
<stop offset="1" stop-color="white" stop-opacity="0"/>
</linearGradient>
<linearGradient id="paint17_linear_47571_62651" x1="34.811" y1="41.5394" x2="41.5583" y2="52.2828" gradientUnits="userSpaceOnUse">
<stop stop-color="#728BAD"/>
<stop offset="1" stop-color="white" stop-opacity="0"/>
</linearGradient>
<linearGradient id="paint18_linear_47571_62651" x1="36.2893" y1="45.3168" x2="37.9532" y2="48.4645" gradientUnits="userSpaceOnUse">
<stop stop-color="white" stop-opacity="0"/>
<stop offset="1" stop-color="#F1F2F3"/>
</linearGradient>
<linearGradient id="paint19_linear_47571_62651" x1="41.1141" y1="48.5301" x2="39.9669" y2="43.2302" gradientUnits="userSpaceOnUse">
<stop offset="0.456172" stop-color="#566C89"/>
<stop offset="1" stop-color="white" stop-opacity="0"/>
</linearGradient>
<linearGradient id="paint20_linear_47571_62651" x1="39.5163" y1="43.7732" x2="41.6467" y2="46.4009" gradientUnits="userSpaceOnUse">
<stop stop-color="white"/>
<stop offset="1" stop-color="white" stop-opacity="0"/>
</linearGradient>
<linearGradient id="paint21_linear_47571_62651" x1="37.8142" y1="43.1004" x2="39.7964" y2="47.198" gradientUnits="userSpaceOnUse">
<stop stop-color="white"/>
<stop offset="1" stop-color="white" stop-opacity="0"/>
</linearGradient>
<linearGradient id="paint22_linear_47571_62651" x1="-0.422503" y1="68.4109" x2="41.407" y2="50.8505" gradientUnits="userSpaceOnUse">
<stop offset="0.176796" stop-color="white" stop-opacity="0"/>
<stop offset="0.516081" stop-color="#B8C6D9"/>
<stop offset="0.801105" stop-color="#001D3E" stop-opacity="0.95"/>
</linearGradient>
</defs>
</svg>
