<svg width="28" height="28" viewBox="0 0 28 28" fill="none" xmlns="http://www.w3.org/2000/svg">
<path d="M13.5864 6.82713C13.9658 6.82713 14.3846 6.8482 14.8429 6.89035C15.3066 6.9325 15.7675 7.00625 16.2259 7.11162C16.6895 7.21172 17.1294 7.35133 17.5456 7.53045C17.9618 7.70958 18.3122 7.93348 18.5966 8.20217C18.76 8.35495 18.8917 8.52881 18.9918 8.72374C19.0971 8.91867 19.1498 9.1294 19.1498 9.35594V18.4597C19.1498 18.6967 19.0971 18.9101 18.9918 19.0998C18.8917 19.2842 18.76 19.4554 18.5966 19.6134C18.3227 19.8821 17.975 20.106 17.5535 20.2851C17.1373 20.459 16.6948 20.5986 16.2259 20.704C15.7623 20.8094 15.2987 20.8831 14.835 20.9253C14.3714 20.9674 13.9552 20.9885 13.5864 20.9885C13.2071 20.9885 12.7856 20.9674 12.322 20.9253C11.8637 20.8831 11.4027 20.812 10.9391 20.7119C10.4807 20.6065 10.0435 20.4643 9.62726 20.2851C9.21106 20.106 8.86072 19.8821 8.57623 19.6134C8.41291 19.4607 8.27856 19.2868 8.1732 19.0919C8.0731 18.8969 8.02305 18.6862 8.02305 18.4597V9.35594C8.02305 9.11886 8.0731 8.90813 8.1732 8.72374C8.27856 8.53408 8.41291 8.36022 8.57623 8.20217C8.85018 7.93348 9.19526 7.71221 9.61146 7.53836C10.0329 7.35923 10.4755 7.21699 10.9391 7.11162C11.408 7.00625 11.8742 6.9325 12.3378 6.89035C12.8015 6.8482 13.2177 6.82713 13.5864 6.82713ZM13.5864 7.83865C13.3177 7.83865 13.0359 7.84919 12.7409 7.87026C12.4511 7.88607 12.1587 7.91768 11.8637 7.96509C11.5687 8.00724 11.2789 8.06519 10.9944 8.13895C10.7152 8.20744 10.4491 8.29173 10.1962 8.39183C10.1172 8.42344 10.0119 8.47349 9.88015 8.54198C9.74844 8.6052 9.61936 8.67896 9.49292 8.76325C9.36648 8.84754 9.25848 8.94237 9.16892 9.04774C9.07936 9.14784 9.03457 9.25057 9.03457 9.35594C9.03457 9.39809 9.04248 9.4376 9.05828 9.47448C9.07409 9.51136 9.09516 9.54824 9.1215 9.58511C9.23214 9.7537 9.39019 9.90122 9.59565 10.0277C9.80639 10.1541 10.0408 10.2647 10.299 10.3596C10.5624 10.4544 10.8416 10.5361 11.1366 10.6045C11.4317 10.6678 11.7241 10.7204 12.0138 10.7626C12.3089 10.7995 12.5907 10.8284 12.8594 10.8495C13.1334 10.8653 13.3757 10.8732 13.5864 10.8732C13.7972 10.8732 14.0369 10.8653 14.3056 10.8495C14.5795 10.8284 14.8614 10.7995 15.1511 10.7626C15.4462 10.7204 15.7412 10.6678 16.0362 10.6045C16.3313 10.5361 16.6078 10.4544 16.866 10.3596C17.1294 10.2647 17.3638 10.1541 17.5693 10.0277C17.7748 9.90122 17.9355 9.7537 18.0514 9.58511C18.0777 9.54824 18.0988 9.51136 18.1146 9.47448C18.1304 9.4376 18.1383 9.39809 18.1383 9.35594C18.1383 9.25057 18.0935 9.14784 18.004 9.04774C17.9144 8.94237 17.8064 8.84754 17.68 8.76325C17.5535 8.67896 17.4244 8.6052 17.2927 8.54198C17.161 8.47349 17.0556 8.42344 16.9766 8.39183C16.7237 8.29173 16.4551 8.20744 16.1706 8.13895C15.8913 8.06519 15.6042 8.00724 15.3092 7.96509C15.0142 7.91768 14.7191 7.88607 14.4241 7.87026C14.1343 7.84919 13.8551 7.83865 13.5864 7.83865ZM13.5864 19.977C13.8551 19.977 14.1343 19.969 14.4241 19.9532C14.7191 19.9322 15.0142 19.9006 15.3092 19.8584C15.6042 19.811 15.8913 19.753 16.1706 19.6846C16.4551 19.6161 16.7237 19.5291 16.9766 19.4238C17.0556 19.3922 17.161 19.3447 17.2927 19.2815C17.4244 19.213 17.5535 19.1366 17.68 19.0524C17.8064 18.9681 17.9144 18.8759 18.004 18.7758C18.0935 18.6704 18.1383 18.565 18.1383 18.4597V10.8574C17.838 11.0524 17.4982 11.2157 17.1189 11.3474C16.7395 11.4791 16.3444 11.5845 15.9335 11.6635C15.5278 11.7425 15.1222 11.8005 14.7165 11.8373C14.3108 11.8689 13.9341 11.8848 13.5864 11.8848C13.2387 11.8848 12.8594 11.8689 12.4485 11.8373C12.0428 11.8005 11.6371 11.7425 11.2315 11.6635C10.8258 11.5845 10.4333 11.4791 10.054 11.3474C9.67468 11.2157 9.33487 11.0524 9.03457 10.8574V18.4597C9.03457 18.565 9.07936 18.6704 9.16892 18.7758C9.25848 18.8759 9.36648 18.9681 9.49292 19.0524C9.61936 19.1366 9.74844 19.213 9.88015 19.2815C10.0119 19.3447 10.1172 19.3922 10.1962 19.4238C10.4491 19.5291 10.7152 19.6161 10.9944 19.6846C11.2789 19.753 11.5687 19.811 11.8637 19.8584C12.1587 19.9006 12.4511 19.9322 12.7409 19.9532C13.0359 19.969 13.3177 19.977 13.5864 19.977Z" fill="black"/>
</svg>
