<svg width="28" height="28" viewBox="0 0 28 28" fill="none" xmlns="http://www.w3.org/2000/svg">
<path d="M17.0026 12.4567C17.6168 12.4567 18.1948 12.5754 18.7367 12.8128C19.2786 13.045 19.7509 13.3624 20.1534 13.765C20.556 14.1676 20.8734 14.6398 21.1057 15.1817C21.3431 15.7236 21.4618 16.3017 21.4618 16.9158C21.4618 17.53 21.3431 18.108 21.1057 18.6499C20.8734 19.1918 20.556 19.6641 20.1534 20.0666C19.7509 20.4692 19.2786 20.7892 18.7367 21.0266C18.1948 21.2588 17.6168 21.375 17.0026 21.375C16.5949 21.375 16.2001 21.3234 15.8182 21.2201C15.4362 21.1118 15.0801 20.9621 14.7498 20.7711C14.4247 20.575 14.1253 20.3428 13.8518 20.0744C13.5834 19.8008 13.3512 19.4989 13.1551 19.1686C12.9641 18.8383 12.8144 18.4848 12.706 18.108C12.6028 17.7261 12.5512 17.3287 12.5512 16.9158C12.5512 16.5029 12.6028 16.1081 12.706 15.7314C12.8144 15.3494 12.9641 14.9933 13.1551 14.663C13.3512 14.3327 13.5834 14.0334 13.8518 13.765C14.1253 13.4915 14.4247 13.2592 14.7498 13.0683C15.0801 12.8721 15.4337 12.7225 15.8104 12.6192C16.1923 12.5109 16.5897 12.4567 17.0026 12.4567ZM17.0026 20.384C17.4826 20.384 17.9316 20.2937 18.3497 20.1131C18.7729 19.9273 19.1393 19.6796 19.449 19.3699C19.7638 19.0551 20.0115 18.6886 20.1922 18.2706C20.378 17.8474 20.4709 17.3958 20.4709 16.9158C20.4709 16.4358 20.378 15.9868 20.1922 15.5688C20.0115 15.1456 19.7638 14.7791 19.449 14.4695C19.1393 14.1547 18.7729 13.9069 18.3497 13.7263C17.9316 13.5405 17.4826 13.4476 17.0026 13.4476C16.5226 13.4476 16.0711 13.5405 15.6478 13.7263C15.2298 13.9069 14.8634 14.1547 14.5485 14.4695C14.2389 14.7791 13.9912 15.1456 13.8054 15.5688C13.6247 15.9868 13.5344 16.4358 13.5344 16.9158C13.5344 17.3958 13.6247 17.8474 13.8054 18.2706C13.9912 18.6886 14.2389 19.0551 14.5485 19.3699C14.8634 19.6796 15.2298 19.9273 15.6478 20.1131C16.0711 20.2937 16.5226 20.384 17.0026 20.384ZM8.57979 17.9067C8.57979 17.9996 8.61076 18.0874 8.67269 18.17C8.73978 18.2525 8.80688 18.3222 8.87397 18.379C9.04944 18.5286 9.26105 18.6577 9.50878 18.7661C9.76167 18.8744 10.0249 18.9673 10.2984 19.0448C10.572 19.117 10.8429 19.1789 11.1113 19.2305C11.3848 19.277 11.6326 19.3105 11.8545 19.3312C12.03 19.7079 12.239 20.0537 12.4815 20.3686C12.2596 20.3582 11.9835 20.335 11.6532 20.2989C11.3229 20.2576 10.9771 20.1982 10.6158 20.1208C10.2546 20.0434 9.89328 19.9428 9.532 19.8189C9.17073 19.695 8.84558 19.5454 8.55656 19.3699C8.26755 19.1893 8.03272 18.9802 7.85208 18.7428C7.67661 18.5003 7.58887 18.2216 7.58887 17.9067L7.59661 8.98844C7.59661 8.75104 7.65596 8.53427 7.77467 8.33815C7.89853 8.14203 8.05852 7.96397 8.25464 7.80398C8.45592 7.64399 8.68043 7.50206 8.92816 7.3782C9.18105 7.25433 9.43652 7.14853 9.69458 7.06079C9.95263 6.96789 10.2004 6.89306 10.4378 6.83629C10.6803 6.77435 10.8919 6.72532 11.0726 6.6892C11.3977 6.63242 11.7229 6.58855 12.048 6.55759C12.3783 6.52662 12.7086 6.51114 13.0389 6.51114C13.6996 6.51114 14.355 6.56533 15.0053 6.67371C15.1963 6.70468 15.413 6.74855 15.6556 6.80532C15.9033 6.86209 16.1562 6.93693 16.4143 7.02982C16.6723 7.11756 16.9252 7.22336 17.1729 7.34723C17.4258 7.46593 17.6478 7.60528 17.8387 7.76527C18.0348 7.92527 18.1922 8.10848 18.311 8.31493C18.4297 8.51621 18.489 8.74071 18.489 8.98844V11.4193C18.3239 11.378 18.1587 11.3419 17.9935 11.3109C17.8284 11.28 17.6632 11.2567 17.4981 11.2412V10.4516C17.1936 10.6426 16.853 10.8026 16.4762 10.9316C16.1046 11.0606 15.7201 11.1638 15.3227 11.2412C14.9253 11.3187 14.5253 11.3754 14.1228 11.4116C13.7254 11.4425 13.3512 11.458 13.0002 11.458C12.6441 11.458 12.2699 11.4425 11.8777 11.4116C11.4906 11.3754 11.1035 11.3187 10.7165 11.2412C10.3294 11.1638 9.95263 11.0606 9.58619 10.9316C9.21976 10.8026 8.88429 10.6426 8.57979 10.4516V17.9067ZM13.0389 7.50206C12.7448 7.50206 12.4093 7.51754 12.0325 7.54851C11.6558 7.57948 11.2764 7.63367 10.8945 7.71108C10.5126 7.78334 10.1462 7.88398 9.79522 8.013C9.44943 8.13687 9.15525 8.29428 8.91268 8.48524C8.84042 8.54201 8.76559 8.61427 8.68817 8.70201C8.61592 8.78974 8.57979 8.88522 8.57979 8.98844C8.57979 9.05554 8.59527 9.11231 8.62624 9.15876C8.73462 9.33423 8.89203 9.48907 9.09847 9.62325C9.30492 9.75744 9.53974 9.87356 9.80296 9.97162C10.0662 10.0645 10.3474 10.1445 10.6468 10.2116C10.9513 10.2787 11.2481 10.3329 11.5371 10.3742C11.8313 10.4103 12.1074 10.4361 12.3654 10.4516C12.6286 10.4671 12.8557 10.4748 13.0467 10.4748C13.2325 10.4748 13.4544 10.4671 13.7125 10.4516C13.9705 10.4361 14.2415 10.4103 14.5253 10.3742C14.8143 10.3329 15.1059 10.2813 15.4001 10.2194C15.6943 10.1574 15.9704 10.08 16.2285 9.98711C16.4917 9.88905 16.7265 9.77808 16.933 9.65422C17.1394 9.52519 17.2994 9.3781 17.4129 9.21295C17.4387 9.17682 17.4594 9.14069 17.4749 9.10457C17.4903 9.06844 17.4981 9.02973 17.4981 8.98844C17.4981 8.88522 17.4594 8.78974 17.382 8.70201C17.3097 8.61427 17.2375 8.54201 17.1652 8.48524C16.9226 8.29428 16.6259 8.13687 16.2749 8.013C15.9291 7.88398 15.5653 7.78334 15.1834 7.71108C14.8014 7.63367 14.4221 7.57948 14.0453 7.54851C13.6686 7.51754 13.3331 7.50206 13.0389 7.50206Z" fill="black"/>
<path d="M17.5542 17.8742L19.1636 17.8742L19.1636 16.8888L17.5542 16.8888L17.5542 15.2794L16.5689 15.2794L16.5689 16.8888L16.5689 17.8742H17.5542Z" fill="black"/>
</svg>
