<svg width="32" height="32" viewBox="0 0 32 32" fill="none" xmlns="http://www.w3.org/2000/svg">
<path d="M28 8.89062V25.1094L15 31.625L2 25.1094V8.89062L15 2.375L28 8.89062ZM15 4.625L5.23438 9.5L15 14.375L24.7656 9.5L15 4.625ZM4 23.875L14 28.8906V16.125L4 11.1094V23.875ZM26 23.875V11.1094L16 16.125V28.8906L26 23.875Z" fill="#50E6FF"/>
<path d="M28 8.89062H28.8V8.39673L28.3585 8.17543L28 8.89062ZM28 25.1094L28.3585 25.8246L28.8 25.6033V25.1094H28ZM15 31.625L14.6415 32.3402L15 32.5199L15.3585 32.3402L15 31.625ZM2 25.1094H1.2V25.6033L1.64154 25.8246L2 25.1094ZM2 8.89062L1.64154 8.17543L1.2 8.39673V8.89062H2ZM15 2.375L15.3585 1.6598L15 1.48014L14.6415 1.6598L15 2.375ZM15 4.625L15.3573 3.90923L15 3.73086L14.6427 3.90923L15 4.625ZM5.23438 9.5L4.87706 8.78423L3.44323 9.5L4.87706 10.2158L5.23438 9.5ZM15 14.375L14.6427 15.0908L15 15.2691L15.3573 15.0908L15 14.375ZM24.7656 9.5L25.1229 10.2158L26.5568 9.5L25.1229 8.78423L24.7656 9.5ZM4 23.875H3.2V24.3687L3.64134 24.5901L4 23.875ZM14 28.8906L13.6413 29.6057L14.8 30.1869V28.8906H14ZM14 16.125H14.8V15.6313L14.3587 15.4099L14 16.125ZM4 11.1094L4.35866 10.3943L3.2 9.81314V11.1094H4ZM26 23.875L26.3587 24.5901L26.8 24.3687V23.875H26ZM26 11.1094H26.8V9.81314L25.6413 10.3943L26 11.1094ZM16 16.125L15.6413 15.4099L15.2 15.6313V16.125H16ZM16 28.8906H15.2V30.1869L16.3587 29.6057L16 28.8906ZM27.2 8.89062V25.1094H28.8V8.89062H27.2ZM27.6415 24.3942L14.6415 30.9098L15.3585 32.3402L28.3585 25.8246L27.6415 24.3942ZM15.3585 30.9098L2.35846 24.3942L1.64154 25.8246L14.6415 32.3402L15.3585 30.9098ZM2.8 25.1094V8.89062H1.2V25.1094H2.8ZM2.35846 9.60582L15.3585 3.0902L14.6415 1.6598L1.64154 8.17543L2.35846 9.60582ZM14.6415 3.0902L27.6415 9.60582L28.3585 8.17543L15.3585 1.6598L14.6415 3.0902ZM14.6427 3.90923L4.87706 8.78423L5.59169 10.2158L15.3573 5.34077L14.6427 3.90923ZM4.87706 10.2158L14.6427 15.0908L15.3573 13.6592L5.59169 8.78423L4.87706 10.2158ZM15.3573 15.0908L25.1229 10.2158L24.4083 8.78423L14.6427 13.6592L15.3573 15.0908ZM25.1229 8.78423L15.3573 3.90923L14.6427 5.34077L24.4083 10.2158L25.1229 8.78423ZM3.64134 24.5901L13.6413 29.6057L14.3587 28.1755L4.35866 23.1599L3.64134 24.5901ZM14.8 28.8906V16.125H13.2V28.8906H14.8ZM14.3587 15.4099L4.35866 10.3943L3.64134 11.8245L13.6413 16.8401L14.3587 15.4099ZM3.2 11.1094V23.875H4.8V11.1094H3.2ZM26.8 23.875V11.1094H25.2V23.875H26.8ZM25.6413 10.3943L15.6413 15.4099L16.3587 16.8401L26.3587 11.8245L25.6413 10.3943ZM15.2 16.125V28.8906H16.8V16.125H15.2ZM16.3587 29.6057L26.3587 24.5901L25.6413 23.1599L15.6413 28.1755L16.3587 29.6057Z" fill="#4C5EFB"/>
<path d="M3.2 10.4L14.4 16V29.6L3.2 24V10.4Z" fill="#50E6FF"/>
<path d="M16 16L26.4 10.4V24L16 28.8V16Z" fill="#50E6FF"/>
<path d="M15.2 4L24.8 9.6L15.2 14.4L4.8 9.6L15.2 4Z" fill="#50E6FF"/>
</svg>
