<svg width="28" height="28" viewBox="0 0 28 28" fill="none" xmlns="http://www.w3.org/2000/svg">
<path d="M11.9805 14.4697C11.9805 15.0557 11.9268 15.5749 11.8193 16.0273C11.7152 16.4798 11.5622 16.8623 11.3604 17.1748C11.1618 17.484 10.916 17.7201 10.623 17.8828C10.3333 18.0423 10.0029 18.1221 9.63184 18.1221C9.28027 18.1221 8.96615 18.0456 8.68945 17.8926C8.41602 17.7363 8.1849 17.5101 7.99609 17.2139C7.80729 16.9176 7.66406 16.5547 7.56641 16.125C7.46875 15.6921 7.41992 15.1973 7.41992 14.6406C7.41992 14.0286 7.47038 13.4883 7.57129 13.0195C7.67546 12.5508 7.82682 12.1585 8.02539 11.8428C8.22396 11.5238 8.46973 11.2845 8.7627 11.125C9.05892 10.9622 9.39746 10.8809 9.77832 10.8809C11.2464 10.8809 11.9805 12.0771 11.9805 14.4697ZM11.1602 14.5479C11.1602 12.5557 10.6865 11.5596 9.73926 11.5596C8.73991 11.5596 8.24023 12.5736 8.24023 14.6016C8.24023 16.4928 8.73014 17.4385 9.70996 17.4385C10.6768 17.4385 11.1602 16.4749 11.1602 14.5479ZM13.4795 18.1074C13.3298 18.1074 13.2012 18.0537 13.0938 17.9463C12.9896 17.8389 12.9375 17.7103 12.9375 17.5605C12.9375 17.4108 12.9896 17.2822 13.0938 17.1748C13.2012 17.0641 13.3298 17.0088 13.4795 17.0088C13.6325 17.0088 13.7627 17.0641 13.8701 17.1748C13.9775 17.2822 14.0312 17.4108 14.0312 17.5605C14.0312 17.7103 13.9775 17.8389 13.8701 17.9463C13.7627 18.0537 13.6325 18.1074 13.4795 18.1074ZM19.5391 14.4697C19.5391 15.0557 19.4854 15.5749 19.3779 16.0273C19.2738 16.4798 19.1208 16.8623 18.9189 17.1748C18.7204 17.484 18.4746 17.7201 18.1816 17.8828C17.8919 18.0423 17.5615 18.1221 17.1904 18.1221C16.8389 18.1221 16.5247 18.0456 16.248 17.8926C15.9746 17.7363 15.7435 17.5101 15.5547 17.2139C15.3659 16.9176 15.2227 16.5547 15.125 16.125C15.0273 15.6921 14.9785 15.1973 14.9785 14.6406C14.9785 14.0286 15.029 13.4883 15.1299 13.0195C15.234 12.5508 15.3854 12.1585 15.584 11.8428C15.7826 11.5238 16.0283 11.2845 16.3213 11.125C16.6175 10.9622 16.9561 10.8809 17.3369 10.8809C18.805 10.8809 19.5391 12.0771 19.5391 14.4697ZM18.7188 14.5479C18.7188 12.5557 18.2451 11.5596 17.2979 11.5596C16.2985 11.5596 15.7988 12.5736 15.7988 14.6016C15.7988 16.4928 16.2887 17.4385 17.2686 17.4385C18.2354 17.4385 18.7188 16.4749 18.7188 14.5479Z" fill="black"/>
<path d="M11.8193 16.0273L11.7707 16.0158L11.7706 16.0161L11.8193 16.0273ZM11.3604 17.1748L11.3183 17.1477L11.3183 17.1478L11.3604 17.1748ZM10.623 17.8828L10.6472 17.9266L10.6473 17.9265L10.623 17.8828ZM8.68945 17.8926L8.66464 17.936L8.66526 17.9363L8.68945 17.8926ZM7.56641 16.125L7.51763 16.136L7.51765 16.1361L7.56641 16.125ZM7.57129 13.0195L7.52248 13.0087L7.52241 13.009L7.57129 13.0195ZM8.02539 11.8428L8.06772 11.8694L8.06784 11.8692L8.02539 11.8428ZM8.7627 11.125L8.7866 11.1689L8.78677 11.1688L8.7627 11.125ZM11.9305 14.4697C11.9305 15.0527 11.877 15.5679 11.7707 16.0158L11.868 16.0389C11.9765 15.5818 12.0305 15.0586 12.0305 14.4697H11.9305ZM11.7706 16.0161C11.6674 16.4643 11.5164 16.8411 11.3183 17.1477L11.4024 17.2019C11.608 16.8835 11.7629 16.4953 11.8681 16.0386L11.7706 16.0161ZM11.3183 17.1478C11.1237 17.4508 10.8838 17.6807 10.5988 17.8391L10.6473 17.9265C10.9482 17.7594 11.1998 17.5173 11.4024 17.2018L11.3183 17.1478ZM10.5989 17.839C10.3175 17.994 9.99554 18.0721 9.63184 18.0721V18.1721C10.0103 18.1721 10.3492 18.0907 10.6472 17.9266L10.5989 17.839ZM9.63184 18.0721C9.28777 18.0721 8.98213 17.9973 8.71365 17.8488L8.66526 17.9363C8.95016 18.0939 9.27278 18.1721 9.63184 18.1721V18.0721ZM8.71426 17.8492C8.44865 17.6974 8.22321 17.4772 8.03826 17.187L7.95393 17.2407C8.14658 17.543 8.38339 17.7753 8.66465 17.936L8.71426 17.8492ZM8.03826 17.187C7.85322 16.8967 7.71186 16.5394 7.61516 16.1139L7.51765 16.1361C7.61627 16.57 7.76137 16.9386 7.95393 17.2407L8.03826 17.187ZM7.61518 16.114C7.51851 15.6854 7.46992 15.1945 7.46992 14.6406H7.36992C7.36992 15.2001 7.41899 15.6987 7.51763 16.136L7.61518 16.114ZM7.46992 14.6406C7.46992 14.0313 7.52017 13.4946 7.62017 13.0301L7.52241 13.009C7.42058 13.482 7.36992 14.026 7.36992 14.6406H7.46992ZM7.6201 13.0304C7.72336 12.5657 7.87293 12.1791 8.06772 11.8694L7.98306 11.8162C7.78071 12.1379 7.62755 12.5359 7.52248 13.0087L7.6201 13.0304ZM8.06784 11.8692C8.26243 11.5566 8.50214 11.3238 8.7866 11.1689L8.73879 11.0811C8.43731 11.2452 8.18549 11.491 7.98294 11.8164L8.06784 11.8692ZM8.78677 11.1688C9.07472 11.0106 9.40479 10.9309 9.77832 10.9309V10.8309C9.39013 10.8309 9.04312 10.9139 8.73862 11.0812L8.78677 11.1688ZM9.77832 10.9309C10.496 10.9309 11.0299 11.2217 11.3873 11.8042C11.7472 12.3907 11.9305 13.2769 11.9305 14.4697H12.0305C12.0305 13.2699 11.8467 12.3617 11.4725 11.7519C11.0959 11.1382 10.5288 10.8309 9.77832 10.8309V10.9309ZM11.2102 14.5479C11.2102 13.5494 11.0917 12.7933 10.8501 12.2852C10.729 12.0304 10.576 11.836 10.3896 11.7054C10.2028 11.5744 9.98536 11.5096 9.73926 11.5096V11.6096C9.96679 11.6096 10.1638 11.6692 10.3322 11.7873C10.5011 11.9057 10.6441 12.0848 10.7598 12.3281C10.9918 12.816 11.1102 13.5541 11.1102 14.5479H11.2102ZM9.73926 11.5096C9.48052 11.5096 9.25193 11.5754 9.05542 11.7083C8.85926 11.841 8.69795 12.0386 8.57014 12.298C8.3152 12.8153 8.19023 13.5851 8.19023 14.6016H8.29023C8.29023 13.5901 8.41511 12.8388 8.65984 12.3422C8.78186 12.0945 8.93285 11.9119 9.11145 11.7911C9.2897 11.6705 9.49832 11.6096 9.73926 11.6096V11.5096ZM8.19023 14.6016C8.19023 15.5499 8.31279 16.2688 8.56327 16.7522C8.68889 16.9947 8.84739 17.1794 9.0399 17.3032C9.23264 17.4272 9.45661 17.4885 9.70996 17.4885V17.3885C9.4734 17.3885 9.2687 17.3315 9.09401 17.2191C8.91909 17.1066 8.7714 16.9366 8.65206 16.7062C8.41263 16.2441 8.29023 15.5445 8.29023 14.6016H8.19023ZM9.70996 17.4885C9.96037 17.4885 10.1817 17.4259 10.3721 17.2995C10.5622 17.1732 10.7185 16.9851 10.8423 16.7382C11.0893 16.246 11.2102 15.514 11.2102 14.5479H11.1102C11.1102 15.5088 10.9894 16.2221 10.7529 16.6934C10.635 16.9283 10.4892 17.1016 10.3168 17.2162C10.1446 17.3306 9.94295 17.3885 9.70996 17.3885V17.4885ZM13.0938 17.9463L13.0579 17.9811L13.0584 17.9816L13.0938 17.9463ZM13.0938 17.1748L13.0579 17.14L13.0579 17.14L13.0938 17.1748ZM13.8701 17.1748L13.8342 17.2096L13.8348 17.2102L13.8701 17.1748ZM13.4795 18.0574C13.3432 18.0574 13.2273 18.0091 13.1291 17.9109L13.0584 17.9816C13.175 18.0983 13.3163 18.1574 13.4795 18.1574V18.0574ZM13.1296 17.9115C13.0345 17.8134 12.9875 17.6973 12.9875 17.5605H12.8875C12.8875 17.7233 12.9446 17.8643 13.0579 17.9811L13.1296 17.9115ZM12.9875 17.5605C12.9875 17.4238 13.0345 17.3077 13.1296 17.2096L13.0579 17.14C12.9446 17.2568 12.8875 17.3978 12.8875 17.5605H12.9875ZM13.1296 17.2096C13.228 17.1083 13.3437 17.0588 13.4795 17.0588V16.9588C13.3158 16.9588 13.1744 17.0199 13.0579 17.14L13.1296 17.2096ZM13.4795 17.0588C13.6188 17.0588 13.7361 17.1086 13.8342 17.2096L13.906 17.14C13.7892 17.0197 13.6461 16.9588 13.4795 16.9588V17.0588ZM13.8348 17.2102C13.933 17.3084 13.9812 17.4243 13.9812 17.5605H14.0813C14.0813 17.3973 14.0221 17.2561 13.9055 17.1394L13.8348 17.2102ZM13.9812 17.5605C13.9812 17.6968 13.933 17.8127 13.8348 17.9109L13.9055 17.9816C14.0221 17.865 14.0813 17.7238 14.0813 17.5605H13.9812ZM13.8348 17.9109C13.7368 18.0089 13.6193 18.0574 13.4795 18.0574V18.1574C13.6456 18.1574 13.7886 18.0985 13.9055 17.9816L13.8348 17.9109ZM19.3779 16.0273L19.3293 16.0158L19.3292 16.0161L19.3779 16.0273ZM18.9189 17.1748L18.8769 17.1477L18.8769 17.1478L18.9189 17.1748ZM18.1816 17.8828L18.2058 17.9266L18.2059 17.9265L18.1816 17.8828ZM16.248 17.8926L16.2232 17.936L16.2239 17.9363L16.248 17.8926ZM15.125 16.125L15.0762 16.136L15.0762 16.1361L15.125 16.125ZM15.1299 13.0195L15.0811 13.0087L15.081 13.009L15.1299 13.0195ZM15.584 11.8428L15.6263 11.8694L15.6264 11.8692L15.584 11.8428ZM16.3213 11.125L16.3452 11.1689L16.3454 11.1688L16.3213 11.125ZM19.4891 14.4697C19.4891 15.0527 19.4356 15.5679 19.3293 16.0158L19.4266 16.0389C19.5351 15.5818 19.5891 15.0586 19.5891 14.4697H19.4891ZM19.3292 16.0161C19.226 16.4643 19.0749 16.8411 18.8769 17.1477L18.9609 17.2019C19.1666 16.8835 19.3215 16.4953 19.4267 16.0386L19.3292 16.0161ZM18.8769 17.1478C18.6823 17.4508 18.4424 17.6807 18.1574 17.8391L18.2059 17.9265C18.5068 17.7594 18.7584 17.5173 18.961 17.2018L18.8769 17.1478ZM18.1575 17.839C17.8761 17.994 17.5541 18.0721 17.1904 18.0721V18.1721C17.5689 18.1721 17.9078 18.0907 18.2058 17.9266L18.1575 17.839ZM17.1904 18.0721C16.8464 18.0721 16.5407 17.9973 16.2722 17.8488L16.2239 17.9363C16.5088 18.0939 16.8314 18.1721 17.1904 18.1721V18.0721ZM16.2729 17.8492C16.0072 17.6974 15.7818 17.4772 15.5969 17.187L15.5125 17.2407C15.7052 17.543 15.942 17.7753 16.2232 17.936L16.2729 17.8492ZM15.5969 17.187C15.4118 16.8967 15.2704 16.5394 15.1738 16.1139L15.0762 16.1361C15.1749 16.57 15.32 16.9386 15.5125 17.2407L15.5969 17.187ZM15.1738 16.114C15.0771 15.6854 15.0285 15.1945 15.0285 14.6406H14.9285C14.9285 15.2001 14.9776 15.6987 15.0762 16.136L15.1738 16.114ZM15.0285 14.6406C15.0285 14.0313 15.0788 13.4946 15.1788 13.0301L15.081 13.009C14.9792 13.482 14.9285 14.026 14.9285 14.6406H15.0285ZM15.1787 13.0304C15.282 12.5657 15.4315 12.1791 15.6263 11.8694L15.5417 11.8162C15.3393 12.1379 15.1861 12.5359 15.0811 13.0087L15.1787 13.0304ZM15.6264 11.8692C15.821 11.5566 16.0607 11.3238 16.3452 11.1689L16.2974 11.0811C15.9959 11.2452 15.7441 11.491 15.5415 11.8164L15.6264 11.8692ZM16.3454 11.1688C16.6333 11.0106 16.9634 10.9309 17.3369 10.9309V10.8309C16.9487 10.8309 16.6017 10.9139 16.2972 11.0812L16.3454 11.1688ZM17.3369 10.9309C18.0545 10.9309 18.5885 11.2217 18.9459 11.8042C19.3058 12.3907 19.4891 13.2769 19.4891 14.4697H19.5891C19.5891 13.2699 19.4053 12.3617 19.0311 11.7519C18.6545 11.1382 18.0874 10.8309 17.3369 10.8309V10.9309ZM18.7688 14.5479C18.7688 13.5494 18.6503 12.7933 18.4087 12.2852C18.2875 12.0304 18.1346 11.836 17.9482 11.7054C17.7614 11.5744 17.5439 11.5096 17.2979 11.5096V11.6096C17.5254 11.6096 17.7224 11.6692 17.8908 11.7873C18.0597 11.9057 18.2027 12.0848 18.3184 12.3281C18.5504 12.816 18.6687 13.5541 18.6687 14.5479H18.7688ZM17.2979 11.5096C17.0391 11.5096 16.8105 11.5754 16.614 11.7083C16.4179 11.841 16.2565 12.0386 16.1287 12.298C15.8738 12.8153 15.7488 13.5851 15.7488 14.6016H15.8488C15.8488 13.5901 15.9737 12.8388 16.2184 12.3422C16.3405 12.0945 16.4914 11.9119 16.67 11.7911C16.8483 11.6705 17.0569 11.6096 17.2979 11.6096V11.5096ZM15.7488 14.6016C15.7488 15.5499 15.8714 16.2688 16.1219 16.7522C16.2475 16.9947 16.406 17.1794 16.5985 17.3032C16.7912 17.4272 17.0152 17.4885 17.2686 17.4885V17.3885C17.032 17.3885 16.8273 17.3315 16.6526 17.2191C16.4777 17.1066 16.33 16.9366 16.2107 16.7062C15.9712 16.2441 15.8488 15.5445 15.8488 14.6016H15.7488ZM17.2686 17.4885C17.519 17.4885 17.7403 17.4259 17.9307 17.2995C18.1207 17.1732 18.2771 16.9851 18.4009 16.7382C18.6478 16.246 18.7688 15.514 18.7688 14.5479H18.6687C18.6687 15.5088 18.548 16.2221 18.3115 16.6934C18.1936 16.9283 18.0478 17.1016 17.8753 17.2162C17.7032 17.3306 17.5015 17.3885 17.2686 17.3885V17.4885Z" fill="black"/>
</svg>
