<svg width="28" height="28" viewBox="0 0 28 28" fill="none" xmlns="http://www.w3.org/2000/svg">
<path d="M10.332 14.986L8.297 12.104H9.397L10.915 14.326L12.422 12.104H13.511L11.476 14.986L13.621 18H12.521L10.915 15.646L9.287 18H8.198L10.332 14.986ZM19.5423 18H14.3503V17.197L16.4073 15.118C16.8033 14.722 17.1369 14.37 17.4083 14.062C17.6796 13.754 17.8849 13.4533 18.0243 13.16C18.1636 12.8593 18.2333 12.533 18.2333 12.181C18.2333 11.7483 18.1049 11.422 17.8483 11.202C17.5916 10.9747 17.2579 10.861 16.8473 10.861C16.4659 10.861 16.1286 10.927 15.8353 11.059C15.5493 11.191 15.2559 11.3743 14.9553 11.609L14.4383 10.96C14.6436 10.784 14.8673 10.6263 15.1093 10.487C15.3586 10.3477 15.6263 10.2377 15.9123 10.157C16.2056 10.0763 16.5173 10.036 16.8473 10.036C17.3386 10.036 17.7603 10.1203 18.1123 10.289C18.4643 10.4577 18.7356 10.6997 18.9263 11.015C19.1243 11.323 19.2233 11.6933 19.2233 12.126C19.2233 12.434 19.1756 12.7273 19.0803 13.006C18.9849 13.2773 18.8493 13.545 18.6733 13.809C18.4973 14.073 18.2846 14.3407 18.0353 14.612C17.7859 14.8833 17.5109 15.1657 17.2103 15.459L15.5713 17.076V17.12H19.5423V18Z" fill="black"/>
</svg>
