<svg width="28" height="28" viewBox="0 0 28 28" fill="none" xmlns="http://www.w3.org/2000/svg">
<path d="M18.4246 10.2097C19.052 10.8417 19.5352 11.5341 19.8745 12.2869C20.2137 13.0351 20.3833 13.8576 20.3833 14.7545C20.3833 15.3307 20.309 15.886 20.1603 16.4204C20.0116 16.9502 19.8001 17.4474 19.526 17.9121C19.2564 18.3721 18.9311 18.7927 18.5501 19.1737C18.1737 19.5501 17.7531 19.8754 17.2884 20.1496C16.8284 20.4191 16.3311 20.6282 15.7967 20.7769C15.267 20.9256 14.714 21 14.1378 21C13.5615 21 13.0062 20.9256 12.4718 20.7769C11.9421 20.6282 11.4448 20.4191 10.9801 20.1496C10.5201 19.8754 10.0995 19.5501 9.71849 19.1737C9.34208 18.7927 9.01679 18.3721 8.74262 17.9121C8.47309 17.4474 8.26398 16.9502 8.11528 16.4204C7.96657 15.886 7.89222 15.3307 7.89222 14.7545C7.89222 14.2386 7.95263 13.7368 8.07345 13.2488C8.19892 12.7609 8.37318 12.3008 8.59624 11.8687C8.82394 11.4365 9.09811 11.0369 9.41876 10.6697C9.7394 10.298 10.0972 9.97038 10.4922 9.68691C10.8872 9.3988 11.3171 9.15948 11.7817 8.96895C12.2464 8.77843 12.7344 8.64599 13.2455 8.57163V7.61668H11.4611V6.72446H15.9222V7.61668H14.1378V8.5089C14.7837 8.5089 15.411 8.60416 16.0198 8.79469C16.6332 8.98522 17.2025 9.26868 17.7276 9.64509L19.1774 8.19523L19.8048 8.82257L18.4246 10.2097ZM14.1378 20.1078C14.8766 20.1078 15.569 19.9684 16.215 19.6895C16.8656 19.4061 17.4325 19.0227 17.9158 18.5394C18.4037 18.0515 18.7871 17.4846 19.0659 16.8386C19.3494 16.188 19.4911 15.4933 19.4911 14.7545C19.4911 14.0156 19.3494 13.3232 19.0659 12.6772C18.7871 12.0267 18.4037 11.4597 17.9158 10.9765C17.4325 10.4885 16.8656 10.1051 16.215 9.82632C15.569 9.54285 14.8766 9.40112 14.1378 9.40112C13.3989 9.40112 12.7042 9.54285 12.0536 9.82632C11.4077 10.1051 10.8407 10.4885 10.3528 10.9765C9.86951 11.4597 9.48614 12.0267 9.20267 12.6772C8.92385 13.3232 8.78444 14.0156 8.78444 14.7545C8.78444 15.4933 8.92385 16.188 9.20267 16.8386C9.48614 17.4846 9.86951 18.0515 10.3528 18.5394C10.8407 19.0227 11.4077 19.4061 12.0536 19.6895C12.7042 19.9684 13.3989 20.1078 14.1378 20.1078ZM18.5989 13.8622V14.7545C18.5989 15.3725 18.4827 15.9534 18.2504 16.4971C18.018 17.0361 17.6997 17.5078 17.2954 17.9121C16.8911 18.3164 16.4171 18.6347 15.8734 18.867C15.3344 19.0994 14.7558 19.2156 14.1378 19.2156C13.5197 19.2156 12.9388 19.0994 12.3952 18.867C11.8561 18.6347 11.3844 18.3187 10.9801 17.919C10.5759 17.5148 10.2575 17.0431 10.0252 16.504C9.79284 15.9603 9.67666 15.3795 9.67666 14.7614C9.67666 14.3525 9.7301 13.9575 9.83699 13.5764C9.94387 13.1954 10.0926 12.8399 10.2831 12.51C10.4783 12.18 10.7106 11.8803 10.9801 11.6108C11.2543 11.3366 11.5564 11.1019 11.8863 10.9067C12.2162 10.7116 12.5694 10.5605 12.9458 10.4537C13.3269 10.3468 13.7242 10.2933 14.1378 10.2933H15.03V13.8622H18.5989ZM14.1378 18.3233C14.6304 18.3233 15.0927 18.2304 15.5249 18.0445C15.9617 17.8586 16.3404 17.6054 16.6611 17.2847C16.9864 16.9594 17.242 16.5807 17.4278 16.1485C17.6137 15.7117 17.7067 15.247 17.7067 14.7545H14.1378V11.1856C13.6405 11.1856 13.1758 11.2808 12.7437 11.4714C12.3115 11.6572 11.9328 11.9128 11.6075 12.2381C11.2868 12.5587 11.0336 12.9375 10.8477 13.3743C10.6618 13.8111 10.5689 14.2758 10.5689 14.7684C10.5689 15.261 10.6618 15.7233 10.8477 16.1555C11.0382 16.5877 11.2938 16.9641 11.6145 17.2847C11.9397 17.6054 12.3185 17.8586 12.7506 18.0445C13.1828 18.2304 13.6452 18.3233 14.1378 18.3233Z" fill="black"/>
</svg>
