<svg width="345" height="279" viewBox="0 0 345 279" fill="none" xmlns="http://www.w3.org/2000/svg">
<path d="M236.17 57.4279C251.897 77.1482 239.344 95.5416 259.45 112.714C286.755 136.024 302.303 113.248 327.78 128.699C345.765 139.607 347.393 175.072 342.695 191.086C338.531 205.286 326.658 222.042 315.418 233.838C300.464 249.533 276.415 259.879 264.003 266.265C197.362 300.064 91.4565 256.162 33.7048 199.534C7.83938 174.152 2.86166 155.419 1.35613 147.575C-6.26525 108.783 20.505 78.3592 25.366 72.891C77.2887 13.7192 202.606 15.1771 236.17 57.4279Z" fill="url(#paint0_radial_2_2210)"/>
<path d="M236.17 57.4279C251.897 77.1482 239.344 95.5416 259.45 112.714C286.755 136.024 302.303 113.248 327.78 128.699C345.765 139.607 347.393 175.072 342.695 191.086C338.531 205.286 326.658 222.042 315.418 233.838C300.464 249.533 276.415 259.879 264.003 266.265C197.362 300.064 91.4565 256.162 33.7048 199.534C7.83938 174.152 2.86166 155.419 1.35613 147.575C-6.26525 108.783 20.505 78.3592 25.366 72.891C77.2887 13.7192 202.606 15.1771 236.17 57.4279Z" fill="url(#paint1_linear_2_2210)" fill-opacity="0.25"/>
<path d="M221.358 21.8025C218.683 22.7651 217.927 23.5011 216.997 26.1624C216.066 23.5011 215.311 22.7085 212.637 21.8025C215.311 20.8399 216.066 20.1038 216.997 17.4426C217.927 20.1038 218.683 20.8399 221.358 21.8025Z" fill="#95A1B1"/>
<path d="M30.5782 134.09C25.897 135.774 24.5746 137.062 22.947 141.719C21.3182 137.062 19.9959 135.675 15.3158 134.09C19.9959 132.406 21.3182 131.117 22.947 126.46C24.5746 131.117 25.897 132.406 30.5782 134.09Z" fill="#95A1B1"/>
<path d="M295.49 206.041C290.808 207.726 289.486 209.013 287.858 213.67C286.23 209.013 284.907 207.626 280.227 206.041C284.907 204.357 286.23 203.068 287.858 198.411C289.486 203.068 290.808 204.357 295.49 206.041Z" fill="#95A1B1"/>
<path d="M123.849 14.895L127.735 27.0435C127.909 27.626 127.563 28.2916 126.872 28.5413L82.1301 41.8548C81.4389 42.0213 80.7478 41.6884 80.5755 41.1059C79.2793 37.0287 77.897 32.8682 76.6019 28.7909C76.5157 28.5183 76.3642 27.2542 77.7247 26.7939C81.1795 25.7122 96.3819 21.2188 99.6644 20.2203C102.774 19.305 117.803 14.8118 120.912 13.8965C120.912 13.8965 121.949 14.2293 123.849 14.895Z" fill="url(#paint2_linear_2_2210)"/>
<path d="M182.111 0L185.381 4.36081C198.773 45.5714 213.001 89.2449 226.131 130.372C234.479 156.077 249.82 202.772 250.91 206.042C251.091 206.587 251.183 210.948 249.275 211.493C243.824 213.051 238.373 214.763 238.373 214.763L224.746 218.579C224.746 218.579 148.706 241.523 101.012 255.645C99.3766 256.129 98.2865 255.645 97.1745 253.009V252.926C56.86 129.185 56.3149 128.64 34.5115 58.8692L33.4213 55.5987C32.8751 53.9634 32.3311 52.3282 32.3311 52.3282C32.3311 52.3282 30.5607 47.9675 31.786 46.3322C32.8762 44.1519 39.6396 42.7538 42.1427 41.9715C45.4731 40.9308 178.295 1.09017 182.111 0Z" fill="#6A7C90"/>
<path d="M182.111 0L185.381 4.36081C198.773 45.5714 213.001 89.2449 226.131 130.372C234.479 156.077 249.82 202.772 250.91 206.042C251.091 206.587 251.183 210.948 249.275 211.493C243.824 213.051 238.373 214.763 238.373 214.763L224.746 218.579C224.746 218.579 148.706 241.523 101.012 255.645C99.3766 256.129 98.2865 255.645 97.1745 253.009V252.926C56.86 129.185 56.3149 128.64 34.5115 58.8692L33.4213 55.5987C32.8751 53.9634 32.3311 52.3282 32.3311 52.3282C32.3311 52.3282 30.5607 47.9675 31.786 46.3322C32.8762 44.1519 39.6396 42.7538 42.1427 41.9715C45.4731 40.9308 178.295 1.09017 182.111 0Z" fill="url(#paint3_linear_2_2210)" fill-opacity="0.5"/>
<path d="M248.379 209.238L103.463 252.753C101.654 253.336 99.6721 252.336 99.1553 250.586L34.0198 47.8498C33.417 46.0992 34.4515 44.1818 36.2601 43.6816L181.176 0.166872C182.986 -0.416664 184.967 0.583677 185.485 2.33427L250.619 205.07C251.222 206.821 250.189 208.738 248.379 209.238Z" fill="#C9D7E9"/>
<path d="M248.379 209.238L103.463 252.753C101.654 253.336 99.6721 252.336 99.1553 250.586L34.0198 47.8498C33.417 46.0992 34.4515 44.1818 36.2601 43.6816L181.176 0.166872C182.986 -0.416664 184.967 0.583677 185.485 2.33427L250.619 205.07C251.222 206.821 250.189 208.738 248.379 209.238Z" fill="url(#paint4_linear_2_2210)"/>
<path d="M248.379 209.238L103.463 252.753C101.654 253.336 99.6721 252.336 99.1553 250.586L34.0198 47.8498C33.417 46.0992 34.4515 44.1818 36.2601 43.6816L181.176 0.166872C182.986 -0.416664 184.967 0.583677 185.485 2.33427L250.619 205.07C251.222 206.821 250.189 208.738 248.379 209.238Z" fill="url(#paint5_linear_2_2210)" fill-opacity="0.2"/>
<g opacity="0.6">
<path opacity="0.6" d="M173.027 16.1262L48.9977 52.2023C48.9977 52.2023 91.7105 196.081 137.678 196.32C155.332 196.734 255.801 160.356 255.801 160.356C222.1 153.004 194.808 66.2918 173.027 16.1262Z" fill="#E1DFDD" fill-opacity="0.6"/>
<path opacity="0.6" d="M173.027 16.1262L48.9977 52.2023C48.9977 52.2023 91.7105 196.081 137.678 196.32C155.332 196.734 255.801 160.356 255.801 160.356C222.1 153.004 194.808 66.2918 173.027 16.1262Z" fill="url(#paint6_linear_2_2210)"/>
</g>
<path opacity="0.6" d="M162.061 179.878C156.765 188.796 145.635 194.642 137.678 196.32C138.871 196.311 142.766 196.157 153.596 193.505C167.233 190.166 186.54 184.084 208.115 176.906C231.393 169.175 255.801 160.357 255.801 160.357C260.906 158.159 266.435 154.905 269.988 145.538C266.493 146.072 166.422 179.333 162.061 179.878Z" fill="white"/>
<g opacity="0.9">
<path opacity="0.9" fill-rule="evenodd" clip-rule="evenodd" d="M243.564 153.864C237.382 155.866 230.547 158.088 223.538 160.366C195.381 169.522 164.443 179.581 162.061 179.878C156.767 188.795 145.637 194.641 137.68 196.319C137.685 196.32 137.69 196.32 137.695 196.32C138.909 196.31 142.819 196.144 153.596 193.505C167.233 190.165 186.54 184.084 208.116 176.906C209.228 176.537 210.343 176.165 211.457 175.791C223.938 171.595 235.434 167.588 243.593 164.707C250.064 162.424 254.436 160.849 255.532 160.454C255.709 160.389 255.802 160.355 255.802 160.355C251.68 159.457 247.597 157.209 243.564 153.864Z" fill="#E1DFDD"/>
<path opacity="0.9" fill-rule="evenodd" clip-rule="evenodd" d="M243.564 153.864C237.382 155.866 230.547 158.088 223.538 160.366C195.381 169.522 164.443 179.581 162.061 179.878C156.767 188.795 145.637 194.641 137.68 196.319C137.685 196.32 137.69 196.32 137.695 196.32C138.909 196.31 142.819 196.144 153.596 193.505C167.233 190.165 186.54 184.084 208.116 176.906C209.228 176.537 210.343 176.165 211.457 175.791C223.938 171.595 235.434 167.588 243.593 164.707C250.064 162.424 254.436 160.849 255.532 160.454C255.709 160.389 255.802 160.355 255.802 160.355C251.68 159.457 247.597 157.209 243.564 153.864Z" fill="white"/>
</g>
<path d="M106.319 6.49086C99.9272 8.48783 96.3852 15.0613 98.3726 21.2188C100.445 27.3763 107.269 30.7879 113.661 28.8741C120.053 26.8772 123.594 20.3035 121.607 14.146C119.534 7.90536 112.711 4.4938 106.319 6.49086ZM111.415 22.051C108.91 22.7998 106.147 21.4685 105.368 19.0554C104.591 16.6424 105.973 13.9797 108.478 13.2307C110.983 12.4819 113.747 13.8132 114.525 16.2263C115.302 18.6394 114.006 21.3021 111.415 22.051Z" fill="#566C89"/>
<path d="M106.319 6.49086C99.9272 8.48783 96.3852 15.0613 98.3726 21.2188C100.445 27.3763 107.269 30.7879 113.661 28.8741C120.053 26.8772 123.594 20.3035 121.607 14.146C119.534 7.90536 112.711 4.4938 106.319 6.49086ZM111.415 22.051C108.91 22.7998 106.147 21.4685 105.368 19.0554C104.591 16.6424 105.973 13.9797 108.478 13.2307C110.983 12.4819 113.747 13.8132 114.525 16.2263C115.302 18.6394 114.006 21.3021 111.415 22.051Z" fill="url(#paint7_linear_2_2210)" fill-opacity="0.45"/>
<path d="M147.171 28.9573L86.1038 47.2633C85.1543 47.513 84.2036 47.0138 83.9442 46.1817L78.1575 28.3748C77.8981 27.4595 78.417 26.5442 79.2804 26.2947L140.347 7.98852C141.298 7.73898 142.248 8.23817 142.507 9.0703L148.294 26.877C148.639 27.7923 148.121 28.7076 147.171 28.9573Z" fill="#566C89"/>
<path d="M147.171 28.9573L86.1038 47.2633C85.1543 47.513 84.2036 47.0138 83.9442 46.1817L78.1575 28.3748C77.8981 27.4595 78.417 26.5442 79.2804 26.2947L140.347 7.98852C141.298 7.73898 142.248 8.23817 142.507 9.0703L148.294 26.877C148.639 27.7923 148.121 28.7076 147.171 28.9573Z" fill="url(#paint8_linear_2_2210)" fill-opacity="0.6"/>
<defs>
<radialGradient id="paint0_radial_2_2210" cx="0" cy="0" r="1" gradientUnits="userSpaceOnUse" gradientTransform="translate(130.88 -45.2142) rotate(87.1966) scale(309.031 452.475)">
<stop stop-color="#ECECEC"/>
<stop offset="1" stop-color="#B7C4D3" stop-opacity="0"/>
</radialGradient>
<linearGradient id="paint1_linear_2_2210" x1="101.627" y1="-120.047" x2="144.098" y2="268.364" gradientUnits="userSpaceOnUse">
<stop stop-color="#596D84"/>
<stop offset="1" stop-color="white" stop-opacity="0"/>
</linearGradient>
<linearGradient id="paint2_linear_2_2210" x1="80.1798" y1="13.082" x2="73.6388" y2="42.5166" gradientUnits="userSpaceOnUse">
<stop stop-color="#737F8E"/>
<stop offset="1" stop-color="#566C89"/>
</linearGradient>
<linearGradient id="paint3_linear_2_2210" x1="140.803" y1="0" x2="140.803" y2="255.1" gradientUnits="userSpaceOnUse">
<stop stop-color="#DADADA"/>
<stop offset="1" stop-color="white" stop-opacity="0"/>
</linearGradient>
<linearGradient id="paint4_linear_2_2210" x1="115.787" y1="10.3861" x2="101.42" y2="268.559" gradientUnits="userSpaceOnUse">
<stop stop-color="#DAE1EA"/>
<stop offset="1" stop-color="white" stop-opacity="0"/>
</linearGradient>
<linearGradient id="paint5_linear_2_2210" x1="108.644" y1="-115.013" x2="142.32" y2="252.92" gradientUnits="userSpaceOnUse">
<stop stop-color="#7692C6"/>
<stop offset="1" stop-color="white" stop-opacity="0"/>
</linearGradient>
<linearGradient id="paint6_linear_2_2210" x1="112.067" y1="99.9337" x2="149.073" y2="194.478" gradientUnits="userSpaceOnUse">
<stop stop-color="white"/>
<stop offset="0.9998" stop-color="#FCFBFB" stop-opacity="0.98901"/>
<stop offset="0.9999" stop-color="#D5D4D4" stop-opacity="0.867403"/>
<stop offset="1" stop-color="#F3F2F1"/>
</linearGradient>
<linearGradient id="paint7_linear_2_2210" x1="113.81" y1="1.03665" x2="101.578" y2="25.9548" gradientUnits="userSpaceOnUse">
<stop offset="0.113761" stop-color="#F3F2F1"/>
<stop offset="1" stop-color="white" stop-opacity="0"/>
</linearGradient>
<linearGradient id="paint8_linear_2_2210" x1="136.325" y1="1.63537" x2="79.3535" y2="72.2861" gradientUnits="userSpaceOnUse">
<stop stop-color="#EDEBE9"/>
<stop offset="1" stop-color="white" stop-opacity="0"/>
</linearGradient>
</defs>
</svg>
