<svg width="28" height="28" viewBox="0 0 28 28" fill="none" xmlns="http://www.w3.org/2000/svg">
<path fill-rule="evenodd" clip-rule="evenodd" d="M12.7801 8.96336L13.7435 8H19.5236L20.487 8.96336V13.7801L19.5236 14.7435H15.6702V13.7801H19.5236V8.96336H13.7435V11.8534H12.7801V8.96336ZM14.7069 14.7435V13.7801L13.7435 12.8168H7.96336L7 13.7801V18.5969L7.96336 19.5603H13.7435L14.7069 18.5969V14.7435ZM13.7435 13.7801V18.5969H7.96336V13.7801H13.7435ZM15.1057 12.8168L14.7069 12.418V11.8534H18.5603V12.8168H15.1057ZM14.7069 9.92671H18.5603V10.8901H14.7069V9.92671ZM12.7801 15.7069H8.92671V16.6702H12.7801V15.7069Z" fill="black"/>
</svg>
