<svg width="297" height="206" viewBox="0 0 297 206" fill="none" xmlns="http://www.w3.org/2000/svg">
<path d="M109.59 123.756L130.042 110.621L129.968 139.931L109.512 153.07L109.59 123.756Z" fill="#185A97"/>
<path d="M109.587 123.751L109.509 153.066L86.4297 138.338L86.505 109.023L109.587 123.751Z" fill="#005BA1"/>
<path d="M86.5039 109.033L106.96 95.8984L130.039 110.626L109.588 123.761L86.5039 109.033Z" fill="#156AB3"/>
<path d="M108.522 122.641L108.828 84.7383L79.2637 103.857L78.957 141.769L108.522 122.641Z" fill="#ACF3FD" fill-opacity="0.3"/>
<path d="M78.9579 142.156C78.8961 142.157 78.8355 142.138 78.7822 142.104C78.7292 142.07 78.6853 142.021 78.6549 141.962C78.6246 141.903 78.6089 141.836 78.6094 141.768L78.9147 103.856C78.9154 103.789 78.9317 103.724 78.962 103.666C78.9923 103.609 79.0355 103.56 79.0875 103.526L108.651 84.4011C108.704 84.3664 108.765 84.348 108.826 84.3477C108.888 84.3474 108.949 84.3652 109.002 84.3994C109.056 84.4336 109.1 84.4828 109.131 84.5421C109.161 84.6015 109.177 84.6687 109.176 84.737L108.872 122.643C108.871 122.709 108.855 122.774 108.825 122.831C108.795 122.889 108.752 122.937 108.701 122.971L79.1335 142.102C79.0804 142.137 79.0197 142.156 78.9579 142.156ZM79.6103 104.083L79.319 141.095L108.175 122.422L108.474 85.4087L79.6103 104.083Z" fill="#50E6FF"/>
<path d="M138.087 141.437L138.393 103.523L108.523 122.64V160.553L138.087 141.437Z" fill="#ACF3FD" fill-opacity="0.3"/>
<path d="M108.52 160.945C108.428 160.945 108.339 160.904 108.274 160.832C108.209 160.76 108.172 160.662 108.172 160.559V122.643C108.172 122.575 108.188 122.509 108.219 122.45C108.249 122.392 108.293 122.343 108.346 122.309L138.215 103.185C138.268 103.151 138.329 103.133 138.39 103.133C138.452 103.133 138.513 103.151 138.566 103.185C138.619 103.219 138.663 103.267 138.693 103.326C138.724 103.385 138.739 103.451 138.739 103.519L138.432 141.432C138.431 141.499 138.415 141.564 138.385 141.622C138.355 141.68 138.312 141.728 138.261 141.762L108.697 160.888C108.644 160.923 108.583 160.943 108.52 160.945ZM108.869 122.868V159.888L137.738 141.211L138.036 104.192L108.869 122.868Z" fill="#50E6FF"/>
<path d="M138.083 141.446L108.52 160.571L78.957 141.777L108.52 122.648L138.083 141.446Z" fill="#ACF3FD" fill-opacity="0.3"/>
<path d="M108.52 160.945C108.459 160.945 108.4 160.928 108.347 160.894L78.7824 142.105C78.7298 142.071 78.6861 142.022 78.6557 141.964C78.6254 141.905 78.6094 141.839 78.6094 141.772C78.6094 141.705 78.6254 141.638 78.6557 141.58C78.6861 141.522 78.7298 141.473 78.7824 141.439L108.347 122.314C108.4 122.28 108.461 122.262 108.522 122.262C108.583 122.262 108.644 122.28 108.697 122.314L138.26 141.102C138.313 141.136 138.356 141.185 138.387 141.243C138.417 141.302 138.433 141.368 138.433 141.435C138.433 141.503 138.417 141.569 138.387 141.627C138.356 141.686 138.313 141.735 138.26 141.769L108.697 160.894C108.643 160.928 108.582 160.945 108.52 160.945ZM79.6509 141.769L108.518 160.115L137.389 141.438L108.521 123.092L79.6509 141.769Z" fill="#50E6FF"/>
<path d="M138.374 103.519L108.504 122.641L79.2227 103.857L108.787 84.7383L138.374 103.519Z" fill="#ACF3FD" fill-opacity="0.3"/>
<path d="M108.501 123.03C108.44 123.03 108.38 123.011 108.327 122.976L79.0441 104.191C78.9915 104.157 78.9478 104.109 78.9174 104.05C78.8871 103.992 78.8711 103.926 78.8711 103.858C78.8711 103.791 78.8871 103.725 78.9174 103.666C78.9478 103.608 78.9915 103.559 79.0441 103.526L108.609 84.4002C108.662 84.3658 108.722 84.3477 108.784 84.3477C108.845 84.3477 108.906 84.3658 108.959 84.4002L138.544 103.187C138.597 103.22 138.642 103.269 138.672 103.327C138.703 103.385 138.72 103.452 138.72 103.519C138.72 103.587 138.703 103.654 138.673 103.712C138.642 103.771 138.598 103.82 138.546 103.854L108.677 122.979C108.624 123.013 108.563 123.031 108.501 123.03ZM79.9126 103.857L108.501 122.192L137.673 103.513L108.786 85.1783L79.9126 103.857Z" fill="#50E6FF"/>
<path d="M138.321 138.149C138.695 138.14 139.067 138.213 139.414 138.365C139.762 138.517 140.079 138.744 140.346 139.033C140.613 139.321 140.826 139.666 140.971 140.047C141.116 140.428 141.19 140.837 141.19 141.25C141.19 141.663 141.116 142.072 140.971 142.453C140.826 142.834 140.613 143.179 140.346 143.467C140.079 143.756 139.762 143.983 139.414 144.135C139.067 144.287 138.695 144.36 138.321 144.351C137.602 144.311 136.923 143.967 136.426 143.39C135.929 142.813 135.652 142.047 135.652 141.25C135.652 140.453 135.929 139.687 136.426 139.11C136.923 138.533 137.602 138.189 138.321 138.149Z" fill="white"/>
<path d="M138.419 142.602C138.181 142.602 137.948 142.524 137.75 142.378C137.552 142.232 137.397 142.025 137.306 141.782C137.215 141.538 137.191 141.271 137.237 141.013C137.284 140.755 137.398 140.518 137.567 140.332C137.735 140.146 137.949 140.019 138.183 139.968C138.416 139.916 138.658 139.943 138.878 140.044C139.098 140.145 139.286 140.315 139.418 140.534C139.55 140.753 139.621 141.01 139.62 141.273C139.619 141.625 139.492 141.962 139.267 142.211C139.042 142.46 138.737 142.6 138.419 142.602ZM138.419 144.426C138.983 144.426 139.534 144.241 140.003 143.895C140.472 143.548 140.838 143.056 141.054 142.48C141.27 141.904 141.326 141.27 141.216 140.658C141.106 140.047 140.834 139.485 140.435 139.044C140.037 138.604 139.528 138.303 138.975 138.182C138.422 138.06 137.848 138.122 137.327 138.361C136.806 138.6 136.36 139.004 136.047 139.522C135.734 140.041 135.566 140.65 135.566 141.273C135.581 142.104 135.886 142.897 136.418 143.485C136.95 144.072 137.667 144.41 138.419 144.426Z" fill="#50E6FF"/>
<path d="M152.798 149.948L152.724 179.26L129.645 164.532L129.72 135.223L152.798 149.948Z" fill="#005BA1"/>
<path d="M152.798 149.945L173.25 136.809L173.174 166.118L152.723 179.258L152.798 149.945Z" fill="#185A97"/>
<path d="M129.723 135.218L150.174 122.078L173.254 136.806L152.801 149.943L129.723 135.218Z" fill="#156AB3"/>
<path d="M196.017 176.14L216.471 163L216.397 192.313L195.941 205.449L196.017 176.14Z" fill="#185A97"/>
<path d="M196.013 176.138L195.939 205.448L172.859 190.723L172.935 161.41L196.013 176.138Z" fill="#005BA1"/>
<path d="M172.938 161.414L193.392 148.277L216.472 163.002L196.016 176.142L172.938 161.414Z" fill="#156AB3"/>
<path d="M109.587 75.7997L130.042 62.6602L129.968 91.9992L109.512 105.136L109.587 75.7997ZM152.802 101.993L173.258 88.853L173.184 118.194L152.728 131.328L152.802 101.993ZM196.017 128.185L216.469 115.047L216.393 144.383L195.942 157.521L196.017 128.185Z" fill="#2E76BC"/>
<path d="M109.583 75.8069L109.509 105.143L86.4297 90.4102L86.505 61.0742L109.583 75.8069ZM152.798 102L152.724 131.336L129.645 116.598L129.72 87.2624L152.798 102ZM196.013 128.193L195.939 157.528L172.86 142.791L172.935 113.455L196.013 128.193Z" fill="url(#paint0_linear_41504_66964)"/>
<path d="M86.5039 61.0731L106.96 47.9336L130.039 62.6616L109.583 75.8058L86.5039 61.0731ZM129.719 87.2659L150.175 74.131L173.254 88.8545L152.798 101.994L129.719 87.2659ZM172.934 113.459L193.387 100.319L216.467 115.047L196.013 128.187L172.934 113.459Z" fill="#32B0E7"/>
<path d="M225.525 147.425L195.962 166.547L166.398 147.759L195.962 128.645L225.525 147.425Z" fill="#84ECFD" fill-opacity="0.3"/>
<path d="M195.961 166.938C195.9 166.938 195.84 166.92 195.787 166.885L166.224 148.097C166.171 148.063 166.127 148.015 166.097 147.956C166.067 147.898 166.051 147.832 166.051 147.764C166.051 147.697 166.067 147.631 166.097 147.573C166.127 147.514 166.171 147.466 166.224 147.432L195.787 128.305C195.84 128.271 195.901 128.254 195.962 128.254C196.023 128.254 196.084 128.271 196.137 128.305L225.693 147.093C225.746 147.127 225.789 147.175 225.82 147.234C225.85 147.292 225.866 147.358 225.866 147.426C225.866 147.493 225.85 147.559 225.82 147.617C225.789 147.676 225.746 147.724 225.693 147.758L196.14 166.885C196.085 166.92 196.024 166.938 195.961 166.938ZM167.092 147.76L195.96 166.107L224.83 147.43L195.963 129.083L167.092 147.76Z" fill="#45CAF2"/>
<path d="M195.967 128.652L196.274 90.7383L166.709 109.854L166.402 147.766L195.967 128.652Z" fill="#84ECFD" fill-opacity="0.3"/>
<path d="M166.399 148.154C166.338 148.155 166.278 148.137 166.225 148.103C166.172 148.069 166.127 148.02 166.097 147.961C166.066 147.901 166.05 147.834 166.051 147.766L166.359 109.856C166.36 109.789 166.376 109.724 166.406 109.666C166.436 109.608 166.48 109.56 166.532 109.526L196.096 90.399C196.15 90.3652 196.21 90.3475 196.272 90.3477C196.333 90.3479 196.394 90.366 196.447 90.4002C196.5 90.4344 196.544 90.4835 196.574 90.5426C196.605 90.6016 196.621 90.6685 196.62 90.7365L196.312 128.639C196.312 128.706 196.295 128.771 196.265 128.829C196.235 128.887 196.192 128.935 196.14 128.969L166.575 148.102C166.522 148.136 166.461 148.154 166.399 148.154ZM167.054 110.081L166.753 147.094L195.617 128.422L195.918 91.4082L167.054 110.081Z" fill="#45CAF2"/>
<path d="M225.524 147.433L225.831 109.52L195.961 128.653V166.555L225.524 147.433Z" fill="#84ECFD" fill-opacity="0.3"/>
<path d="M195.958 166.943C195.897 166.943 195.837 166.925 195.785 166.89C195.732 166.857 195.687 166.809 195.656 166.75C195.625 166.692 195.609 166.625 195.609 166.557V128.643C195.61 128.575 195.626 128.508 195.656 128.45C195.687 128.391 195.731 128.342 195.784 128.308L225.655 109.184C225.708 109.15 225.769 109.133 225.83 109.133C225.891 109.133 225.952 109.151 226.005 109.185C226.058 109.22 226.102 109.269 226.132 109.328C226.163 109.387 226.178 109.454 226.178 109.522L225.87 147.435C225.869 147.502 225.852 147.567 225.822 147.624C225.792 147.682 225.749 147.73 225.697 147.763L196.136 166.89C196.082 166.925 196.02 166.943 195.958 166.943ZM196.306 128.866V165.886L225.174 147.209L225.475 110.191L196.306 128.866Z" fill="#45CAF2"/>
<path d="M225.813 109.517L195.943 128.652L166.668 109.864L196.233 90.7383L225.813 109.517Z" fill="#84ECFD" fill-opacity="0.3"/>
<path d="M195.94 129.029C195.878 129.029 195.817 129.011 195.764 128.976L166.489 110.192C166.437 110.158 166.393 110.109 166.363 110.051C166.332 109.992 166.316 109.926 166.316 109.859C166.316 109.791 166.332 109.725 166.363 109.667C166.393 109.608 166.437 109.56 166.489 109.526L196.054 90.399C196.107 90.3653 196.168 90.3477 196.229 90.3477C196.29 90.3477 196.351 90.3653 196.404 90.399L225.989 109.184C226.042 109.218 226.086 109.267 226.117 109.325C226.147 109.384 226.164 109.451 226.164 109.518C226.164 109.586 226.147 109.652 226.117 109.711C226.086 109.77 226.042 109.819 225.989 109.853L196.114 128.978C196.061 129.012 196.001 129.03 195.94 129.029ZM167.351 109.856L195.94 128.191L225.113 109.512L196.226 91.1771L167.351 109.856Z" fill="#45CAF2"/>
<path d="M108.472 119.418C109.205 119.436 109.902 119.771 110.415 120.35C110.928 120.93 111.215 121.708 111.215 122.519C111.215 123.329 110.928 124.108 110.415 124.687C109.902 125.267 109.205 125.601 108.472 125.619C107.752 125.58 107.073 125.236 106.576 124.659C106.079 124.081 105.802 123.315 105.802 122.519C105.802 121.722 106.079 120.956 106.576 120.379C107.073 119.801 107.752 119.457 108.472 119.418ZM108.543 157.253C109.276 157.271 109.974 157.605 110.486 158.185C110.999 158.764 111.286 159.543 111.286 160.353C111.286 161.164 110.999 161.942 110.486 162.522C109.974 163.101 109.276 163.436 108.543 163.454C107.823 163.414 107.144 163.07 106.647 162.493C106.151 161.916 105.874 161.15 105.874 160.353C105.874 159.557 106.151 158.791 106.647 158.213C107.144 157.636 107.823 157.292 108.543 157.253ZM79.4269 100.422C80.1601 100.44 80.8578 100.775 81.3706 101.354C81.8834 101.934 82.1705 102.712 82.1705 103.523C82.1705 104.333 81.8834 105.112 81.3706 105.691C80.8578 106.271 80.1601 106.605 79.4269 106.623C78.707 106.584 78.0285 106.24 77.5317 105.663C77.0349 105.085 76.7578 104.319 76.7578 103.523C76.7578 102.726 77.0349 101.96 77.5317 101.383C78.0285 100.806 78.707 100.462 79.4269 100.422ZM166.862 144.15C167.595 144.168 168.293 144.503 168.806 145.082C169.318 145.662 169.606 146.44 169.606 147.251C169.606 148.061 169.318 148.84 168.806 149.419C168.293 149.999 167.595 150.333 166.862 150.352C166.142 150.312 165.463 149.968 164.967 149.391C164.47 148.814 164.193 148.047 164.193 147.251C164.193 146.454 164.47 145.688 164.967 145.111C165.463 144.534 166.142 144.19 166.862 144.15ZM195.911 125.419C196.644 125.437 197.342 125.772 197.854 126.351C198.367 126.931 198.654 127.709 198.654 128.52C198.654 129.33 198.367 130.109 197.854 130.688C197.342 131.268 196.644 131.603 195.911 131.621C195.191 131.581 194.512 131.237 194.015 130.66C193.519 130.083 193.242 129.316 193.242 128.52C193.242 127.723 193.519 126.957 194.015 126.38C194.512 125.803 195.191 125.459 195.911 125.419ZM195.982 163.254C196.715 163.272 197.413 163.606 197.926 164.186C198.438 164.766 198.725 165.544 198.725 166.355C198.725 167.165 198.438 167.944 197.926 168.523C197.413 169.103 196.715 169.437 195.982 169.455C195.262 169.416 194.583 169.072 194.087 168.494C193.59 167.917 193.313 167.151 193.313 166.355C193.313 165.558 193.59 164.792 194.087 164.215C194.583 163.637 195.262 163.293 195.982 163.254ZM225.757 144.148C226.131 144.139 226.502 144.213 226.85 144.364C227.197 144.516 227.514 144.743 227.781 145.032C228.049 145.321 228.261 145.666 228.406 146.046C228.551 146.427 228.626 146.836 228.626 147.249C228.626 147.662 228.551 148.071 228.406 148.452C228.261 148.833 228.049 149.178 227.781 149.467C227.514 149.755 227.197 149.982 226.85 150.134C226.502 150.286 226.131 150.359 225.757 150.35C225.037 150.31 224.358 149.966 223.862 149.389C223.365 148.812 223.088 148.046 223.088 147.249C223.088 146.453 223.365 145.686 223.862 145.109C224.358 144.532 225.037 144.188 225.757 144.148ZM225.757 106.418C226.131 106.409 226.502 106.483 226.85 106.634C227.197 106.786 227.514 107.013 227.781 107.302C228.049 107.591 228.261 107.936 228.406 108.316C228.551 108.697 228.626 109.106 228.626 109.519C228.626 109.932 228.551 110.341 228.406 110.722C228.261 111.103 228.049 111.448 227.781 111.737C227.514 112.026 227.197 112.252 226.85 112.404C226.502 112.556 226.131 112.629 225.757 112.62C225.037 112.58 224.358 112.236 223.862 111.659C223.365 111.082 223.088 110.316 223.088 109.519C223.088 108.723 223.365 107.956 223.862 107.379C224.358 106.802 225.037 106.458 225.757 106.418ZM166.866 106.418C167.599 106.437 168.297 106.771 168.81 107.351C169.323 107.93 169.61 108.709 169.61 109.519C169.61 110.33 169.323 111.108 168.81 111.688C168.297 112.267 167.599 112.602 166.866 112.62C166.146 112.58 165.468 112.236 164.971 111.659C164.474 111.082 164.197 110.316 164.197 109.519C164.197 108.723 164.474 107.956 164.971 107.379C165.468 106.802 166.146 106.458 166.866 106.418Z" fill="white"/>
<path d="M108.57 123.876C108.332 123.876 108.099 123.798 107.901 123.652C107.703 123.506 107.549 123.299 107.458 123.056C107.366 122.813 107.342 122.546 107.389 122.287C107.435 122.029 107.549 121.792 107.718 121.606C107.886 121.42 108.1 121.293 108.333 121.242C108.567 121.191 108.809 121.217 109.029 121.317C109.249 121.418 109.437 121.588 109.569 121.807C109.701 122.026 109.772 122.283 109.772 122.546C109.771 122.898 109.644 123.235 109.419 123.484C109.194 123.733 108.889 123.874 108.57 123.876ZM108.57 125.7C109.134 125.7 109.686 125.515 110.155 125.168C110.625 124.822 110.99 124.329 111.206 123.753C111.422 123.177 111.479 122.542 111.369 121.931C111.259 121.319 110.987 120.757 110.588 120.316C110.189 119.875 109.68 119.574 109.127 119.453C108.573 119.331 107.999 119.393 107.478 119.632C106.957 119.871 106.511 120.275 106.197 120.794C105.884 121.312 105.717 121.922 105.717 122.546C105.732 123.377 106.038 124.169 106.57 124.756C107.102 125.343 107.818 125.679 108.57 125.695V125.7ZM108.57 161.632C108.332 161.632 108.099 161.554 107.901 161.408C107.703 161.262 107.549 161.055 107.457 160.812C107.366 160.569 107.342 160.301 107.389 160.043C107.435 159.785 107.55 159.548 107.718 159.362C107.886 159.176 108.101 159.049 108.334 158.998C108.568 158.947 108.81 158.973 109.03 159.074C109.25 159.175 109.437 159.345 109.57 159.564C109.702 159.783 109.772 160.041 109.772 160.304C109.768 160.654 109.641 160.989 109.416 161.236C109.191 161.483 108.887 161.622 108.57 161.624V161.632ZM108.57 163.456C109.135 163.456 109.686 163.271 110.156 162.924C110.625 162.578 110.991 162.085 111.207 161.509C111.423 160.932 111.479 160.298 111.369 159.686C111.259 159.074 110.987 158.512 110.587 158.071C110.188 157.63 109.68 157.33 109.126 157.209C108.572 157.087 107.998 157.15 107.477 157.389C106.956 157.628 106.51 158.032 106.197 158.551C105.883 159.07 105.716 159.68 105.717 160.304C105.732 161.134 106.038 161.926 106.57 162.512C107.102 163.099 107.819 163.436 108.57 163.451V163.456ZM79.5241 104.875C79.2861 104.875 79.0534 104.797 78.8555 104.651C78.6577 104.505 78.5035 104.297 78.4125 104.054C78.3214 103.811 78.2977 103.543 78.3442 103.285C78.3908 103.027 78.5055 102.791 78.6739 102.605C78.8423 102.419 79.0568 102.292 79.2902 102.241C79.5237 102.19 79.7656 102.216 79.9854 102.317C80.2052 102.418 80.393 102.589 80.525 102.808C80.6571 103.027 80.7274 103.284 80.7271 103.547C80.7256 103.899 80.5984 104.236 80.373 104.485C80.1477 104.734 79.8425 104.874 79.5241 104.875ZM79.5241 106.699C80.0882 106.699 80.6396 106.514 81.1086 106.168C81.5777 105.822 81.9433 105.329 82.1591 104.753C82.375 104.177 82.4315 103.543 82.3214 102.932C82.2114 102.32 81.9397 101.759 81.5409 101.318C81.142 100.877 80.6338 100.577 80.0805 100.455C79.5272 100.333 78.9537 100.396 78.4326 100.634C77.9114 100.873 77.466 101.277 77.1526 101.796C76.8391 102.314 76.6719 102.923 76.6719 103.547C76.6865 104.378 76.9917 105.17 77.5234 105.758C78.0552 106.346 78.7722 106.683 79.5241 106.699ZM166.963 148.608C166.725 148.608 166.493 148.53 166.295 148.384C166.097 148.237 165.943 148.03 165.852 147.787C165.761 147.544 165.737 147.276 165.783 147.018C165.83 146.76 165.945 146.523 166.113 146.337C166.281 146.151 166.496 146.025 166.729 145.974C166.963 145.923 167.205 145.949 167.425 146.05C167.644 146.151 167.832 146.322 167.964 146.541C168.096 146.759 168.167 147.017 168.166 147.28C168.164 147.631 168.036 147.967 167.811 148.215C167.586 148.463 167.281 148.602 166.963 148.603V148.608ZM166.963 150.432C167.527 150.432 168.079 150.247 168.548 149.901C169.017 149.554 169.382 149.062 169.598 148.486C169.814 147.91 169.871 147.276 169.761 146.665C169.651 146.053 169.379 145.491 168.98 145.051C168.581 144.61 168.073 144.309 167.52 144.188C166.966 144.066 166.393 144.129 165.872 144.367C165.351 144.606 164.905 145.01 164.592 145.528C164.278 146.047 164.111 146.656 164.111 147.28C164.127 148.11 164.432 148.901 164.964 149.488C165.496 150.075 166.212 150.411 166.963 150.427V150.432ZM196.009 129.874C195.771 129.874 195.539 129.796 195.34 129.65C195.142 129.505 194.988 129.297 194.897 129.054C194.806 128.811 194.781 128.544 194.828 128.286C194.874 128.028 194.988 127.791 195.157 127.604C195.325 127.418 195.539 127.292 195.773 127.24C196.006 127.189 196.248 127.215 196.468 127.315C196.688 127.416 196.876 127.587 197.008 127.805C197.14 128.024 197.211 128.281 197.211 128.544C197.209 128.895 197.081 129.231 196.856 129.479C196.631 129.727 196.327 129.868 196.009 129.869V129.874ZM196.009 131.698C196.574 131.698 197.125 131.513 197.595 131.166C198.064 130.82 198.43 130.327 198.646 129.751C198.862 129.175 198.918 128.541 198.808 127.929C198.698 127.317 198.426 126.755 198.027 126.314C197.628 125.873 197.12 125.572 196.566 125.451C196.012 125.329 195.439 125.392 194.917 125.63C194.396 125.869 193.95 126.273 193.637 126.792C193.323 127.311 193.156 127.92 193.156 128.544C193.171 129.375 193.477 130.167 194.009 130.754C194.541 131.341 195.258 131.678 196.009 131.693V131.698ZM196.009 167.63C195.771 167.63 195.538 167.552 195.34 167.406C195.142 167.26 194.988 167.053 194.897 166.81C194.805 166.567 194.781 166.299 194.828 166.041C194.874 165.783 194.989 165.546 195.157 165.36C195.326 165.174 195.54 165.047 195.774 164.996C196.007 164.945 196.249 164.971 196.469 165.072C196.689 165.173 196.877 165.344 197.009 165.562C197.141 165.781 197.211 166.039 197.211 166.302C197.208 166.653 197.081 166.988 196.856 167.236C196.631 167.484 196.327 167.624 196.009 167.625V167.63ZM196.009 169.454C196.574 169.454 197.125 169.269 197.595 168.923C198.064 168.576 198.43 168.083 198.646 167.507C198.862 166.93 198.918 166.296 198.808 165.684C198.698 165.073 198.426 164.511 198.027 164.07C197.627 163.629 197.119 163.328 196.565 163.207C196.011 163.085 195.438 163.148 194.916 163.387C194.395 163.626 193.949 164.03 193.636 164.549C193.323 165.068 193.155 165.678 193.156 166.302C193.171 167.132 193.477 167.924 194.009 168.511C194.541 169.097 195.258 169.434 196.009 169.45V169.454ZM225.855 148.608C225.617 148.608 225.385 148.53 225.187 148.384C224.988 148.238 224.834 148.031 224.743 147.788C224.652 147.545 224.628 147.277 224.674 147.019C224.72 146.761 224.835 146.524 225.003 146.338C225.172 146.152 225.386 146.025 225.62 145.974C225.853 145.923 226.095 145.949 226.315 146.05C226.535 146.151 226.723 146.321 226.855 146.54C226.987 146.759 227.057 147.017 227.057 147.28C227.055 147.631 226.927 147.966 226.702 148.214C226.477 148.462 226.173 148.602 225.855 148.603V148.608ZM225.855 150.432C226.42 150.432 226.971 150.247 227.44 149.901C227.909 149.554 228.275 149.062 228.491 148.486C228.706 147.91 228.763 147.276 228.653 146.665C228.543 146.053 228.271 145.491 227.872 145.051C227.473 144.61 226.965 144.309 226.412 144.188C225.859 144.066 225.285 144.129 224.764 144.367C224.243 144.606 223.797 145.01 223.484 145.528C223.171 146.047 223.003 146.656 223.003 147.28C223.019 148.11 223.325 148.901 223.856 149.488C224.388 150.075 225.104 150.411 225.855 150.427V150.432ZM225.855 110.878C225.617 110.878 225.385 110.8 225.187 110.654C224.988 110.508 224.834 110.301 224.743 110.058C224.652 109.815 224.628 109.547 224.674 109.289C224.72 109.031 224.835 108.794 225.003 108.608C225.172 108.422 225.386 108.295 225.62 108.244C225.853 108.193 226.095 108.219 226.315 108.32C226.535 108.421 226.723 108.591 226.855 108.81C226.987 109.029 227.057 109.287 227.057 109.55C227.055 109.901 226.927 110.236 226.702 110.484C226.477 110.732 226.173 110.872 225.855 110.873V110.878ZM225.855 112.702C226.42 112.702 226.972 112.518 227.441 112.171C227.911 111.825 228.277 111.332 228.493 110.756C228.709 110.179 228.766 109.545 228.656 108.933C228.546 108.321 228.274 107.759 227.875 107.318C227.475 106.877 226.967 106.576 226.413 106.455C225.86 106.333 225.286 106.396 224.764 106.635C224.243 106.873 223.797 107.278 223.484 107.797C223.17 108.316 223.003 108.926 223.003 109.55C223.019 110.38 223.325 111.171 223.856 111.758C224.388 112.345 225.104 112.681 225.855 112.697V112.702ZM166.963 110.878C166.725 110.878 166.493 110.8 166.295 110.654C166.097 110.507 165.943 110.3 165.852 110.057C165.761 109.814 165.737 109.546 165.783 109.288C165.83 109.03 165.945 108.793 166.113 108.607C166.281 108.421 166.496 108.295 166.729 108.244C166.963 108.193 167.205 108.219 167.425 108.32C167.644 108.421 167.832 108.592 167.964 108.811C168.096 109.029 168.167 109.287 168.166 109.55C168.164 109.901 168.036 110.237 167.811 110.485C167.586 110.732 167.281 110.872 166.963 110.873V110.878ZM166.963 112.702C167.528 112.702 168.08 112.518 168.549 112.171C169.019 111.825 169.385 111.332 169.601 110.756C169.817 110.179 169.874 109.545 169.763 108.933C169.653 108.321 169.382 107.759 168.982 107.318C168.583 106.877 168.075 106.576 167.521 106.455C166.967 106.333 166.393 106.396 165.872 106.635C165.35 106.873 164.905 107.278 164.591 107.797C164.278 108.316 164.111 108.926 164.111 109.55C164.127 110.38 164.432 111.171 164.964 111.758C165.496 112.345 166.212 112.681 166.963 112.697V112.702Z" fill="#50E6FF"/>
<path d="M109.587 27.8646L130.042 14.7266L129.964 44.0394L109.512 57.1789L109.587 27.8646ZM152.802 54.0574L173.254 40.9209L173.18 70.2307L152.727 83.3717L152.802 54.0574ZM196.017 80.2502L216.473 67.1122L216.399 96.425L195.943 109.56L196.017 80.2502Z" fill="#50E6FF"/>
<path d="M109.583 27.8687L109.509 57.1831L86.4297 42.455L86.505 13.1406L109.583 27.8687ZM152.798 54.0615L152.72 83.3759L129.645 68.6478L129.723 39.3381L152.798 54.0615ZM196.013 80.2543L195.939 109.564L172.86 94.8406L172.935 65.5262L196.013 80.2543Z" fill="url(#paint1_linear_41504_66964)"/>
<path d="M86.5039 13.1349L106.956 0L130.038 14.725L109.582 27.863L86.5039 13.1349ZM129.719 39.3277L150.173 26.1928L173.253 40.9209L152.801 54.0558L129.719 39.3277ZM172.934 65.5205L193.388 52.3856L216.468 67.1106L196.012 80.2486L172.934 65.5205Z" fill="#D5F9FD"/>
<path opacity="0.5" d="M88.2489 62.3682L47.8221 36.1754L47.9615 35.5976L46.8183 35.2617L46.5103 36.5436L46.3946 36.764L46.4489 36.7994L32.1866 96.1276L32.8181 96.311L32.4097 96.5375L3.83203 119.649L4.52905 120.703L33.0216 97.6484L58.9213 83.3363L78.9006 142.743L80.0074 142.29L59.9627 82.6892L88.2489 62.3682ZM33.4552 95.9628L47.5126 37.4896L86.0018 62.4267L58.9576 81.8603L33.4552 95.9628Z" fill="#50E6FF"/>
<path d="M90.6108 62.4027C90.6108 61.6408 90.4064 60.8961 90.0234 60.2627C89.6405 59.6292 89.0962 59.1355 88.4594 58.844C87.8226 58.5525 87.1218 58.4762 86.4458 58.6248C85.7698 58.7734 85.1488 59.1403 84.6614 59.679C84.174 60.2177 83.8421 60.904 83.7076 61.6512C83.5731 62.3984 83.6421 63.1729 83.9059 63.8767C84.1697 64.5806 84.6164 65.1821 85.1895 65.6054C85.7626 66.0286 86.4364 66.2546 87.1257 66.2546C88.0455 66.2387 88.9236 65.8277 89.5741 65.1088C90.2246 64.3898 90.5964 63.4193 90.6108 62.4027Z" fill="#156AB3"/>
<path d="M50.185 36.2074C50.185 35.4455 49.9806 34.7008 49.5977 34.0674C49.2147 33.4339 48.6704 32.9402 48.0336 32.6487C47.3968 32.3571 46.6961 32.2809 46.02 32.4295C45.344 32.5781 44.723 32.945 44.2356 33.4837C43.7482 34.0224 43.4163 34.7087 43.2818 35.4559C43.1473 36.2031 43.2164 36.9776 43.4801 37.6814C43.7439 38.3852 44.1906 38.9868 44.7637 39.4101C45.3368 39.8333 46.0106 40.0592 46.6999 40.0592C47.1588 40.0642 47.614 39.9679 48.0389 39.7761C48.4637 39.5843 48.8497 39.3007 49.1742 38.9421C49.4987 38.5834 49.7553 38.1568 49.9288 37.6872C50.1024 37.2177 50.1895 36.7146 50.185 36.2074ZM82.2477 140.979C82.2477 140.217 82.0433 139.472 81.6604 138.839C81.2774 138.205 80.7331 137.711 80.0963 137.42C79.4595 137.128 78.7588 137.052 78.0827 137.201C77.4067 137.349 76.7857 137.716 76.2983 138.255C75.8109 138.794 75.479 139.48 75.3445 140.227C75.21 140.974 75.2791 141.749 75.5428 142.453C75.8066 143.156 76.2533 143.758 76.8264 144.181C77.3995 144.605 78.0733 144.83 78.7626 144.83C79.2247 144.849 79.6852 144.761 80.1154 144.574C80.5457 144.387 80.9364 144.104 81.2634 143.743C81.5903 143.381 81.8464 142.949 82.0158 142.474C82.1851 141.998 82.2641 141.489 82.2477 140.979ZM62.8707 82.43C62.8843 81.6531 62.6893 80.8892 62.3101 80.2349C61.931 79.5806 61.3849 79.0652 60.7407 78.7539C60.0966 78.4426 59.3834 78.3494 58.6914 78.486C57.9993 78.6227 57.3595 78.983 56.8527 79.5216C56.346 80.0601 55.9951 80.7527 55.8444 81.5116C55.6937 82.2706 55.75 83.0618 56.0062 83.7854C56.2624 84.509 56.7069 85.1324 57.2837 85.5767C57.8604 86.0211 58.5433 86.2665 59.2462 86.2818C59.7166 86.3079 60.1869 86.2274 60.6281 86.045C61.0693 85.8627 61.4721 85.5825 61.8116 85.2216C62.1511 84.8608 62.4203 84.427 62.6024 83.9469C62.7845 83.4668 62.8758 82.9505 62.8707 82.43Z" fill="#2195DC"/>
<path opacity="0.5" d="M295.271 4.29906L294.41 3.40234L271.63 30.1082L214.091 18.6157V18.6311C213.971 18.6 213.844 18.6141 213.732 18.6712L173.305 40.2418L173.82 41.4158L213.457 20.2674L216.139 66.2266L215.781 66.4592L216.38 67.584L217.304 66.9846H217.367V66.9492L272.144 31.3809L272.275 31.2669L295.271 4.29906ZM217.277 65.4808L214.628 20.044L270.169 31.1374L217.277 65.4808Z" fill="#50E6FF"/>
<path d="M7.10955 120.949C7.06407 119.917 6.66341 118.944 5.9896 118.227C5.31579 117.511 4.4198 117.107 3.48508 117.097C2.56078 117.097 1.67433 117.503 1.02075 118.225C0.367174 118.948 0 119.928 0 120.949C0 121.971 0.367174 122.95 1.02075 123.673C1.67433 124.395 2.56078 124.801 3.48508 124.801C4.42664 124.817 5.33574 124.421 6.01453 123.699C6.69332 122.978 7.08687 121.99 7.10955 120.949ZM296.928 3.85188C296.928 3.09005 296.724 2.34533 296.341 1.71189C295.958 1.07845 295.414 0.58475 294.777 0.29321C294.14 0.00167004 293.44 -0.0746116 292.763 0.0740142C292.087 0.22264 291.466 0.589497 290.979 1.12819C290.492 1.66689 290.16 2.35323 290.025 3.10042C289.891 3.84761 289.96 4.62209 290.224 5.32593C290.487 6.02977 290.934 6.63136 291.507 7.05461C292.08 7.47786 292.754 7.70377 293.443 7.70377C294.363 7.68788 295.241 7.27696 295.892 6.55801C296.542 5.83905 296.914 4.86851 296.928 3.85188Z" fill="#50E6FF"/>
<path d="M36.2436 96.2958C36.2436 95.534 36.0392 94.7893 35.6562 94.1558C35.2733 93.5224 34.729 93.0287 34.0922 92.7371C33.4554 92.4456 32.7546 92.3693 32.0786 92.5179C31.4026 92.6666 30.7816 93.0334 30.2942 93.5721C29.8068 94.1108 29.4749 94.7971 29.3404 95.5443C29.2059 96.2915 29.2749 97.066 29.5387 97.7699C29.8025 98.4737 30.2492 99.0753 30.8223 99.4985C31.3954 99.9218 32.0692 100.148 32.7585 100.148C33.2174 100.153 33.6726 100.056 34.0975 99.8645C34.5223 99.6727 34.9083 99.3892 35.2328 99.0305C35.5573 98.6719 35.8139 98.2452 35.9874 97.7757C36.161 97.3061 36.2481 96.803 36.2436 96.2958ZM217.607 19.2581C217.561 18.2262 217.161 17.2525 216.487 16.5364C215.813 15.8204 214.917 15.416 213.982 15.4062C213.058 15.4062 212.172 15.8121 211.518 16.5344C210.865 17.2568 210.497 18.2366 210.497 19.2581C210.497 20.2797 210.865 21.2595 211.518 21.9818C212.172 22.7042 213.058 23.11 213.982 23.11C214.924 23.1258 215.833 22.7299 216.512 22.0085C217.191 21.2871 217.584 20.2986 217.607 19.2581ZM274.623 30.0434C274.623 29.2816 274.418 28.5369 274.035 27.9034C273.652 27.27 273.108 26.7763 272.471 26.4847C271.835 26.1932 271.134 26.1169 270.458 26.2655C269.782 26.4142 269.161 26.781 268.673 27.3197C268.186 27.8584 267.854 28.5448 267.72 29.2919C267.585 30.0391 267.654 30.8136 267.918 31.5175C268.182 32.2213 268.628 32.8229 269.201 33.2461C269.775 33.6694 270.448 33.8953 271.138 33.8953C271.597 33.9002 272.052 33.804 272.477 33.6121C272.902 33.4203 273.287 33.1368 273.612 32.7781C273.937 32.4194 274.193 31.9929 274.367 31.5233C274.54 31.0537 274.627 30.5506 274.623 30.0434Z" fill="#32B0E7"/>
<path d="M177.04 40.8363C177.04 40.0744 176.836 39.3297 176.453 38.6963C176.07 38.0628 175.526 37.5691 174.889 37.2776C174.252 36.986 173.552 36.9098 172.875 37.0584C172.199 37.207 171.578 37.5739 171.091 38.1126C170.604 38.6513 170.272 39.3376 170.137 40.0848C170.003 40.832 170.072 41.6065 170.336 42.3103C170.599 43.0141 171.046 43.6157 171.619 44.039C172.192 44.4622 172.866 44.6881 173.555 44.6881C174.017 44.7062 174.478 44.619 174.908 44.4318C175.338 44.2446 175.729 43.9615 176.056 43.6002C176.383 43.2388 176.639 42.807 176.809 42.3314C176.978 41.8559 177.057 41.347 177.04 40.8363Z" fill="#32B0E7"/>
<path d="M220.394 67.0247C220.408 66.2479 220.213 65.484 219.833 64.8297C219.454 64.1753 218.908 63.6599 218.264 63.3486C217.62 63.0373 216.907 62.9441 216.215 63.0808C215.523 63.2174 214.883 63.5778 214.376 64.1164C213.869 64.6549 213.518 65.3474 213.368 66.1064C213.217 66.8653 213.273 67.6566 213.53 68.3802C213.786 69.1038 214.23 69.7271 214.807 70.1715C215.384 70.6159 216.067 70.8612 216.77 70.8766C217.24 70.9027 217.71 70.8221 218.151 70.6398C218.593 70.4575 218.995 70.1773 219.335 69.8164C219.675 69.4556 219.944 69.0218 220.126 68.5416C220.308 68.0615 220.399 67.5453 220.394 67.0247Z" fill="#2195DC"/>
<defs>
<linearGradient id="paint0_linear_41504_66964" x1="130.233" y1="193.376" x2="150.949" y2="63.6217" gradientUnits="userSpaceOnUse">
<stop stop-color="#74CFEB"/>
<stop offset="0.953" stop-color="#2E76BC"/>
</linearGradient>
<linearGradient id="paint1_linear_41504_66964" x1="167.126" y1="124.096" x2="106.163" y2="3.22575" gradientUnits="userSpaceOnUse">
<stop stop-color="#ACF3FD"/>
<stop offset="0.8" stop-color="#84ECFD"/>
</linearGradient>
</defs>
</svg>
