<svg width="28" height="28" viewBox="0 0 28 28" fill="none" xmlns="http://www.w3.org/2000/svg">
<path d="M10.9805 14.4697C10.9805 15.0557 10.9268 15.5749 10.8193 16.0273C10.7152 16.4798 10.5622 16.8623 10.3604 17.1748C10.1618 17.484 9.91602 17.7201 9.62305 17.8828C9.33333 18.0423 9.00293 18.1221 8.63184 18.1221C8.28027 18.1221 7.96615 18.0456 7.68945 17.8926C7.41602 17.7363 7.1849 17.5101 6.99609 17.2139C6.80729 16.9176 6.66406 16.5547 6.56641 16.125C6.46875 15.6921 6.41992 15.1973 6.41992 14.6406C6.41992 14.0286 6.47038 13.4883 6.57129 13.0195C6.67546 12.5508 6.82682 12.1585 7.02539 11.8428C7.22396 11.5238 7.46973 11.2845 7.7627 11.125C8.05892 10.9622 8.39746 10.8809 8.77832 10.8809C10.2464 10.8809 10.9805 12.0771 10.9805 14.4697ZM10.1602 14.5479C10.1602 12.5557 9.68652 11.5596 8.73926 11.5596C7.73991 11.5596 7.24023 12.5736 7.24023 14.6016C7.24023 16.4928 7.73014 17.4385 8.70996 17.4385C9.67676 17.4385 10.1602 16.4749 10.1602 14.5479ZM12.4795 18.1074C12.3298 18.1074 12.2012 18.0537 12.0938 17.9463C11.9896 17.8389 11.9375 17.7103 11.9375 17.5605C11.9375 17.4108 11.9896 17.2822 12.0938 17.1748C12.2012 17.0641 12.3298 17.0088 12.4795 17.0088C12.6325 17.0088 12.7627 17.0641 12.8701 17.1748C12.9775 17.2822 13.0312 17.4108 13.0312 17.5605C13.0312 17.7103 12.9775 17.8389 12.8701 17.9463C12.7627 18.0537 12.6325 18.1074 12.4795 18.1074ZM18.5391 14.4697C18.5391 15.0557 18.4854 15.5749 18.3779 16.0273C18.2738 16.4798 18.1208 16.8623 17.9189 17.1748C17.7204 17.484 17.4746 17.7201 17.1816 17.8828C16.8919 18.0423 16.5615 18.1221 16.1904 18.1221C15.8389 18.1221 15.5247 18.0456 15.248 17.8926C14.9746 17.7363 14.7435 17.5101 14.5547 17.2139C14.3659 16.9176 14.2227 16.5547 14.125 16.125C14.0273 15.6921 13.9785 15.1973 13.9785 14.6406C13.9785 14.0286 14.029 13.4883 14.1299 13.0195C14.234 12.5508 14.3854 12.1585 14.584 11.8428C14.7826 11.5238 15.0283 11.2845 15.3213 11.125C15.6175 10.9622 15.9561 10.8809 16.3369 10.8809C17.805 10.8809 18.5391 12.0771 18.5391 14.4697ZM17.7188 14.5479C17.7188 12.5557 17.2451 11.5596 16.2979 11.5596C15.2985 11.5596 14.7988 12.5736 14.7988 14.6016C14.7988 16.4928 15.2887 17.4385 16.2686 17.4385C17.2354 17.4385 17.7188 16.4749 17.7188 14.5479ZM22.2305 11.3008C22.0742 11.2129 21.8968 11.1689 21.6982 11.1689C21.1383 11.1689 20.8584 11.5221 20.8584 12.2285V13H22.0303V13.6836H20.8584V18H20.0625V13.6836H19.208V13H20.0625V12.1895C20.0625 11.6654 20.2139 11.252 20.5166 10.9492C20.8193 10.6432 21.1969 10.4902 21.6494 10.4902C21.8936 10.4902 22.0872 10.5195 22.2305 10.5781V11.3008Z" fill="black"/>
<path d="M10.8193 16.0273L10.7707 16.0158L10.7706 16.0161L10.8193 16.0273ZM10.3604 17.1748L10.3183 17.1477L10.3183 17.1478L10.3604 17.1748ZM9.62305 17.8828L9.64716 17.9266L9.64733 17.9265L9.62305 17.8828ZM7.68945 17.8926L7.66464 17.936L7.66526 17.9363L7.68945 17.8926ZM6.56641 16.125L6.51763 16.136L6.51765 16.1361L6.56641 16.125ZM6.57129 13.0195L6.52248 13.0087L6.52241 13.009L6.57129 13.0195ZM7.02539 11.8428L7.06772 11.8694L7.06784 11.8692L7.02539 11.8428ZM7.7627 11.125L7.7866 11.1689L7.78677 11.1688L7.7627 11.125ZM10.9305 14.4697C10.9305 15.0527 10.877 15.5679 10.7707 16.0158L10.868 16.0389C10.9765 15.5818 11.0305 15.0586 11.0305 14.4697H10.9305ZM10.7706 16.0161C10.6674 16.4643 10.5164 16.8411 10.3183 17.1477L10.4024 17.2019C10.608 16.8835 10.7629 16.4953 10.8681 16.0386L10.7706 16.0161ZM10.3183 17.1478C10.1237 17.4508 9.88384 17.6807 9.59876 17.8391L9.64733 17.9265C9.9482 17.7594 10.1998 17.5173 10.4024 17.2018L10.3183 17.1478ZM9.59893 17.839C9.31747 17.994 8.99554 18.0721 8.63184 18.0721V18.1721C9.01031 18.1721 9.3492 18.0907 9.64716 17.9266L9.59893 17.839ZM8.63184 18.0721C8.28777 18.0721 7.98213 17.9973 7.71365 17.8488L7.66526 17.9363C7.95016 18.0939 8.27278 18.1721 8.63184 18.1721V18.0721ZM7.71426 17.8492C7.44865 17.6974 7.22321 17.4772 7.03826 17.187L6.95393 17.2407C7.14658 17.543 7.38339 17.7753 7.66465 17.936L7.71426 17.8492ZM7.03826 17.187C6.85322 16.8967 6.71186 16.5394 6.61516 16.1139L6.51765 16.1361C6.61627 16.57 6.76137 16.9386 6.95393 17.2407L7.03826 17.187ZM6.61518 16.114C6.51851 15.6854 6.46992 15.1945 6.46992 14.6406H6.36992C6.36992 15.2001 6.41899 15.6987 6.51763 16.136L6.61518 16.114ZM6.46992 14.6406C6.46992 14.0313 6.52017 13.4946 6.62017 13.0301L6.52241 13.009C6.42058 13.482 6.36992 14.026 6.36992 14.6406H6.46992ZM6.6201 13.0304C6.72336 12.5657 6.87293 12.1791 7.06772 11.8694L6.98306 11.8162C6.78071 12.1379 6.62755 12.5359 6.52248 13.0087L6.6201 13.0304ZM7.06784 11.8692C7.26243 11.5566 7.50214 11.3238 7.7866 11.1689L7.73879 11.0811C7.43731 11.2452 7.18549 11.491 6.98294 11.8164L7.06784 11.8692ZM7.78677 11.1688C8.07472 11.0106 8.40479 10.9309 8.77832 10.9309V10.8309C8.39013 10.8309 8.04312 10.9139 7.73862 11.0812L7.78677 11.1688ZM8.77832 10.9309C9.49596 10.9309 10.0299 11.2217 10.3873 11.8042C10.7472 12.3907 10.9305 13.2769 10.9305 14.4697H11.0305C11.0305 13.2699 10.8467 12.3617 10.4725 11.7519C10.0959 11.1382 9.52878 10.8309 8.77832 10.8309V10.9309ZM10.2102 14.5479C10.2102 13.5494 10.0917 12.7933 9.85009 12.2852C9.72896 12.0304 9.57596 11.836 9.3896 11.7054C9.20281 11.5744 8.98536 11.5096 8.73926 11.5096V11.6096C8.96679 11.6096 9.16377 11.6692 9.3322 11.7873C9.50107 11.9057 9.64409 12.0848 9.75978 12.3281C9.99178 12.816 10.1102 13.5541 10.1102 14.5479H10.2102ZM8.73926 11.5096C8.48052 11.5096 8.25193 11.5754 8.05542 11.7083C7.85926 11.841 7.69795 12.0386 7.57014 12.298C7.3152 12.8153 7.19023 13.5851 7.19023 14.6016H7.29023C7.29023 13.5901 7.41511 12.8388 7.65984 12.3422C7.78186 12.0945 7.93285 11.9119 8.11145 11.7911C8.2897 11.6705 8.49832 11.6096 8.73926 11.6096V11.5096ZM7.19023 14.6016C7.19023 15.5499 7.31279 16.2688 7.56327 16.7522C7.68889 16.9947 7.84739 17.1794 8.0399 17.3032C8.23264 17.4272 8.45661 17.4885 8.70996 17.4885V17.3885C8.4734 17.3885 8.2687 17.3315 8.09401 17.2191C7.91909 17.1066 7.7714 16.9366 7.65206 16.7062C7.41263 16.2441 7.29023 15.5445 7.29023 14.6016H7.19023ZM8.70996 17.4885C8.96037 17.4885 9.18172 17.4259 9.37209 17.2995C9.56215 17.1732 9.71847 16.9851 9.8423 16.7382C10.0893 16.246 10.2102 15.514 10.2102 14.5479H10.1102C10.1102 15.5088 9.98936 16.2221 9.75292 16.6934C9.63505 16.9283 9.48924 17.1016 9.31675 17.2162C9.14457 17.3306 8.94295 17.3885 8.70996 17.3885V17.4885ZM12.0938 17.9463L12.0579 17.9811L12.0584 17.9816L12.0938 17.9463ZM12.0938 17.1748L12.0579 17.14L12.0579 17.14L12.0938 17.1748ZM12.8701 17.1748L12.8342 17.2096L12.8348 17.2102L12.8701 17.1748ZM12.4795 18.0574C12.3432 18.0574 12.2273 18.0091 12.1291 17.9109L12.0584 17.9816C12.175 18.0983 12.3163 18.1574 12.4795 18.1574V18.0574ZM12.1296 17.9115C12.0345 17.8134 11.9875 17.6973 11.9875 17.5605H11.8875C11.8875 17.7233 11.9446 17.8643 12.0579 17.9811L12.1296 17.9115ZM11.9875 17.5605C11.9875 17.4238 12.0345 17.3077 12.1296 17.2096L12.0579 17.14C11.9446 17.2568 11.8875 17.3978 11.8875 17.5605H11.9875ZM12.1296 17.2096C12.228 17.1083 12.3437 17.0588 12.4795 17.0588V16.9588C12.3158 16.9588 12.1744 17.0199 12.0579 17.14L12.1296 17.2096ZM12.4795 17.0588C12.6188 17.0588 12.7361 17.1086 12.8342 17.2096L12.906 17.14C12.7892 17.0197 12.6461 16.9588 12.4795 16.9588V17.0588ZM12.8348 17.2102C12.933 17.3084 12.9812 17.4243 12.9812 17.5605H13.0813C13.0813 17.3973 13.0221 17.2561 12.9055 17.1394L12.8348 17.2102ZM12.9812 17.5605C12.9812 17.6968 12.933 17.8127 12.8348 17.9109L12.9055 17.9816C13.0221 17.865 13.0813 17.7238 13.0813 17.5605H12.9812ZM12.8348 17.9109C12.7368 18.0089 12.6193 18.0574 12.4795 18.0574V18.1574C12.6456 18.1574 12.7886 18.0985 12.9055 17.9816L12.8348 17.9109ZM18.3779 16.0273L18.3293 16.0158L18.3292 16.0161L18.3779 16.0273ZM17.9189 17.1748L17.8769 17.1477L17.8769 17.1478L17.9189 17.1748ZM17.1816 17.8828L17.2058 17.9266L17.2059 17.9265L17.1816 17.8828ZM15.248 17.8926L15.2232 17.936L15.2239 17.9363L15.248 17.8926ZM14.125 16.125L14.0762 16.136L14.0762 16.1361L14.125 16.125ZM14.1299 13.0195L14.0811 13.0087L14.081 13.009L14.1299 13.0195ZM14.584 11.8428L14.6263 11.8694L14.6264 11.8692L14.584 11.8428ZM15.3213 11.125L15.3452 11.1689L15.3454 11.1688L15.3213 11.125ZM18.4891 14.4697C18.4891 15.0527 18.4356 15.5679 18.3293 16.0158L18.4266 16.0389C18.5351 15.5818 18.5891 15.0586 18.5891 14.4697H18.4891ZM18.3292 16.0161C18.226 16.4643 18.0749 16.8411 17.8769 17.1477L17.9609 17.2019C18.1666 16.8835 18.3215 16.4953 18.4267 16.0386L18.3292 16.0161ZM17.8769 17.1478C17.6823 17.4508 17.4424 17.6807 17.1574 17.8391L17.2059 17.9265C17.5068 17.7594 17.7584 17.5173 17.961 17.2018L17.8769 17.1478ZM17.1575 17.839C16.8761 17.994 16.5541 18.0721 16.1904 18.0721V18.1721C16.5689 18.1721 16.9078 18.0907 17.2058 17.9266L17.1575 17.839ZM16.1904 18.0721C15.8464 18.0721 15.5407 17.9973 15.2722 17.8488L15.2239 17.9363C15.5088 18.0939 15.8314 18.1721 16.1904 18.1721V18.0721ZM15.2729 17.8492C15.0072 17.6974 14.7818 17.4772 14.5969 17.187L14.5125 17.2407C14.7052 17.543 14.942 17.7753 15.2232 17.936L15.2729 17.8492ZM14.5969 17.187C14.4118 16.8967 14.2704 16.5394 14.1738 16.1139L14.0762 16.1361C14.1749 16.57 14.32 16.9386 14.5125 17.2407L14.5969 17.187ZM14.1738 16.114C14.0771 15.6854 14.0285 15.1945 14.0285 14.6406H13.9285C13.9285 15.2001 13.9776 15.6987 14.0762 16.136L14.1738 16.114ZM14.0285 14.6406C14.0285 14.0313 14.0788 13.4946 14.1788 13.0301L14.081 13.009C13.9792 13.482 13.9285 14.026 13.9285 14.6406H14.0285ZM14.1787 13.0304C14.282 12.5657 14.4315 12.1791 14.6263 11.8694L14.5417 11.8162C14.3393 12.1379 14.1861 12.5359 14.0811 13.0087L14.1787 13.0304ZM14.6264 11.8692C14.821 11.5566 15.0607 11.3238 15.3452 11.1689L15.2974 11.0811C14.9959 11.2452 14.7441 11.491 14.5415 11.8164L14.6264 11.8692ZM15.3454 11.1688C15.6333 11.0106 15.9634 10.9309 16.3369 10.9309V10.8309C15.9487 10.8309 15.6017 10.9139 15.2972 11.0812L15.3454 11.1688ZM16.3369 10.9309C17.0545 10.9309 17.5885 11.2217 17.9459 11.8042C18.3058 12.3907 18.4891 13.2769 18.4891 14.4697H18.5891C18.5891 13.2699 18.4053 12.3617 18.0311 11.7519C17.6545 11.1382 17.0874 10.8309 16.3369 10.8309V10.9309ZM17.7688 14.5479C17.7688 13.5494 17.6503 12.7933 17.4087 12.2852C17.2875 12.0304 17.1346 11.836 16.9482 11.7054C16.7614 11.5744 16.5439 11.5096 16.2979 11.5096V11.6096C16.5254 11.6096 16.7224 11.6692 16.8908 11.7873C17.0597 11.9057 17.2027 12.0848 17.3184 12.3281C17.5504 12.816 17.6687 13.5541 17.6687 14.5479H17.7688ZM16.2979 11.5096C16.0391 11.5096 15.8105 11.5754 15.614 11.7083C15.4179 11.841 15.2565 12.0386 15.1287 12.298C14.8738 12.8153 14.7488 13.5851 14.7488 14.6016H14.8488C14.8488 13.5901 14.9737 12.8388 15.2184 12.3422C15.3405 12.0945 15.4914 11.9119 15.67 11.7911C15.8483 11.6705 16.0569 11.6096 16.2979 11.6096V11.5096ZM14.7488 14.6016C14.7488 15.5499 14.8714 16.2688 15.1219 16.7522C15.2475 16.9947 15.406 17.1794 15.5985 17.3032C15.7912 17.4272 16.0152 17.4885 16.2686 17.4885V17.3885C16.032 17.3885 15.8273 17.3315 15.6526 17.2191C15.4777 17.1066 15.33 16.9366 15.2107 16.7062C14.9712 16.2441 14.8488 15.5445 14.8488 14.6016H14.7488ZM16.2686 17.4885C16.519 17.4885 16.7403 17.4259 16.9307 17.2995C17.1207 17.1732 17.2771 16.9851 17.4009 16.7382C17.6478 16.246 17.7688 15.514 17.7688 14.5479H17.6687C17.6687 15.5088 17.548 16.2221 17.3115 16.6934C17.1936 16.9283 17.0478 17.1016 16.8753 17.2162C16.7032 17.3306 16.5015 17.3885 16.2686 17.3885V17.4885ZM22.2305 11.3008L22.206 11.3444L22.2805 11.3863V11.3008H22.2305ZM20.8584 13H20.8084V13.05H20.8584V13ZM22.0303 13H22.0803V12.95H22.0303V13ZM22.0303 13.6836V13.7336H22.0803V13.6836H22.0303ZM20.8584 13.6836V13.6336H20.8084V13.6836H20.8584ZM20.8584 18V18.05H20.9084V18H20.8584ZM20.0625 18H20.0125V18.05H20.0625V18ZM20.0625 13.6836H20.1125V13.6336H20.0625V13.6836ZM19.208 13.6836H19.158V13.7336H19.208V13.6836ZM19.208 13V12.95H19.158V13H19.208ZM20.0625 13V13.05H20.1125V13H20.0625ZM20.5166 10.9492L20.552 10.9846L20.5521 10.9844L20.5166 10.9492ZM22.2305 10.5781H22.2805V10.5446L22.2494 10.5318L22.2305 10.5781ZM22.255 11.2572C22.0905 11.1647 21.9045 11.1189 21.6982 11.1189V11.2189C21.8892 11.2189 22.058 11.2611 22.206 11.3444L22.255 11.2572ZM21.6982 11.1189C21.4071 11.1189 21.1809 11.2114 21.0292 11.4028C20.8792 11.592 20.8084 11.8701 20.8084 12.2285H20.9084C20.9084 11.8806 20.9776 11.6289 21.1075 11.4649C21.2358 11.3031 21.4295 11.2189 21.6982 11.2189V11.1189ZM20.8084 12.2285V13H20.9084V12.2285H20.8084ZM20.8584 13.05H22.0303V12.95H20.8584V13.05ZM21.9803 13V13.6836H22.0803V13H21.9803ZM22.0303 13.6336H20.8584V13.7336H22.0303V13.6336ZM20.8084 13.6836V18H20.9084V13.6836H20.8084ZM20.8584 17.95H20.0625V18.05H20.8584V17.95ZM20.1125 18V13.6836H20.0125V18H20.1125ZM20.0625 13.6336H19.208V13.7336H20.0625V13.6336ZM19.258 13.6836V13H19.158V13.6836H19.258ZM19.208 13.05H20.0625V12.95H19.208V13.05ZM20.1125 13V12.1895H20.0125V13H20.1125ZM20.1125 12.1895C20.1125 11.6755 20.2606 11.2759 20.552 10.9846L20.4812 10.9139C20.1671 11.228 20.0125 11.6553 20.0125 12.1895H20.1125ZM20.5521 10.9844C20.845 10.6884 21.2095 10.5402 21.6494 10.5402V10.4402C21.1843 10.4402 20.7937 10.598 20.4811 10.9141L20.5521 10.9844ZM21.6494 10.5402C21.8904 10.5402 22.0768 10.5693 22.2115 10.6244L22.2494 10.5318C22.0977 10.4698 21.8967 10.4402 21.6494 10.4402V10.5402ZM22.1805 10.5781V11.3008H22.2805V10.5781H22.1805Z" fill="black"/>
</svg>
