<svg width="28" height="28" viewBox="0 0 28 28" fill="none" xmlns="http://www.w3.org/2000/svg">
<path d="M6.792 17.406C6.792 17.1347 6.858 16.944 6.99 16.834C7.122 16.724 7.27967 16.669 7.463 16.669C7.65367 16.669 7.815 16.724 7.947 16.834C8.08633 16.944 8.156 17.1347 8.156 17.406C8.156 17.67 8.08633 17.8607 7.947 17.978C7.815 18.0953 7.65367 18.154 7.463 18.154C7.27967 18.154 7.122 18.0953 6.99 17.978C6.858 17.8607 6.792 17.67 6.792 17.406ZM14.6964 14.062C14.6964 14.7 14.6487 15.2683 14.5534 15.767C14.458 16.2657 14.304 16.691 14.0914 17.043C13.886 17.3877 13.6147 17.6517 13.2774 17.835C12.9474 18.0183 12.5477 18.11 12.0784 18.11C11.4917 18.11 11.004 17.9487 10.6154 17.626C10.234 17.3033 9.94803 16.8413 9.75736 16.24C9.57403 15.6313 9.48236 14.9053 9.48236 14.062C9.48236 13.2113 9.56669 12.4853 9.73536 11.884C9.91136 11.2827 10.19 10.8243 10.5714 10.509C10.9527 10.1863 11.455 10.025 12.0784 10.025C12.665 10.025 13.1527 10.1863 13.5414 10.509C13.93 10.8243 14.2197 11.2827 14.4104 11.884C14.601 12.4853 14.6964 13.2113 14.6964 14.062ZM10.4504 14.062C10.4504 14.7807 10.5017 15.3783 10.6044 15.855C10.7144 16.3317 10.8867 16.691 11.1214 16.933C11.3634 17.1677 11.6824 17.285 12.0784 17.285C12.4744 17.285 12.7897 17.1677 13.0244 16.933C13.2664 16.6983 13.4424 16.3427 13.5524 15.866C13.6624 15.382 13.7174 14.7807 13.7174 14.062C13.7174 13.3433 13.6624 12.7493 13.5524 12.28C13.4424 11.8033 13.2664 11.4477 13.0244 11.213C12.7897 10.971 12.4744 10.85 12.0784 10.85C11.6824 10.85 11.3634 10.971 11.1214 11.213C10.8867 11.4477 10.7144 11.8033 10.6044 12.28C10.5017 12.7493 10.4504 13.3433 10.4504 14.062ZM18.2633 13.182C18.7986 13.182 19.2643 13.2737 19.6603 13.457C20.0563 13.6403 20.3606 13.9043 20.5733 14.249C20.7933 14.5863 20.9033 15.0007 20.9033 15.492C20.9033 16.0347 20.7859 16.504 20.5513 16.9C20.3166 17.2887 19.9793 17.5893 19.5393 17.802C19.1066 18.0073 18.5823 18.11 17.9663 18.11C17.5629 18.11 17.1816 18.0733 16.8223 18C16.4703 17.9267 16.1733 17.8203 15.9313 17.681V16.768C16.1953 16.9293 16.5143 17.0577 16.8883 17.153C17.2696 17.241 17.6326 17.285 17.9773 17.285C18.3659 17.285 18.7033 17.2263 18.9893 17.109C19.2826 16.9843 19.5099 16.7973 19.6713 16.548C19.8326 16.2913 19.9133 15.9723 19.9133 15.591C19.9133 15.0777 19.7556 14.6853 19.4403 14.414C19.1249 14.1353 18.6263 13.996 17.9443 13.996C17.7389 13.996 17.5043 14.0143 17.2403 14.051C16.9763 14.0877 16.7636 14.1243 16.6023 14.161L16.1183 13.853L16.4153 10.146H20.3533V11.026H17.2403L17.0533 13.303C17.1779 13.281 17.3466 13.2553 17.5593 13.226C17.7719 13.1967 18.0066 13.182 18.2633 13.182Z" fill="black"/>
</svg>
