<svg width="16" height="7" viewBox="0 0 16 7" fill="none" xmlns="http://www.w3.org/2000/svg">
<path fill-rule="evenodd" clip-rule="evenodd" d="M12.5 3.2e-06C12.9844 3.2e-06 13.4388 0.0911487 13.8633 0.27344C14.2877 0.455732 14.6588 0.705732 14.9765 1.02344C15.2943 1.34115 15.5442 1.71224 15.7265 2.13672C15.9088 2.5612 16 3.01563 16 3.5C16 3.98437 15.9088 4.4388 15.7265 4.86328C15.5443 5.28776 15.2943 5.65885 14.9765 5.97656C14.6588 6.29426 14.2877 6.54426 13.8633 6.72656C13.4388 6.90885 12.9844 6.99999 12.5 6.99999C11.9739 6.99999 11.4622 6.90364 10.9648 6.71093C10.4674 6.51822 10.0312 6.23437 9.65624 5.85937C9.37499 5.58333 9.09895 5.30859 8.82811 5.03515C8.55728 4.76171 8.28124 4.48437 7.99999 4.20312C7.72395 4.47916 7.45052 4.7539 7.17968 5.02734C6.90884 5.30077 6.6328 5.57551 6.35156 5.85156C5.97655 6.22656 5.53905 6.51171 5.03906 6.70702C4.53906 6.90233 4.02604 6.99999 3.5 6.99999C3.01562 6.99999 2.5612 6.90884 2.13672 6.72655C1.71224 6.54426 1.34114 6.29426 1.02344 5.97655C0.705729 5.65885 0.45573 5.28775 0.273437 4.86327C0.0911456 4.43879 0 3.98437 0 3.5C0 3.01562 0.0911456 2.5612 0.273437 2.13672C0.455729 1.71224 0.705729 1.34114 1.02344 1.02344C1.34114 0.705729 1.71224 0.45573 2.13672 0.273437C2.5612 0.0911456 3.01562 0 3.5 0C4.02604 0 4.53775 0.0963541 5.03515 0.289062C5.53255 0.48177 5.96875 0.765625 6.34374 1.14062C6.62499 1.41667 6.90103 1.6914 7.17186 1.96484C7.4427 2.23828 7.71874 2.51563 7.99999 2.79687C8.27603 2.52083 8.54946 2.2461 8.8203 1.97266C9.09113 1.69922 9.36718 1.42448 9.64842 1.14844C10.0234 0.773437 10.4609 0.488283 10.9609 0.292972C11.4609 0.0976591 11.9739 3.2e-06 12.5 3.2e-06ZM3.54687 5.97659C3.73437 5.97659 3.92447 5.95836 4.11718 5.9219C4.30989 5.88544 4.49739 5.83205 4.67969 5.76174C4.86198 5.69143 5.03646 5.60419 5.20312 5.50002C5.36979 5.39586 5.52083 5.27607 5.65625 5.14065C5.93229 4.86461 6.20442 4.59117 6.47265 4.32033C6.74088 4.0495 7.01301 3.77606 7.28906 3.50002C7.01301 3.22398 6.73958 2.94924 6.46874 2.6758C6.19791 2.40237 5.92447 2.12763 5.64843 1.85158C5.36718 1.57033 5.03645 1.35809 4.65624 1.21486C4.27603 1.07164 3.89062 1.00002 3.49999 1.00002C3.15624 1.00002 2.83202 1.06513 2.52734 1.19533C2.22265 1.32554 1.95702 1.50393 1.73046 1.73049C1.5039 1.95705 1.32551 2.22268 1.19531 2.52736C1.0651 2.83205 0.999993 3.15627 0.999993 3.50002C0.999993 3.85939 1.0664 4.19012 1.19921 4.49221C1.33202 4.79429 1.51301 5.05601 1.74218 5.27736C1.97135 5.49872 2.24088 5.67059 2.55077 5.79299C2.86067 5.91538 3.1927 5.97658 3.54687 5.97658L3.54687 5.97659ZM13.4492 5.79299C13.1393 5.91539 12.8073 5.97659 12.4531 5.97659L12.4531 5.97659C12.2656 5.97659 12.0755 5.95836 11.8828 5.92191C11.6901 5.88545 11.5026 5.83206 11.3203 5.76175C11.138 5.69144 10.9635 5.6055 10.7969 5.50394C10.6302 5.40237 10.4818 5.28389 10.3515 5.14847C10.0755 4.87243 9.80206 4.59769 9.53123 4.32425C9.26039 4.05081 8.98696 3.77607 8.71092 3.50003C8.98696 3.22399 9.25909 2.95055 9.52732 2.67972C9.79555 2.40888 10.0677 2.13545 10.3437 1.8594C10.4791 1.72399 10.6302 1.6042 10.7969 1.50003C10.9635 1.39586 11.138 1.30862 11.3203 1.23831C11.5026 1.168 11.6901 1.11461 11.8828 1.07815C12.0755 1.0417 12.2656 1.02347 12.4531 1.02347C12.8073 1.02347 13.1393 1.08597 13.4492 1.21097C13.7591 1.33597 14.0286 1.50784 14.2578 1.72659C14.487 1.94534 14.6679 2.20576 14.8008 2.50784C14.9336 2.80992 15 3.14065 15 3.50003C15 3.8594 14.9336 4.19013 14.8008 4.49221C14.6679 4.79429 14.487 5.05601 14.2578 5.27737C14.0286 5.49872 13.7591 5.6706 13.4492 5.79299Z" fill="black"/>
</svg>
