<svg width="28" height="28" viewBox="0 0 28 28" fill="none" xmlns="http://www.w3.org/2000/svg">
<path d="M15.9805 13.4697C15.9805 14.0557 15.9268 14.5749 15.8193 15.0273C15.7152 15.4798 15.5622 15.8623 15.3604 16.1748C15.1618 16.484 14.916 16.7201 14.623 16.8828C14.3333 17.0423 14.0029 17.1221 13.6318 17.1221C13.2803 17.1221 12.9661 17.0456 12.6895 16.8926C12.416 16.7363 12.1849 16.5101 11.9961 16.2139C11.8073 15.9176 11.6641 15.5547 11.5664 15.125C11.4688 14.6921 11.4199 14.1973 11.4199 13.6406C11.4199 13.0286 11.4704 12.4883 11.5713 12.0195C11.6755 11.5508 11.8268 11.1585 12.0254 10.8428C12.224 10.5238 12.4697 10.2845 12.7627 10.125C13.0589 9.96224 13.3975 9.88086 13.7783 9.88086C15.2464 9.88086 15.9805 11.0771 15.9805 13.4697ZM15.1602 13.5479C15.1602 11.5557 14.6865 10.5596 13.7393 10.5596C12.7399 10.5596 12.2402 11.5736 12.2402 13.6016C12.2402 15.4928 12.7301 16.4385 13.71 16.4385C14.6768 16.4385 15.1602 15.4749 15.1602 13.5479Z" fill="black"/>
<path d="M15.8193 15.0273L15.7707 15.0158L15.7706 15.0161L15.8193 15.0273ZM15.3604 16.1748L15.3183 16.1477L15.3183 16.1478L15.3604 16.1748ZM14.623 16.8828L14.6472 16.9266L14.6473 16.9265L14.623 16.8828ZM12.6895 16.8926L12.6646 16.936L12.6653 16.9363L12.6895 16.8926ZM11.5664 15.125L11.5176 15.136L11.5176 15.1361L11.5664 15.125ZM11.5713 12.0195L11.5225 12.0087L11.5224 12.009L11.5713 12.0195ZM12.0254 10.8428L12.0677 10.8694L12.0678 10.8692L12.0254 10.8428ZM12.7627 10.125L12.7866 10.1689L12.7868 10.1688L12.7627 10.125ZM15.9305 13.4697C15.9305 14.0527 15.877 14.5679 15.7707 15.0158L15.868 15.0389C15.9765 14.5818 16.0305 14.0586 16.0305 13.4697H15.9305ZM15.7706 15.0161C15.6674 15.4643 15.5164 15.8411 15.3183 16.1477L15.4024 16.2019C15.608 15.8835 15.7629 15.4953 15.8681 15.0386L15.7706 15.0161ZM15.3183 16.1478C15.1237 16.4508 14.8838 16.6807 14.5988 16.8391L14.6473 16.9265C14.9482 16.7594 15.1998 16.5173 15.4024 16.2018L15.3183 16.1478ZM14.5989 16.839C14.3175 16.994 13.9955 17.0721 13.6318 17.0721V17.1721C14.0103 17.1721 14.3492 17.0907 14.6472 16.9266L14.5989 16.839ZM13.6318 17.0721C13.2878 17.0721 12.9821 16.9973 12.7136 16.8488L12.6653 16.9363C12.9502 17.0939 13.2728 17.1721 13.6318 17.1721V17.0721ZM12.7143 16.8492C12.4486 16.6974 12.2232 16.4772 12.0383 16.187L11.9539 16.2407C12.1466 16.543 12.3834 16.7753 12.6646 16.936L12.7143 16.8492ZM12.0383 16.187C11.8532 15.8967 11.7119 15.5394 11.6152 15.1139L11.5176 15.1361C11.6163 15.57 11.7614 15.9386 11.9539 16.2407L12.0383 16.187ZM11.6152 15.114C11.5185 14.6854 11.4699 14.1945 11.4699 13.6406H11.3699C11.3699 14.2001 11.419 14.6987 11.5176 15.136L11.6152 15.114ZM11.4699 13.6406C11.4699 13.0313 11.5202 12.4946 11.6202 12.0301L11.5224 12.009C11.4206 12.482 11.3699 13.026 11.3699 13.6406H11.4699ZM11.6201 12.0304C11.7234 11.5657 11.8729 11.1791 12.0677 10.8694L11.9831 10.8162C11.7807 11.1379 11.6275 11.5359 11.5225 12.0087L11.6201 12.0304ZM12.0678 10.8692C12.2624 10.5566 12.5021 10.3238 12.7866 10.1689L12.7388 10.0811C12.4373 10.2452 12.1855 10.491 11.9829 10.8164L12.0678 10.8692ZM12.7868 10.1688C13.0747 10.0106 13.4048 9.93086 13.7783 9.93086V9.83086C13.3901 9.83086 13.0431 9.91387 12.7386 10.0812L12.7868 10.1688ZM13.7783 9.93086C14.496 9.93086 15.0299 10.2217 15.3873 10.8042C15.7472 11.3907 15.9305 12.2769 15.9305 13.4697H16.0305C16.0305 12.2699 15.8467 11.3617 15.4725 10.7519C15.0959 10.1382 14.5288 9.83086 13.7783 9.83086V9.93086ZM15.2102 13.5479C15.2102 12.5494 15.0917 11.7933 14.8501 11.2852C14.729 11.0304 14.576 10.836 14.3896 10.7054C14.2028 10.5744 13.9854 10.5096 13.7393 10.5096V10.6096C13.9668 10.6096 14.1638 10.6692 14.3322 10.7873C14.5011 10.9057 14.6441 11.0848 14.7598 11.3281C14.9918 11.816 15.1102 12.5541 15.1102 13.5479H15.2102ZM13.7393 10.5096C13.4805 10.5096 13.2519 10.5754 13.0554 10.7083C12.8593 10.841 12.698 11.0386 12.5701 11.298C12.3152 11.8153 12.1902 12.5851 12.1902 13.6016H12.2902C12.2902 12.5901 12.4151 11.8388 12.6598 11.3422C12.7819 11.0945 12.9329 10.9119 13.1114 10.7911C13.2897 10.6705 13.4983 10.6096 13.7393 10.6096V10.5096ZM12.1902 13.6016C12.1902 14.5499 12.3128 15.2688 12.5633 15.7522C12.6889 15.9947 12.8474 16.1794 13.0399 16.3032C13.2326 16.4272 13.4566 16.4885 13.71 16.4885V16.3885C13.4734 16.3885 13.2687 16.3315 13.094 16.2191C12.9191 16.1066 12.7714 15.9366 12.6521 15.7062C12.4126 15.2441 12.2902 14.5445 12.2902 13.6016H12.1902ZM13.71 16.4885C13.9604 16.4885 14.1817 16.4259 14.3721 16.2995C14.5622 16.1732 14.7185 15.9851 14.8423 15.7382C15.0893 15.246 15.2102 14.514 15.2102 13.5479H15.1102C15.1102 14.5088 14.9894 15.2221 14.7529 15.6934C14.635 15.9283 14.4892 16.1016 14.3168 16.2162C14.1446 16.3306 13.9429 16.3885 13.71 16.3885V16.4885Z" fill="black"/>
</svg>
