<svg width="28" height="28" viewBox="0 0 28 28" fill="none" xmlns="http://www.w3.org/2000/svg">
<path d="M12.753 14.062C12.753 14.7 12.7053 15.2683 12.61 15.767C12.5147 16.2657 12.3607 16.691 12.148 17.043C11.9427 17.3877 11.6713 17.6517 11.334 17.835C11.004 18.0183 10.6043 18.11 10.135 18.11C9.54833 18.11 9.06067 17.9487 8.672 17.626C8.29067 17.3033 8.00467 16.8413 7.814 16.24C7.63067 15.6313 7.539 14.9053 7.539 14.062C7.539 13.2113 7.62333 12.4853 7.792 11.884C7.968 11.2827 8.24667 10.8243 8.628 10.509C9.00933 10.1863 9.51167 10.025 10.135 10.025C10.7217 10.025 11.2093 10.1863 11.598 10.509C11.9867 10.8243 12.2763 11.2827 12.467 11.884C12.6577 12.4853 12.753 13.2113 12.753 14.062ZM8.507 14.062C8.507 14.7807 8.55833 15.3783 8.661 15.855C8.771 16.3317 8.94333 16.691 9.178 16.933C9.42 17.1677 9.739 17.285 10.135 17.285C10.531 17.285 10.8463 17.1677 11.081 16.933C11.323 16.6983 11.499 16.3427 11.609 15.866C11.719 15.382 11.774 14.7807 11.774 14.062C11.774 13.3433 11.719 12.7493 11.609 12.28C11.499 11.8033 11.323 11.4477 11.081 11.213C10.8463 10.971 10.531 10.85 10.135 10.85C9.739 10.85 9.42 10.971 9.178 11.213C8.94333 11.4477 8.771 11.8033 8.661 12.28C8.55833 12.7493 8.507 13.3433 8.507 14.062ZM16.3199 13.182C16.8553 13.182 17.3209 13.2737 17.7169 13.457C18.1129 13.6403 18.4173 13.9043 18.6299 14.249C18.8499 14.5863 18.9599 15.0007 18.9599 15.492C18.9599 16.0347 18.8426 16.504 18.6079 16.9C18.3733 17.2887 18.0359 17.5893 17.5959 17.802C17.1633 18.0073 16.6389 18.11 16.0229 18.11C15.6196 18.11 15.2383 18.0733 14.8789 18C14.5269 17.9267 14.2299 17.8203 13.9879 17.681V16.768C14.2519 16.9293 14.5709 17.0577 14.9449 17.153C15.3263 17.241 15.6893 17.285 16.0339 17.285C16.4226 17.285 16.7599 17.2263 17.0459 17.109C17.3393 16.9843 17.5666 16.7973 17.7279 16.548C17.8893 16.2913 17.9699 15.9723 17.9699 15.591C17.9699 15.0777 17.8123 14.6853 17.4969 14.414C17.1816 14.1353 16.6829 13.996 16.0009 13.996C15.7956 13.996 15.5609 14.0143 15.2969 14.051C15.0329 14.0877 14.8203 14.1243 14.6589 14.161L14.1749 13.853L14.4719 10.146H18.4099V11.026H15.2969L15.1099 13.303C15.2346 13.281 15.4033 13.2553 15.6159 13.226C15.8286 13.1967 16.0633 13.182 16.3199 13.182ZM20.3818 17.406C20.3818 17.1347 20.4478 16.944 20.5798 16.834C20.7118 16.724 20.8695 16.669 21.0528 16.669C21.2435 16.669 21.4048 16.724 21.5368 16.834C21.6762 16.944 21.7458 17.1347 21.7458 17.406C21.7458 17.67 21.6762 17.8607 21.5368 17.978C21.4048 18.0953 21.2435 18.154 21.0528 18.154C20.8695 18.154 20.7118 18.0953 20.5798 17.978C20.4478 17.8607 20.3818 17.67 20.3818 17.406Z" fill="black"/>
</svg>
