<svg width="28" height="28" viewBox="0 0 28 28" fill="none" xmlns="http://www.w3.org/2000/svg">
<path d="M21.0135 13.5693L18.5757 11.1315C18.4004 10.9562 18.1136 10.9562 17.9224 11.1315C17.7471 11.3067 17.7471 11.5935 17.9224 11.7847L19.5795 13.4418H7.56549L9.22259 11.7847C9.39786 11.6095 9.39786 11.3227 9.22259 11.1315C9.04732 10.9562 8.76051 10.9562 8.56931 11.1315L6.13145 13.5693C5.95618 13.7446 5.95618 14.0314 6.13145 14.2226L8.56931 16.6604C8.66491 16.7561 8.77645 16.7879 8.88798 16.7879C8.99952 16.7879 9.12699 16.7401 9.20666 16.6604C9.38193 16.4852 9.38193 16.1984 9.20666 16.0072L7.56549 14.3501H19.5795L17.9224 15.9912C17.7471 16.1665 17.7471 16.4533 17.9224 16.6445C18.018 16.7401 18.1295 16.772 18.2411 16.772C18.3526 16.772 18.4801 16.7242 18.5597 16.6445L21.0135 14.2067C21.1888 14.0314 21.1888 13.7446 21.0135 13.5693Z" fill="black"/>
</svg>
