<svg width="28" height="28" viewBox="0 0 28 28" fill="none" xmlns="http://www.w3.org/2000/svg">
<path d="M20.1383 20H8L10.4277 12.717H13.6645V11.0606C13.4285 11.0101 13.2115 10.9237 13.0134 10.8014C12.8153 10.6792 12.6446 10.5317 12.5013 10.3589C12.358 10.1819 12.2463 9.9838 12.1662 9.76463C12.0861 9.54547 12.0461 9.31577 12.0461 9.07553C12.0461 8.79736 12.0988 8.53605 12.2041 8.2916C12.3095 8.04715 12.4528 7.83431 12.634 7.65308C12.8195 7.46763 13.0344 7.32222 13.2789 7.21686C13.5276 7.10727 13.791 7.05248 14.0691 7.05248C14.3473 7.05248 14.6086 7.10727 14.8531 7.21686C15.0975 7.32222 15.3104 7.46763 15.4916 7.65308C15.6771 7.83431 15.8225 8.04715 15.9278 8.2916C16.0374 8.53605 16.0922 8.79736 16.0922 9.07553C16.0922 9.31577 16.0522 9.54547 15.9721 9.76463C15.892 9.9838 15.7803 10.1819 15.637 10.3589C15.4937 10.5317 15.323 10.6792 15.1249 10.8014C14.9268 10.9237 14.7098 11.0101 14.4738 11.0606V12.717H17.7106L20.1383 20ZM12.8553 9.07553C12.8553 9.24412 12.8869 9.40217 12.9501 9.54968C13.0134 9.6972 13.0998 9.82575 13.2094 9.93533C13.3189 10.0449 13.4475 10.1313 13.595 10.1945C13.7425 10.2578 13.9006 10.2894 14.0691 10.2894C14.2377 10.2894 14.3958 10.2578 14.5433 10.1945C14.6908 10.1313 14.8194 10.0449 14.9289 9.93533C15.0385 9.82575 15.1249 9.6972 15.1881 9.54968C15.2514 9.40217 15.283 9.24412 15.283 9.07553C15.283 8.90694 15.2514 8.74889 15.1881 8.60138C15.1249 8.45387 15.0385 8.32532 14.9289 8.21574C14.8194 8.10615 14.6908 8.01975 14.5433 7.95653C14.3958 7.89331 14.2377 7.8617 14.0691 7.8617C13.9006 7.8617 13.7425 7.89331 13.595 7.95653C13.4475 8.01975 13.3189 8.10615 13.2094 8.21574C13.0998 8.32532 13.0134 8.45387 12.9501 8.60138C12.8869 8.74889 12.8553 8.90694 12.8553 9.07553ZM9.12532 19.1908H19.013L17.129 13.5262H14.4738V16.5608C14.4738 16.5987 14.4569 16.6325 14.4232 16.662C14.3937 16.6873 14.3557 16.7083 14.3094 16.7252C14.2672 16.7378 14.223 16.7484 14.1766 16.7568C14.1345 16.761 14.0987 16.7631 14.0691 16.7631C14.0396 16.7631 14.0017 16.761 13.9554 16.7568C13.9132 16.7484 13.869 16.7378 13.8226 16.7252C13.7804 16.7083 13.7425 16.6873 13.7088 16.662C13.6793 16.6325 13.6645 16.5987 13.6645 16.5608V13.5262H11.0093L9.12532 19.1908Z" fill="black"/>
</svg>
