<svg width="28" height="28" viewBox="0 0 28 28" fill="none" xmlns="http://www.w3.org/2000/svg">
<path d="M17.483 16.2068C17.7438 16.2068 17.9888 16.2581 18.218 16.3609C18.4472 16.4597 18.6467 16.596 18.8166 16.7698C18.9905 16.9397 19.1268 17.1393 19.2256 17.3685C19.3283 17.5976 19.3797 17.8426 19.3797 18.1034C19.3797 18.3642 19.3283 18.6111 19.2256 18.8443C19.1268 19.0734 18.9905 19.2749 18.8166 19.4488C18.6467 19.6187 18.4472 19.753 18.218 19.8518C17.9888 19.9506 17.7438 20 17.483 20C17.2223 20 16.9753 19.9506 16.7422 19.8518C16.513 19.753 16.3115 19.6187 16.1376 19.4488C15.9677 19.2749 15.8334 19.0734 15.7346 18.8443C15.6358 18.6111 15.5864 18.3642 15.5864 18.1034C15.5864 17.811 15.6497 17.5344 15.7761 17.2736C15.9065 17.0128 16.0863 16.7916 16.3154 16.6098L14.5255 13.0359C14.2529 13.1268 13.9743 13.1722 13.6898 13.1722C13.4053 13.1722 13.1268 13.1268 12.8541 13.0359L11.0642 16.6098C11.2934 16.7916 11.4712 17.0128 11.5976 17.2736C11.728 17.5344 11.7932 17.811 11.7932 18.1034C11.7932 18.3642 11.7419 18.6111 11.6391 18.8443C11.5403 19.0734 11.404 19.2749 11.2302 19.4488C11.0603 19.6187 10.8607 19.753 10.6315 19.8518C10.4024 19.9506 10.1574 20 9.89661 20C9.63583 20 9.38887 19.9506 9.15575 19.8518C8.92657 19.753 8.72506 19.6187 8.5512 19.4488C8.3813 19.2749 8.24695 19.0734 8.14817 18.8443C8.04939 18.6111 8 18.3642 8 18.1034C8 17.8426 8.04939 17.5976 8.14817 17.3685C8.24695 17.1393 8.3813 16.9397 8.5512 16.7698C8.72506 16.596 8.92657 16.4597 9.15575 16.3609C9.38887 16.2581 9.63583 16.2068 9.89661 16.2068C10.0586 16.2068 10.2226 16.2285 10.3885 16.272L12.1785 12.6981C12.0007 12.5756 11.8406 12.4353 11.6984 12.2772C11.5561 12.1152 11.4356 11.9394 11.3368 11.7498C11.2381 11.5601 11.163 11.3625 11.1116 11.1571C11.0603 10.9476 11.0346 10.7343 11.0346 10.517C11.0346 10.1495 11.1037 9.80573 11.242 9.48567C11.3803 9.16167 11.57 8.87915 11.811 8.63813C12.052 8.3971 12.3326 8.20744 12.6526 8.06914C12.9766 7.93085 13.3224 7.8617 13.6898 7.8617C14.0573 7.8617 14.4011 7.93085 14.7211 8.06914C15.0451 8.20744 15.3276 8.3971 15.5687 8.63813C15.8097 8.87915 15.9993 9.16167 16.1376 9.48567C16.2759 9.80573 16.3451 10.1495 16.3451 10.517C16.3451 10.7343 16.3194 10.9476 16.268 11.1571C16.2167 11.3625 16.1416 11.5601 16.0428 11.7498C15.944 11.9394 15.8235 12.1152 15.6813 12.2772C15.539 12.4353 15.379 12.5756 15.2012 12.6981L16.9911 16.272C17.1571 16.2285 17.321 16.2068 17.483 16.2068ZM9.89661 19.2414C10.0547 19.2414 10.2028 19.2117 10.3411 19.1525C10.4794 19.0932 10.5999 19.0122 10.7027 18.9094C10.8054 18.8067 10.8864 18.6862 10.9457 18.5479C11.0049 18.4096 11.0346 18.2614 11.0346 18.1034C11.0346 17.9453 11.0049 17.7972 10.9457 17.6589C10.8864 17.5206 10.8054 17.4001 10.7027 17.2973C10.5999 17.1946 10.4794 17.1136 10.3411 17.0543C10.2028 16.9951 10.0547 16.9654 9.89661 16.9654C9.73856 16.9654 9.59039 16.9951 9.45209 17.0543C9.3138 17.1136 9.19328 17.1946 9.09055 17.2973C8.98782 17.4001 8.90682 17.5206 8.84755 17.6589C8.78828 17.7972 8.75864 17.9453 8.75864 18.1034C8.75864 18.2614 8.78828 18.4096 8.84755 18.5479C8.90682 18.6862 8.98782 18.8067 9.09055 18.9094C9.19328 19.0122 9.3138 19.0932 9.45209 19.1525C9.59039 19.2117 9.73856 19.2414 9.89661 19.2414ZM11.7932 10.517C11.7932 10.7777 11.8426 11.0247 11.9414 11.2578C12.0402 11.487 12.1745 11.6885 12.3444 11.8624C12.5183 12.0323 12.7198 12.1666 12.949 12.2654C13.1821 12.3642 13.429 12.4136 13.6898 12.4136C13.9506 12.4136 14.1956 12.3642 14.4248 12.2654C14.6539 12.1666 14.8535 12.0323 15.0234 11.8624C15.1972 11.6885 15.3336 11.487 15.4323 11.2578C15.5351 11.0247 15.5864 10.7777 15.5864 10.517C15.5864 10.2562 15.5351 10.0112 15.4323 9.78202C15.3336 9.55285 15.1972 9.35331 15.0234 9.1834C14.8535 9.00955 14.6539 8.87323 14.4248 8.77445C14.1956 8.67171 13.9506 8.62035 13.6898 8.62035C13.429 8.62035 13.1821 8.67171 12.949 8.77445C12.7198 8.87323 12.5183 9.00955 12.3444 9.1834C12.1745 9.35331 12.0402 9.55285 11.9414 9.78202C11.8426 10.0112 11.7932 10.2562 11.7932 10.517ZM17.483 19.2414C17.6411 19.2414 17.7893 19.2117 17.9276 19.1525C18.0659 19.0932 18.1864 19.0122 18.2891 18.9094C18.3918 18.8067 18.4728 18.6862 18.5321 18.5479C18.5914 18.4096 18.621 18.2614 18.621 18.1034C18.621 17.9453 18.5914 17.7972 18.5321 17.6589C18.4728 17.5206 18.3918 17.4001 18.2891 17.2973C18.1864 17.1946 18.0659 17.1136 17.9276 17.0543C17.7893 16.9951 17.6411 16.9654 17.483 16.9654C17.325 16.9654 17.1768 16.9951 17.0385 17.0543C16.9002 17.1136 16.7797 17.1946 16.677 17.2973C16.5743 17.4001 16.4933 17.5206 16.434 17.6589C16.3747 17.7972 16.3451 17.9453 16.3451 18.1034C16.3451 18.2614 16.3747 18.4096 16.434 18.5479C16.4933 18.6862 16.5743 18.8067 16.677 18.9094C16.7797 19.0122 16.9002 19.0932 17.0385 19.1525C17.1768 19.2117 17.325 19.2414 17.483 19.2414Z" fill="black"/>
</svg>
