<svg width="30" height="30" viewBox="0 0 30 30" fill="none" xmlns="http://www.w3.org/2000/svg">
<path d="M4.18945 8.56934L2.75391 10.0049H6.25488V11.25H2.75391L4.18945 12.6855L3.31055 13.5645L0.366211 10.6201L3.31055 7.67578L4.18945 8.56934ZM14.3701 2.75391L12.9492 4.18945L12.0557 3.31055L15 0.366211L17.9443 3.31055L17.0508 4.18945L15.6299 2.75391V6.25488H14.3701V2.75391ZM26.6895 7.67578L29.6338 10.6201L26.6895 13.5645L25.8105 12.6855L27.2461 11.25H23.7451V10.0049H27.2461L25.8105 8.56934L26.6895 7.67578ZM19.0576 6.87012C19.6143 6.87012 20.1416 6.97754 20.6396 7.19238C21.1377 7.40723 21.5674 7.7002 21.9287 8.07129C22.2998 8.43262 22.5928 8.8623 22.8076 9.36035C23.0225 9.8584 23.1299 10.3857 23.1299 10.9424V21.8701C23.1299 22.9932 22.915 24.0479 22.4854 25.0342C22.0654 26.0205 21.4844 26.8848 20.7422 27.627C20.0098 28.3594 19.1504 28.9404 18.1641 29.3701C17.1777 29.79 16.123 30 15 30C13.877 30 12.8223 29.79 11.8359 29.3701C10.8496 28.9404 9.98535 28.3594 9.24316 27.627C8.51074 26.8848 7.92969 26.0205 7.5 25.0342C7.08008 24.0479 6.87012 22.9932 6.87012 21.8701V10.9424C6.87012 10.3857 6.97754 9.8584 7.19238 9.36035C7.40723 8.8623 7.69531 8.43262 8.05664 8.07129C8.42773 7.7002 8.8623 7.40723 9.36035 7.19238C9.8584 6.97754 10.3857 6.87012 10.9424 6.87012H19.0576ZM15 28.7549C15.9473 28.7549 16.8359 28.5742 17.666 28.2129C18.5059 27.8516 19.2334 27.3584 19.8486 26.7334C20.4736 26.1084 20.9668 25.3809 21.3281 24.5508C21.6895 23.7109 21.8701 22.8174 21.8701 21.8701V16.2451H17.5049C17.1631 16.2451 16.8359 16.1816 16.5234 16.0547C16.2207 15.9277 15.957 15.752 15.7324 15.5273C15.5078 15.3027 15.3271 15.0391 15.1904 14.7363C15.0635 14.4336 15 14.1064 15 13.7549V8.12988H10.9424C10.5518 8.12988 10.1855 8.20312 9.84375 8.34961C9.50195 8.49609 9.2041 8.69629 8.9502 8.9502C8.69629 9.2041 8.49609 9.50195 8.34961 9.84375C8.20312 10.1855 8.12988 10.5518 8.12988 10.9424V21.8701C8.12988 22.8174 8.31055 23.7109 8.67188 24.5508C9.0332 25.3809 9.52148 26.1084 10.1367 26.7334C10.7617 27.3584 11.4893 27.8516 12.3193 28.2129C13.1592 28.5742 14.0527 28.7549 15 28.7549Z" fill="white"/>
</svg>
