<?xml version="1.0" encoding="UTF-8"?>
<svg id="Layer_1" xmlns="http://www.w3.org/2000/svg" viewBox="0 0 26 26">
    <defs>
        <style>
            .cls-1-untargeted {
                fill: #ffb200;
            }
        </style>
    </defs>
    <path class="cls-1-untargeted" d="M21.94,12c-.46-4.17-3.77-7.48-7.94-7.94V2h-2v2.06c-1.23,.14-2.38,.52-3.4,1.1l1.48,1.48c.89-.41,1.88-.64,2.92-.64,3.87,0,7,3.13,7,7,0,1.04-.23,2.03-.64,2.92l1.48,1.48c.58-1.03,.96-2.17,1.1-3.4h2.06v-2h-2.06Z" />
    <path
        class="cls-1-untargeted"
        d="M2.7,4.91l2.94,2.94c-.84,1.2-1.41,2.61-1.58,4.14H2v2h2.06c.46,4.17,3.77,7.48,7.94,7.94v2.06h2v-2.06c1.53-.17,2.94-.73,4.14-1.58l2.94,2.94,1.41-1.41L4.12,3.5l-1.42,1.41Zm10.3,15.09c-3.87,0-7-3.13-7-7,0-1.37,.4-2.63,1.07-3.71l2.24,2.24c-.19,.46-.31,.95-.31,1.47,0,2.21,1.79,4,4,4,.53,0,1.02-.12,1.47-.31l2.24,2.24c-1.07,.68-2.34,1.07-3.71,1.07Z"
    />
</svg>
