<svg width="28" height="28" viewBox="0 0 28 28" fill="none" xmlns="http://www.w3.org/2000/svg">
<path d="M22.0499 27.2668C21.9202 27.0744 21.8722 26.8384 21.9165 26.6106C21.9608 26.3829 22.0937 26.182 22.2861 26.0523L26.2499 23.3835V5.32354L22.1636 1.89354C21.9883 1.74443 21.8788 1.53224 21.8588 1.30295C21.8388 1.07366 21.91 0.845728 22.0569 0.668539V0.668539C22.2057 0.492951 22.4178 0.383099 22.6471 0.362789C22.8764 0.34248 23.1044 0.413349 23.2819 0.560039L27.9999 4.50629V24.3128L23.2749 27.503C23.1792 27.5689 23.0714 27.6151 22.9578 27.6389C22.8441 27.6626 22.7269 27.6636 22.6129 27.6416C22.4988 27.6196 22.3903 27.5751 22.2937 27.5108C22.197 27.4464 22.1141 27.3635 22.0499 27.2668V27.2668Z" fill="white"/>
<path d="M4.725 27.503L0 24.3093V4.50276L4.70575 0.556509C4.79384 0.482529 4.89565 0.426646 5.00537 0.392056C5.11508 0.357466 5.23053 0.344849 5.34512 0.354927C5.45972 0.365004 5.5712 0.397579 5.67319 0.450786C5.77518 0.503994 5.86567 0.57679 5.9395 0.665009C6.01348 0.753099 6.06936 0.854913 6.10395 0.964624C6.13854 1.07434 6.15116 1.18979 6.14108 1.30438C6.131 1.41897 6.09843 1.53046 6.04522 1.63245C5.99202 1.73443 5.91922 1.82493 5.831 1.89876L1.75 5.32001V23.38L5.71025 26.0523C5.90261 26.182 6.03555 26.3828 6.07986 26.6106C6.12416 26.8383 6.07619 27.0744 5.9465 27.2668V27.2668C5.88223 27.363 5.79951 27.4455 5.70314 27.5095C5.60677 27.5736 5.49866 27.6178 5.38506 27.6398C5.27145 27.6618 5.15462 27.661 5.04133 27.6375C4.92803 27.614 4.82051 27.5683 4.725 27.503Z" fill="white"/>
<path d="M13.875 3.47266L4.25 8.28516V19.8667L13.875 24.6792L23.5 19.8667V8.28516L13.875 3.47266ZM20.6685 8.82591L13.875 12.2227L7.0815 8.82591L13.875 5.42566L20.6685 8.82591ZM13.8243 13.3007L13.875 13.2009L13.9258 13.3007H13.8243ZM6 10.2417L13 13.7417V22.2852L6 18.7852V10.2417ZM14.75 22.2869V13.7434L21.75 10.2434V18.7869L14.75 22.2869Z" fill="white"/>
</svg>
