<svg width="36" height="36" viewBox="0 0 36 36" fill="none" xmlns="http://www.w3.org/2000/svg">
<path d="M15.192 2.17707L18.2399 5.22495L15.2227 8.24219" stroke="white" stroke-width="2"/>
<circle cx="17.6758" cy="17.6758" r="3.5" stroke="white" stroke-width="2"/>
<path d="M30.1758 17.6758C30.1758 24.5793 24.5793 30.1758 17.6758 30.1758C10.7722 30.1758 5.17578 24.5793 5.17578 17.6758C5.17578 10.7722 10.7722 5.17578 17.6758 5.17578" stroke="white" stroke-width="2"/>
<path d="M8.48528 8.48339C8.36435 8.60433 8.24627 8.72707 8.13107 8.85154L8.86497 9.53081C8.97142 9.41579 9.08056 9.30232 9.19239 9.1905L8.48528 8.48339ZM7.4675 9.62695C7.2551 9.89572 7.05481 10.171 6.86662 10.452L7.69751 11.0084C7.87115 10.7491 8.056 10.4951 8.25208 10.247L7.4675 9.62695ZM6.33229 11.3224C6.16508 11.6206 6.01055 11.924 5.86869 12.2319L6.77688 12.6504C6.90775 12.3665 7.0503 12.0866 7.20455 11.8114L6.33229 11.3224ZM5.47821 13.1756C5.36027 13.4959 5.25537 13.8199 5.1635 14.1468L6.1262 14.4174C6.21099 14.1157 6.3078 13.8167 6.41662 13.5211L5.47821 13.1756ZM4.92612 15.1396C4.85994 15.4739 4.80698 15.8103 4.76724 16.148L5.76039 16.2648C5.79708 15.9531 5.84598 15.6425 5.90709 15.3338L4.92612 15.1396ZM4.68763 17.1655C4.67435 17.5055 4.67435 17.846 4.68763 18.1861L5.68687 18.1471C5.6746 17.833 5.6746 17.5186 5.68687 17.2045L4.68763 17.1655ZM4.76724 19.2036C4.80698 19.5412 4.85994 19.8776 4.92612 20.212L5.90709 20.0178C5.84598 19.7091 5.79708 19.3985 5.76039 19.0867L4.76724 19.2036ZM5.1635 21.2047C5.25537 21.5316 5.36027 21.8556 5.47821 22.176L6.41662 21.8304C6.3078 21.5349 6.21099 21.2359 6.1262 20.9342L5.1635 21.2047ZM5.86869 23.1197C6.01055 23.4275 6.16508 23.7309 6.33229 24.0292L7.20455 23.5401C7.0503 23.265 6.90775 22.9851 6.77688 22.7012L5.86869 23.1197ZM6.86662 24.8996C7.05481 25.1806 7.2551 25.4558 7.4675 25.7246L8.25208 25.1046C8.056 24.8565 7.87115 24.6024 7.69752 24.3432L6.86662 24.8996ZM8.13107 26.5C8.24628 26.6245 8.36435 26.7472 8.48528 26.8682L9.19239 26.1611C9.08057 26.0492 8.97143 25.9358 8.86497 25.8208L8.13107 26.5ZM8.48528 26.8682C8.60622 26.9891 8.72896 27.1072 8.85343 27.2224L9.53269 26.4885C9.41767 26.382 9.30421 26.2729 9.19239 26.1611L8.48528 26.8682ZM9.62884 27.886C9.8976 28.0983 10.1729 28.2986 10.4539 28.4868L11.0103 27.6559C10.751 27.4823 10.497 27.2975 10.2489 27.1014L9.62884 27.886ZM11.3243 29.0212C11.6225 29.1884 11.9259 29.3429 12.2337 29.4848L12.6523 28.5766C12.3683 28.4457 12.0884 28.3031 11.8133 28.1489L11.3243 29.0212ZM13.1775 29.8752C13.4978 29.9932 13.8218 30.0981 14.1487 30.19L14.4193 29.2272C14.1176 29.1425 13.8186 29.0456 13.523 28.9368L13.1775 29.8752ZM15.1415 30.4273C15.4758 30.4935 15.8122 30.5465 16.1499 30.5862L16.2667 29.5931C15.955 29.5564 15.6443 29.5075 15.3357 29.4464L15.1415 30.4273ZM17.1674 30.6658C17.5074 30.6791 17.8479 30.6791 18.188 30.6658L18.149 29.6666C17.8349 29.6788 17.5204 29.6788 17.2064 29.6666L17.1674 30.6658ZM19.2055 30.5862C19.5431 30.5465 19.8795 30.4935 20.2138 30.4273L20.0196 29.4464C19.711 29.5075 19.4004 29.5564 19.0886 29.5931L19.2055 30.5862ZM21.2066 30.19C21.5335 30.0981 21.8575 29.9932 22.1779 29.8752L21.8323 28.9368C21.5368 29.0456 21.2378 29.1425 20.9361 29.2272L21.2066 30.19ZM23.1216 29.4848C23.4294 29.3429 23.7328 29.1884 24.031 29.0212L23.542 28.1489C23.2669 28.3031 22.987 28.4457 22.703 28.5766L23.1216 29.4848ZM24.9015 28.4868C25.1825 28.2986 25.4577 28.0983 25.7265 27.886L25.1065 27.1014C24.8584 27.2974 24.6043 27.4823 24.345 27.6559L24.9015 28.4868ZM26.5019 27.2224C26.6264 27.1072 26.7491 26.9891 26.8701 26.8682L26.163 26.1611C26.0511 26.2729 25.9377 26.382 25.8226 26.4885L26.5019 27.2224ZM26.8701 26.8682C26.991 26.7472 27.1091 26.6245 27.2243 26.5L26.4904 25.8208C26.3839 25.9358 26.2748 26.0492 26.163 26.1611L26.8701 26.8682ZM27.8878 25.7246C28.1002 25.4558 28.3005 25.1806 28.4887 24.8996L27.6578 24.3432C27.4842 24.6024 27.2993 24.8565 27.1033 25.1046L27.8878 25.7246ZM29.0231 24.0292C29.1903 23.7309 29.3448 23.4275 29.4866 23.1197L28.5785 22.7011C28.4476 22.9851 28.305 23.265 28.1508 23.5401L29.0231 24.0292ZM29.8771 22.176C29.9951 21.8556 30.1 21.5316 30.1918 21.2047L29.2291 20.9342C29.1443 21.2359 29.0475 21.5349 28.9387 21.8304L29.8771 22.176ZM30.4292 20.212C30.4954 19.8776 30.5484 19.5412 30.5881 19.2036L29.595 19.0867C29.5583 19.3985 29.5094 19.7091 29.4483 20.0178L30.4292 20.212ZM30.6677 18.1861C30.681 17.846 30.681 17.5055 30.6677 17.1655L29.6685 17.2045C29.6807 17.5186 29.6807 17.833 29.6685 18.1471L30.6677 18.1861ZM30.5881 16.148C30.5484 15.8103 30.4954 15.4739 30.4292 15.1396L29.4483 15.3338C29.5094 15.6425 29.5583 15.9531 29.595 16.2648L30.5881 16.148ZM30.1918 14.1468C30.1 13.8199 29.9951 13.4959 29.8771 13.1756L28.9387 13.5211C29.0475 13.8167 29.1443 14.1157 29.2291 14.4174L30.1918 14.1468ZM29.4866 12.2319C29.3448 11.924 29.1903 11.6206 29.0231 11.3224L28.1508 11.8114C28.305 12.0866 28.4476 12.3664 28.5785 12.6504L29.4866 12.2319ZM28.4887 10.452C28.3005 10.171 28.1002 9.89571 27.8878 9.62695L27.1033 10.247C27.2993 10.4951 27.4842 10.7491 27.6578 11.0084L28.4887 10.452ZM27.2243 8.85154C27.1091 8.72707 26.991 8.60433 26.8701 8.48339L26.163 9.1905C26.2748 9.30232 26.3839 9.41578 26.4904 9.5308L27.2243 8.85154ZM8.13173 8.12984C8.00624 8.25533 7.8837 8.38272 7.76412 8.51191L9.23192 9.87044C9.334 9.76014 9.43867 9.65132 9.54594 9.54405L8.13173 8.12984ZM7.0752 9.31694C6.85465 9.59603 6.64664 9.88189 6.45118 10.1738L8.11296 11.2866C8.27932 11.0382 8.45645 10.7948 8.64437 10.557L7.0752 9.31694ZM5.89616 11.0779C5.72247 11.3877 5.56195 11.7028 5.41459 12.0226L7.23098 12.8597C7.35635 12.5877 7.49291 12.3195 7.64068 12.056L5.89616 11.0779ZM5.009 13.0028C4.88651 13.3355 4.77756 13.6721 4.68215 14.0115L6.60755 14.5527C6.6888 14.2636 6.78157 13.9771 6.88583 13.6939L5.009 13.0028ZM4.43564 15.0425C4.36692 15.3897 4.31193 15.739 4.27067 16.0895L6.25696 16.3233C6.29213 16.0244 6.339 15.7267 6.39757 15.4309L4.43564 15.0425ZM4.18801 17.146C4.17422 17.499 4.17422 17.8525 4.18801 18.2056L6.18649 18.1276C6.17473 17.8265 6.17473 17.5251 6.18649 17.224L4.18801 17.146ZM4.27067 19.262C4.31193 19.6126 4.36692 19.9619 4.43564 20.3091L6.39757 19.9206C6.339 19.6248 6.29213 19.3271 6.25696 19.0283L4.27067 19.262ZM4.68215 21.34C4.77756 21.6795 4.88651 22.016 5.009 22.3487L6.88583 21.6577C6.78157 21.3745 6.6888 21.088 6.60755 20.7989L4.68215 21.34ZM5.4146 23.329C5.56195 23.6487 5.72247 23.9639 5.89616 24.2737L7.64068 23.2956C7.49291 23.032 7.35635 22.7639 7.23098 22.4919L5.4146 23.329ZM6.45118 25.1778C6.64664 25.4697 6.85465 25.7555 7.07521 26.0346L8.64437 24.7946C8.45645 24.5568 8.27932 24.3134 8.11296 24.0649L6.45118 25.1778ZM7.76412 26.8396C7.8837 26.9688 8.00624 27.0962 8.13173 27.2217L9.54594 25.8075C9.43867 25.7002 9.334 25.5914 9.23192 25.4811L7.76412 26.8396ZM8.13173 27.2217C8.25722 27.3472 8.38461 27.4698 8.5138 27.5893L9.87232 26.1215C9.76203 26.0195 9.65321 25.9148 9.54594 25.8075L8.13173 27.2217ZM9.31883 28.2782C9.59791 28.4988 9.88378 28.7068 10.1756 28.9023L11.2885 27.2405C11.0401 27.0741 10.7967 26.897 10.5589 26.7091L9.31883 28.2782ZM11.0798 29.4573C11.3896 29.631 11.7047 29.7915 12.0245 29.9389L12.8616 28.1225C12.5895 27.9971 12.3214 27.8605 12.0579 27.7128L11.0798 29.4573ZM13.0047 30.3444C13.3374 30.4669 13.6739 30.5759 14.0134 30.6713L14.5546 28.7459C14.2654 28.6646 13.9789 28.5719 13.6958 28.4676L13.0047 30.3444ZM15.0444 30.9178C15.3915 30.9865 15.7408 31.0415 16.0914 31.0828L16.3252 29.0965C16.0263 29.0613 15.7286 29.0144 15.4328 28.9559L15.0444 30.9178ZM17.1478 31.1654C17.5009 31.1792 17.8544 31.1792 18.2075 31.1654L18.1295 29.167C17.8284 29.1787 17.527 29.1787 17.2259 29.167L17.1478 31.1654ZM19.2639 31.0828C19.6145 31.0415 19.9638 30.9865 20.311 30.9178L19.9225 28.9559C19.6267 29.0144 19.329 29.0613 19.0302 29.0965L19.2639 31.0828ZM21.3419 30.6713C21.6814 30.5759 22.0179 30.4669 22.3506 30.3444L21.6596 28.4676C21.3764 28.5719 21.0899 28.6646 20.8008 28.7459L21.3419 30.6713ZM23.3309 29.9389C23.6506 29.7915 23.9658 29.631 24.2756 29.4573L23.2975 27.7128C23.0339 27.8605 22.7658 27.9971 22.4938 28.1225L23.3309 29.9389ZM25.1797 28.9023C25.4716 28.7068 25.7574 28.4988 26.0365 28.2782L24.7965 26.7091C24.5587 26.897 24.3152 27.0741 24.0668 27.2405L25.1797 28.9023ZM26.8415 27.5893C26.9707 27.4697 27.0981 27.3472 27.2236 27.2217L25.8094 25.8075C25.7021 25.9148 25.5933 26.0194 25.483 26.1215L26.8415 27.5893ZM27.2236 27.2217C27.3491 27.0962 27.4716 26.9688 27.5912 26.8396L26.1234 25.4811C26.0213 25.5914 25.9167 25.7002 25.8094 25.8075L27.2236 27.2217ZM28.2801 26.0346C28.5007 25.7555 28.7087 25.4697 28.9042 25.1778L27.2424 24.0649C27.076 24.3133 26.8989 24.5568 26.711 24.7946L28.2801 26.0346ZM29.4592 24.2737C29.6329 23.9639 29.7934 23.6487 29.9407 23.329L28.1244 22.4919C27.999 22.7639 27.8624 23.032 27.7147 23.2956L29.4592 24.2737ZM30.3463 22.3487C30.4688 22.016 30.5778 21.6795 30.6732 21.34L28.7478 20.7989C28.6665 21.088 28.5738 21.3745 28.4695 21.6577L30.3463 22.3487ZM30.9197 20.3091C30.9884 19.9619 31.0434 19.6126 31.0847 19.262L29.0984 19.0283C29.0632 19.3271 29.0163 19.6248 28.9578 19.9206L30.9197 20.3091ZM31.1673 18.2056C31.1811 17.8525 31.1811 17.499 31.1673 17.146L29.1689 17.224C29.1806 17.5251 29.1806 17.8265 29.1689 18.1276L31.1673 18.2056ZM31.0847 16.0895C31.0434 15.7389 30.9884 15.3897 30.9197 15.0425L28.9578 15.4309C29.0163 15.7267 29.0632 16.0244 29.0984 16.3233L31.0847 16.0895ZM30.6732 14.0115C30.5778 13.6721 30.4688 13.3355 30.3463 13.0028L28.4695 13.6939C28.5738 13.9771 28.6665 14.2636 28.7478 14.5527L30.6732 14.0115ZM29.9407 12.0226C29.7934 11.7028 29.6329 11.3877 29.4592 11.0779L27.7147 12.056C27.8624 12.3195 27.999 12.5877 28.1244 12.8597L29.9407 12.0226ZM28.9042 10.1738C28.7087 9.88188 28.5007 9.59602 28.2801 9.31694L26.711 10.557C26.8989 10.7948 27.076 11.0382 27.2424 11.2866L28.9042 10.1738ZM27.5912 8.51191C27.4716 8.38272 27.3491 8.25533 27.2236 8.12984L25.8094 9.54405C25.9167 9.65132 26.0213 9.76014 26.1234 9.87043L27.5912 8.51191Z" fill="white"/>
</svg>
