<svg width="169" height="153" viewBox="0 0 169 153" fill="none" xmlns="http://www.w3.org/2000/svg">
<mask id="mask0_373_14080" style="mask-type:alpha" maskUnits="userSpaceOnUse" x="25" y="35" width="134" height="87">
<path d="M62.6849 35.6745C86.664 32.3544 111.018 59.196 130.662 54.1538C150.307 49.1115 171.254 79.6158 149.936 99.6897C128.618 119.764 91.3789 125.688 63.6318 118.717C35.8846 111.746 23.9039 95.0112 25.7932 76.6986C27.6825 58.386 38.7058 38.9945 62.6849 35.6745Z" fill="white"/>
<path d="M62.6849 35.6745C86.664 32.3544 111.018 59.196 130.662 54.1538C150.307 49.1115 171.254 79.6158 149.936 99.6897C128.618 119.764 91.3789 125.688 63.6318 118.717C35.8846 111.746 23.9039 95.0112 25.7932 76.6986C27.6825 58.386 38.7058 38.9945 62.6849 35.6745Z" fill="url(#paint0_radial_373_14080)"/>
<path d="M62.6849 35.6745C86.664 32.3544 111.018 59.196 130.662 54.1538C150.307 49.1115 171.254 79.6158 149.936 99.6897C128.618 119.764 91.3789 125.688 63.6318 118.717C35.8846 111.746 23.9039 95.0112 25.7932 76.6986C27.6825 58.386 38.7058 38.9945 62.6849 35.6745Z" fill="url(#paint1_linear_373_14080)" fill-opacity="0.25"/>
</mask>
<g mask="url(#mask0_373_14080)">
<g filter="url(#filter0_b_373_14080)">
<path d="M113.082 35.8339C107.426 31.3362 99.4656 28.5251 90.6471 28.5251C81.8286 28.5251 73.8677 31.3362 68.2121 35.8339C62.9049 40.0639 59.6348 45.8199 59.6348 52.1381C59.6348 65.1761 73.5193 75.751 90.6471 75.751C107.775 75.751 121.659 65.2028 121.659 52.1381C121.659 45.8199 118.389 40.0907 113.082 35.8339Z" fill="white"/>
<path d="M113.082 35.8339C107.426 31.3362 99.4656 28.5251 90.6471 28.5251C81.8286 28.5251 73.8677 31.3362 68.2121 35.8339C62.9049 40.0639 59.6348 45.8199 59.6348 52.1381C59.6348 65.1761 73.5193 75.751 90.6471 75.751C107.775 75.751 121.659 65.2028 121.659 52.1381C121.659 45.8199 118.389 40.0907 113.082 35.8339Z" fill="url(#paint2_radial_373_14080)"/>
<path d="M113.082 35.8339C107.426 31.3362 99.4656 28.5251 90.6471 28.5251C81.8286 28.5251 73.8677 31.3362 68.2121 35.8339C62.9049 40.0639 59.6348 45.8199 59.6348 52.1381C59.6348 65.1761 73.5193 75.751 90.6471 75.751C107.775 75.751 121.659 65.2028 121.659 52.1381C121.659 45.8199 118.389 40.0907 113.082 35.8339Z" fill="url(#paint3_linear_373_14080)" fill-opacity="0.25"/>
</g>
</g>
<g opacity="0.64" filter="url(#filter1_f_373_14080)">
<path fill-rule="evenodd" clip-rule="evenodd" d="M68.6642 54.4993C63.357 58.7293 60.0869 64.4853 60.0869 70.8035C60.0869 71.5736 60.1315 72.1394 60.1652 72.5234C60.1133 71.9645 60.0869 71.4 60.0869 70.8303V77.7252C60.0869 79.9442 60.4874 82.092 61.2362 84.1288C61.0738 84.2362 60.9485 84.3173 60.7739 84.4279C60.6164 84.5276 60.4188 84.6513 60.1176 84.8396L60.1127 84.8427C60.1039 84.8477 60.0953 84.8532 60.0869 84.8588C60.0571 84.8826 60.0302 84.9113 60.0062 84.9446C58.3731 86.6775 56.8083 88.1673 55.5923 88.9067C54.6002 89.51 53.0289 90.0141 51.5757 90.4804C51.2185 90.595 50.8685 90.7074 50.5359 90.8183L50.1458 90.9744C50.0492 90.9787 49.9635 91.0047 49.8906 91.054C39.7214 97.2823 29.4876 103.541 29.4876 103.541C22.6266 107.744 16.2432 111.695 12.6347 113.928C11.8202 114.433 11.1471 114.849 10.6418 115.162C10.1191 115.485 9.77591 115.696 9.64152 115.777C9.63951 115.778 9.63754 115.779 9.63562 115.78C8.92942 116.215 9.43602 118.507 10.8716 120.84C12.3072 123.173 13.8734 124.648 14.5796 124.214C14.5832 124.211 14.5868 124.209 14.5904 124.207C19.071 121.42 23.5883 118.673 28.1012 115.929L28.2057 115.865L28.2516 115.837C30.4235 114.516 32.5941 113.196 34.7591 111.872C34.7591 111.872 48.3348 103.63 55.0599 99.4874C55.1361 99.4364 55.1981 99.3638 55.2459 99.2719C55.2775 99.241 55.314 99.2047 55.3523 99.166C55.5127 99.0039 55.7047 98.8017 55.7047 98.8017C57.2778 97.115 58.7385 96.1031 59.7498 95.4284C60.7569 94.7565 63.7701 93.7501 65.2376 93.2976L65.2556 93.292C65.2654 93.2872 65.2748 93.2818 65.284 93.2761C65.2902 93.2722 65.2962 93.2683 65.3021 93.2641L66.7594 92.3892C72.4392 97.8701 81.2309 101.388 91.0992 101.388C108.227 101.388 122.112 90.7907 122.112 77.7252V70.8035C122.112 70.7545 122.111 70.7055 122.111 70.6567C122.061 64.3961 118.8 58.6965 113.534 54.4993C107.879 50.0016 99.9178 47.0781 91.0992 47.0781C82.2807 47.0781 74.3198 50.0016 68.6642 54.4993Z" fill="#728BAD"/>
</g>
<g opacity="0.5" filter="url(#filter2_b_373_14080)">
<path d="M116.016 37.1789C108.976 30.1392 99.5353 27.2793 90.7168 27.2793C81.8982 27.2793 73.9374 30.3825 68.2817 34.8802C62.9745 39.1102 59.918 45.1602 59.918 51.4784C59.918 64.5163 73.5889 74.7973 90.7168 74.7973C107.845 74.7973 123.276 64.0179 121.736 49.0585C121.076 44.2186 119.096 40.4788 116.016 37.1789Z" fill="#D8E1EE"/>
<path d="M116.016 37.1789C108.976 30.1392 99.5353 27.2793 90.7168 27.2793C81.8982 27.2793 73.9374 30.3825 68.2817 34.8802C62.9745 39.1102 59.918 45.1602 59.918 51.4784C59.918 64.5163 73.5889 74.7973 90.7168 74.7973C107.845 74.7973 123.276 64.0179 121.736 49.0585C121.076 44.2186 119.096 40.4788 116.016 37.1789Z" fill="url(#paint4_linear_373_14080)"/>
</g>
<path d="M90.9369 32.1188C82.5767 32.1188 76.5733 34.0261 70.9176 37.8385C65.3696 41.5784 60.358 50.4855 60.358 55.6579C60.3537 55.576 59.9296 53.5878 59.918 53.4579C59.884 53.0749 59.813 51.8413 59.813 51.0017C59.813 44.6835 63.0831 38.9276 68.3903 34.6976C74.046 30.1999 82.0068 27.2764 90.8253 27.2764C99.6439 27.2764 107.605 30.1999 113.26 34.6976C118.568 38.9276 121.838 44.6835 121.838 51.0017C121.838 51.8413 121.785 52.4381 121.751 52.8211C121.751 52.8211 121.52 54.4761 121.516 54.5579C121.516 49.3855 116.236 41.5784 110.956 37.8385C105.676 34.0987 99.297 32.1188 90.9369 32.1188Z" fill="#566C89"/>
<path d="M90.9369 32.1188C82.5767 32.1188 76.5733 34.0261 70.9176 37.8385C65.3696 41.5784 60.358 50.4855 60.358 55.6579C60.3537 55.576 59.9296 53.5878 59.918 53.4579C59.884 53.0749 59.813 51.8413 59.813 51.0017C59.813 44.6835 63.0831 38.9276 68.3903 34.6976C74.046 30.1999 82.0068 27.2764 90.8253 27.2764C99.6439 27.2764 107.605 30.1999 113.26 34.6976C118.568 38.9276 121.838 44.6835 121.838 51.0017C121.838 51.8413 121.785 52.4381 121.751 52.8211C121.751 52.8211 121.52 54.4761 121.516 54.5579C121.516 49.3855 116.236 41.5784 110.956 37.8385C105.676 34.0987 99.297 32.1188 90.9369 32.1188Z" fill="url(#paint5_linear_373_14080)" fill-opacity="0.5"/>
<path d="M90.8253 74.5022C74.3933 74.5022 60.9834 65.1132 59.918 52.7979C59.8729 52.2765 59.813 51.5593 59.813 51.0285V56.3178C59.813 56.3446 59.813 57.8698 59.813 57.9234C59.813 70.9889 73.6975 81.5861 90.8253 81.5861C107.953 81.5861 121.838 70.9889 121.838 57.9234C121.838 57.8966 121.838 57.8698 121.838 57.8161V51.0017C121.838 51.6179 121.786 52.0885 121.736 52.578C121.736 52.578 121.641 53.5577 121.516 54.3379C119.683 65.7706 106.354 74.5022 90.8253 74.5022Z" fill="#6A7C90"/>
<path d="M90.8253 74.5022C74.3933 74.5022 60.9834 65.1132 59.918 52.7979C59.8729 52.2765 59.813 51.5593 59.813 51.0285V56.3178C59.813 56.3446 59.813 57.8698 59.813 57.9234C59.813 70.9889 73.6975 81.5861 90.8253 81.5861C107.953 81.5861 121.838 70.9889 121.838 57.9234C121.838 57.8966 121.838 57.8698 121.838 57.8161V51.0017C121.838 51.6179 121.786 52.0885 121.736 52.578C121.736 52.578 121.641 53.5577 121.516 54.3379C119.683 65.7706 106.354 74.5022 90.8253 74.5022Z" fill="url(#paint6_linear_373_14080)" fill-opacity="0.5"/>
<g opacity="0.7">
<path d="M61.3861 64.0449C62.0134 63.6371 63.8581 65.0568 65.3188 67.4181C66.7795 69.7794 67.3413 72.0283 66.6672 72.478C66.1053 72.8154 65.5179 73.1683 64.9817 73.49C64.9817 72.5905 64.9817 70.5665 63.6333 68.4301C62.285 66.2937 60.4872 65.3942 59.813 65.0568C60.7119 64.4946 60.7119 64.4946 61.3861 64.0449Z" fill="#C9D7E9"/>
<path d="M61.3861 64.0449C62.0134 63.6371 63.8581 65.0568 65.3188 67.4181C66.7795 69.7794 67.3413 72.0283 66.6672 72.478C66.1053 72.8154 65.5179 73.1683 64.9817 73.49C64.9817 72.5905 64.9817 70.5665 63.6333 68.4301C62.285 66.2937 60.4872 65.3942 59.813 65.0568C60.7119 64.4946 60.7119 64.4946 61.3861 64.0449Z" fill="url(#paint7_linear_373_14080)"/>
</g>
<path d="M59.4759 75.6267C60.4872 74.9521 63.521 73.9401 64.9817 73.4903C63.2963 70.7917 61.4984 67.8682 59.813 65.0571C58.1508 66.8267 56.5545 68.3534 55.3185 69.1051C54.0825 69.8567 51.9476 70.4544 50.2621 71.0166L49.7003 71.2415C49.0032 71.6704 49.6277 73.8564 51.0486 76.1889C52.4964 78.5215 54.1451 79.9912 54.869 79.5622C54.9226 79.5354 55.4308 79 55.4308 79C57.0039 77.3134 58.4646 76.3014 59.4759 75.6267Z" fill="#C9D7E9"/>
<path d="M59.4759 75.6267C60.4872 74.9521 63.521 73.9401 64.9817 73.4903C63.2963 70.7917 61.4984 67.8682 59.813 65.0571C58.1508 66.8267 56.5545 68.3534 55.3185 69.1051C54.0825 69.8567 51.9476 70.4544 50.2621 71.0166L49.7003 71.2415C49.0032 71.6704 49.6277 73.8564 51.0486 76.1889C52.4964 78.5215 54.1451 79.9912 54.869 79.5622C54.9226 79.5354 55.4308 79 55.4308 79C57.0039 77.3134 58.4646 76.3014 59.4759 75.6267Z" fill="url(#paint8_linear_373_14080)" fill-opacity="0.5"/>
<path d="M59.4759 75.6267C60.4872 74.9521 63.521 73.9401 64.9817 73.4903C63.2963 70.7917 61.4984 67.8682 59.813 65.0571C58.1508 66.8267 56.5545 68.3534 55.3185 69.1051C54.0825 69.8567 51.9476 70.4544 50.2621 71.0166L49.7003 71.2415C49.0032 71.6704 49.6277 73.8564 51.0486 76.1889C52.4964 78.5215 54.1451 79.9912 54.869 79.5622C54.9226 79.5354 55.4308 79 55.4308 79C57.0039 77.3134 58.4646 76.3014 59.4759 75.6267Z" fill="url(#paint9_linear_373_14080)"/>
<path d="M53.5523 74.7319C52.0942 72.3676 50.2997 70.7914 49.6168 71.2526C39.4476 77.4808 29.2138 83.7391 29.2138 83.7391C19.1785 89.8868 10.1646 95.4958 9.36182 95.979C11.1013 98.7978 12.5664 101.567 14.3058 104.412C20.996 100.251 27.7683 96.178 34.4853 92.0706C34.4853 92.0706 48.061 83.8285 54.7861 79.6859C55.459 79.2355 55.0195 77.111 53.5523 74.7319Z" fill="#4A6588"/>
<path d="M53.5523 74.7319C52.0942 72.3676 50.2997 70.7914 49.6168 71.2526C39.4476 77.4808 29.2138 83.7391 29.2138 83.7391C19.1785 89.8868 10.1646 95.4958 9.36182 95.979C11.1013 98.7978 12.5664 101.567 14.3058 104.412C20.996 100.251 27.7683 96.178 34.4853 92.0706C34.4853 92.0706 48.061 83.8285 54.7861 79.6859C55.459 79.2355 55.0195 77.111 53.5523 74.7319Z" fill="url(#paint10_linear_373_14080)" fill-opacity="0.4"/>
<path d="M64.9817 73.49C65.6559 73.1527 65.069 70.7629 63.6334 68.4301C62.1978 66.0973 60.4872 64.607 59.813 65.0567C59.2512 65.5066 59.7258 67.6715 61.1614 70.0043C62.597 72.3371 64.3076 73.7149 64.9817 73.49Z" fill="#001D3E"/>
<path d="M64.9817 73.49C65.6559 73.1527 65.069 70.7629 63.6334 68.4301C62.1978 66.0973 60.4872 64.607 59.813 65.0567C59.2512 65.5066 59.7258 67.6715 61.1614 70.0043C62.597 72.3371 64.3076 73.7149 64.9817 73.49Z" fill="url(#paint11_linear_373_14080)" fill-opacity="0.3"/>
<path d="M14.3058 104.412C15.012 103.978 14.5054 101.798 13.0698 99.4646C11.6342 97.1315 10.068 95.5443 9.36182 95.9788C8.65562 96.4134 9.1622 98.7057 10.5978 101.039C12.0334 103.372 13.5996 104.847 14.3058 104.412Z" fill="#001D3E"/>
<path d="M14.3058 104.412C15.012 103.978 14.5054 101.798 13.0698 99.4646C11.6342 97.1315 10.068 95.5443 9.36182 95.9788C8.65562 96.4134 9.1622 98.7057 10.5978 101.039C12.0334 103.372 13.5996 104.847 14.3058 104.412Z" fill="url(#paint12_linear_373_14080)" fill-opacity="0.5"/>
<defs>
<filter id="filter0_b_373_14080" x="56.1354" y="25.0258" width="69.0236" height="54.2245" filterUnits="userSpaceOnUse" color-interpolation-filters="sRGB">
<feFlood flood-opacity="0" result="BackgroundImageFix"/>
<feGaussianBlur in="BackgroundImageFix" stdDeviation="1.74967"/>
<feComposite in2="SourceAlpha" operator="in" result="effect1_backgroundBlur_373_14080"/>
<feBlend mode="normal" in="SourceGraphic" in2="effect1_backgroundBlur_373_14080" result="shape"/>
</filter>
<filter id="filter1_f_373_14080" x="0.571478" y="38.3298" width="130.288" height="94.7081" filterUnits="userSpaceOnUse" color-interpolation-filters="sRGB">
<feFlood flood-opacity="0" result="BackgroundImageFix"/>
<feBlend mode="normal" in="SourceGraphic" in2="BackgroundImageFix" result="shape"/>
<feGaussianBlur stdDeviation="4.37417" result="effect1_foregroundBlur_373_14080"/>
</filter>
<filter id="filter2_b_373_14080" x="56.4186" y="23.78" width="68.9225" height="54.5167" filterUnits="userSpaceOnUse" color-interpolation-filters="sRGB">
<feFlood flood-opacity="0" result="BackgroundImageFix"/>
<feGaussianBlur in="BackgroundImageFix" stdDeviation="1.74967"/>
<feComposite in2="SourceAlpha" operator="in" result="effect1_backgroundBlur_373_14080"/>
<feBlend mode="normal" in="SourceGraphic" in2="effect1_backgroundBlur_373_14080" result="shape"/>
</filter>
<radialGradient id="paint0_radial_373_14080" cx="0" cy="0" r="1" gradientUnits="userSpaceOnUse" gradientTransform="translate(64.1394 79.4504) rotate(-119.374) scale(62.2763 108.523)">
<stop stop-color="#ECECEC"/>
<stop offset="1" stop-color="#B7C4D3" stop-opacity="0"/>
</radialGradient>
<linearGradient id="paint1_linear_373_14080" x1="62.0923" y1="39.3" x2="189.315" y2="140.388" gradientUnits="userSpaceOnUse">
<stop offset="0.148632" stop-color="#2266E3" stop-opacity="0.3"/>
<stop offset="0.956457" stop-color="white" stop-opacity="0"/>
</linearGradient>
<radialGradient id="paint2_radial_373_14080" cx="0" cy="0" r="1" gradientUnits="userSpaceOnUse" gradientTransform="translate(80.9447 86.2729) rotate(-122.451) scale(95.9375 102.76)">
<stop stop-color="#ECECEC"/>
<stop offset="1" stop-color="#B7C4D3" stop-opacity="0"/>
</radialGradient>
<linearGradient id="paint3_linear_373_14080" x1="183.461" y1="175.589" x2="46.846" y2="28.4151" gradientUnits="userSpaceOnUse">
<stop stop-color="white" stop-opacity="0"/>
<stop offset="0.778839" stop-color="#2266E3" stop-opacity="0.3"/>
</linearGradient>
<linearGradient id="paint4_linear_373_14080" x1="66.6536" y1="38.9709" x2="90.8485" y2="74.5994" gradientUnits="userSpaceOnUse">
<stop stop-color="white" stop-opacity="0"/>
<stop offset="0.658046" stop-color="white" stop-opacity="0.801105"/>
<stop offset="1" stop-color="#A4C4EA" stop-opacity="0.4"/>
</linearGradient>
<linearGradient id="paint5_linear_373_14080" x1="92.6968" y1="49.1677" x2="93.1331" y2="38.8279" gradientUnits="userSpaceOnUse">
<stop offset="0.19787" stop-color="#001D3E"/>
<stop offset="1" stop-color="white" stop-opacity="0"/>
</linearGradient>
<linearGradient id="paint6_linear_373_14080" x1="106.556" y1="57.3073" x2="90.8198" y2="81.5825" gradientUnits="userSpaceOnUse">
<stop stop-color="#F3F2F1"/>
<stop offset="1" stop-color="white" stop-opacity="0"/>
</linearGradient>
<linearGradient id="paint7_linear_373_14080" x1="63.3816" y1="63.9753" x2="63.3816" y2="73.49" gradientUnits="userSpaceOnUse">
<stop stop-color="white"/>
<stop offset="1" stop-color="white" stop-opacity="0"/>
</linearGradient>
<linearGradient id="paint8_linear_373_14080" x1="59.0379" y1="80.5169" x2="58.1553" y2="70.1775" gradientUnits="userSpaceOnUse">
<stop offset="0.456172" stop-color="#566C89"/>
<stop offset="1" stop-color="white" stop-opacity="0"/>
</linearGradient>
<linearGradient id="paint9_linear_373_14080" x1="57.1979" y1="65.0571" x2="57.1979" y2="79.6365" gradientUnits="userSpaceOnUse">
<stop stop-color="white"/>
<stop offset="1" stop-color="white" stop-opacity="0"/>
</linearGradient>
<linearGradient id="paint10_linear_373_14080" x1="13.5058" y1="78.1006" x2="17.4439" y2="102.725" gradientUnits="userSpaceOnUse">
<stop stop-color="white"/>
<stop offset="1" stop-color="white" stop-opacity="0"/>
</linearGradient>
<linearGradient id="paint11_linear_373_14080" x1="56.4286" y1="68.655" x2="65.0153" y2="73.4709" gradientUnits="userSpaceOnUse">
<stop stop-color="white" stop-opacity="0"/>
<stop offset="1" stop-color="#F1F2F3"/>
</linearGradient>
<linearGradient id="paint12_linear_373_14080" x1="17.1014" y1="110.034" x2="8.44876" y2="96.0917" gradientUnits="userSpaceOnUse">
<stop offset="0.0654182" stop-color="#F3F2F1"/>
<stop offset="0.757246" stop-color="white" stop-opacity="0"/>
</linearGradient>
</defs>
</svg>
