<svg width="28" height="28" viewBox="0 0 28 28" fill="none" xmlns="http://www.w3.org/2000/svg">
<path d="M10.3896 17H9.58887V16.2188H9.56934C9.22103 16.8177 8.70833 17.1172 8.03125 17.1172C7.5332 17.1172 7.14258 16.9854 6.85938 16.7217C6.57943 16.458 6.43945 16.1081 6.43945 15.6719C6.43945 14.7376 6.98958 14.194 8.08984 14.041L9.58887 13.8311C9.58887 12.9814 9.24544 12.5566 8.55859 12.5566C7.95638 12.5566 7.41276 12.7617 6.92773 13.1719V12.3516C7.41927 12.0391 7.98568 11.8828 8.62695 11.8828C9.80208 11.8828 10.3896 12.5046 10.3896 13.748V17ZM9.58887 14.4707L8.38281 14.6367C8.01172 14.6888 7.73177 14.7816 7.54297 14.915C7.35417 15.0452 7.25977 15.278 7.25977 15.6133C7.25977 15.8574 7.34603 16.0576 7.51855 16.2139C7.69434 16.3669 7.92708 16.4434 8.2168 16.4434C8.61393 16.4434 8.94108 16.305 9.19824 16.0283C9.45866 15.7484 9.58887 15.3952 9.58887 14.9688V14.4707ZM12.7188 16.2773H12.6992V17H11.8984V9.59766H12.6992V12.8789H12.7188C13.1126 12.2148 13.6888 11.8828 14.4473 11.8828C15.0885 11.8828 15.5898 12.1074 15.9512 12.5566C16.3158 13.0026 16.498 13.6016 16.498 14.3535C16.498 15.1901 16.2946 15.8607 15.8877 16.3652C15.4808 16.8665 14.9242 17.1172 14.2178 17.1172C13.557 17.1172 13.0573 16.8372 12.7188 16.2773ZM12.6992 14.2607V14.959C12.6992 15.3724 12.8327 15.724 13.0996 16.0137C13.3698 16.3001 13.7116 16.4434 14.125 16.4434C14.61 16.4434 14.9893 16.2578 15.2627 15.8867C15.5394 15.5156 15.6777 14.9997 15.6777 14.3389C15.6777 13.7822 15.5492 13.346 15.292 13.0303C15.0348 12.7145 14.6865 12.5566 14.2471 12.5566C13.7816 12.5566 13.4072 12.7194 13.124 13.0449C12.8408 13.3672 12.6992 13.7725 12.6992 14.2607ZM21.1855 16.7705C20.8014 17.0016 20.3457 17.1172 19.8184 17.1172C19.1055 17.1172 18.5293 16.8861 18.0898 16.4238C17.6536 15.9583 17.4355 15.3561 17.4355 14.6172C17.4355 13.7936 17.6715 13.1328 18.1436 12.6348C18.6156 12.1335 19.2454 11.8828 20.0332 11.8828C20.4727 11.8828 20.86 11.9642 21.1953 12.127V12.9473C20.8242 12.6868 20.4271 12.5566 20.0039 12.5566C19.4928 12.5566 19.0729 12.7406 18.7441 13.1084C18.4186 13.473 18.2559 13.9531 18.2559 14.5488C18.2559 15.1348 18.4089 15.597 18.7148 15.9355C19.0241 16.2741 19.4375 16.4434 19.9551 16.4434C20.3913 16.4434 20.8014 16.2985 21.1855 16.0088V16.7705Z" fill="black"/>
<path d="M10.3896 17V17.05H10.4396V17H10.3896ZM9.58887 17H9.53887V17.05H9.58887V17ZM9.58887 16.2188H9.63887V16.1687H9.58887V16.2188ZM9.56934 16.2188V16.1687H9.54057L9.52611 16.1936L9.56934 16.2188ZM6.85938 16.7217L6.82509 16.7581L6.8253 16.7583L6.85938 16.7217ZM8.08984 14.041L8.09673 14.0905L8.09678 14.0905L8.08984 14.041ZM9.58887 13.8311L9.5958 13.8806L9.63887 13.8745V13.8311H9.58887ZM6.92773 13.1719H6.87773V13.2796L6.96002 13.2101L6.92773 13.1719ZM6.92773 12.3516L6.90091 12.3094L6.87773 12.3241V12.3516H6.92773ZM9.58887 14.4707H9.63887V14.4133L9.58205 14.4212L9.58887 14.4707ZM8.38281 14.6367L8.37599 14.5872L8.37586 14.5872L8.38281 14.6367ZM7.54297 14.915L7.57136 14.9562L7.57183 14.9559L7.54297 14.915ZM7.51855 16.2139L7.48498 16.2509L7.48573 16.2516L7.51855 16.2139ZM9.19824 16.0283L9.16163 15.9943L9.16162 15.9943L9.19824 16.0283ZM10.3896 16.95H9.58887V17.05H10.3896V16.95ZM9.63887 17V16.2188H9.53887V17H9.63887ZM9.58887 16.1687H9.56934V16.2688H9.58887V16.1687ZM9.52611 16.1936C9.1865 16.7776 8.69002 17.0672 8.03125 17.0672V17.1672C8.72665 17.1672 9.25556 16.8578 9.61256 16.2439L9.52611 16.1936ZM8.03125 17.0672C7.54209 17.0672 7.16497 16.9379 6.89345 16.6851L6.8253 16.7583C7.12019 17.0328 7.52432 17.1672 8.03125 17.1672V17.0672ZM6.89366 16.6853C6.62513 16.4324 6.48945 16.0963 6.48945 15.6719H6.38945C6.38945 16.1198 6.53372 16.4836 6.82509 16.7581L6.89366 16.6853ZM6.48945 15.6719C6.48945 15.2151 6.62356 14.8596 6.8872 14.599C7.15189 14.3375 7.55278 14.1662 8.09673 14.0905L8.08296 13.9915C7.52665 14.0688 7.10234 14.2459 6.81691 14.5279C6.53041 14.811 6.38945 15.1944 6.38945 15.6719H6.48945ZM8.09678 14.0905L9.5958 13.8806L9.58193 13.7815L8.08291 13.9915L8.09678 14.0905ZM9.63887 13.8311C9.63887 13.4008 9.55212 13.0689 9.37018 12.8438C9.1866 12.6167 8.91287 12.5066 8.55859 12.5066V12.6066C8.89116 12.6066 9.13258 12.709 9.29242 12.9067C9.4539 13.1064 9.53887 13.4117 9.53887 13.8311H9.63887ZM8.55859 12.5066C7.94388 12.5066 7.38896 12.7164 6.89545 13.1337L6.96002 13.2101C7.43656 12.8071 7.96888 12.6066 8.55859 12.6066V12.5066ZM6.97773 13.1719V12.3516H6.87773V13.1719H6.97773ZM6.95456 12.3938C7.43728 12.0869 7.99418 11.9328 8.62695 11.9328V11.8328C7.97717 11.8328 7.40126 11.9913 6.90091 12.3094L6.95456 12.3938ZM8.62695 11.9328C9.20607 11.9328 9.63141 12.0859 9.91263 12.3835C10.1944 12.6816 10.3396 13.1333 10.3396 13.748H10.4396C10.4396 13.1193 10.2912 12.6384 9.98531 12.3148C9.67898 11.9906 9.22297 11.8328 8.62695 11.8328V11.9328ZM10.3396 13.748V17H10.4396V13.748H10.3396ZM9.58205 14.4212L8.37599 14.5872L8.38963 14.6863L9.59569 14.5202L9.58205 14.4212ZM8.37586 14.5872C8.00123 14.6398 7.71225 14.7341 7.51411 14.8742L7.57183 14.9559C7.75129 14.829 8.0222 14.7378 8.38976 14.6862L8.37586 14.5872ZM7.51458 14.8739C7.30674 15.0172 7.20977 15.2696 7.20977 15.6133H7.30977C7.30977 15.2864 7.40159 15.0733 7.57136 14.9562L7.51458 14.8739ZM7.20977 15.6133C7.20977 15.8708 7.30143 16.0847 7.48499 16.2509L7.55212 16.1768C7.39062 16.0305 7.30977 15.8441 7.30977 15.6133H7.20977ZM7.48573 16.2516C7.67267 16.4143 7.91806 16.4934 8.2168 16.4934V16.3934C7.93611 16.3934 7.716 16.3194 7.55138 16.1762L7.48573 16.2516ZM8.2168 16.4934C8.62702 16.4934 8.96771 16.3498 9.23487 16.0624L9.16162 15.9943C8.91445 16.2602 8.60084 16.3934 8.2168 16.3934V16.4934ZM9.23485 16.0624C9.50489 15.7721 9.63887 15.4062 9.63887 14.9688H9.53887C9.53887 15.3841 9.41243 15.7247 9.16163 15.9943L9.23485 16.0624ZM9.63887 14.9688V14.4707H9.53887V14.9688H9.63887ZM12.7188 16.2773L12.7615 16.2515L12.7469 16.2273H12.7188V16.2773ZM12.6992 16.2773V16.2273H12.6492V16.2773H12.6992ZM12.6992 17V17.05H12.7492V17H12.6992ZM11.8984 17H11.8484V17.05H11.8984V17ZM11.8984 9.59766V9.54766H11.8484V9.59766H11.8984ZM12.6992 9.59766H12.7492V9.54766H12.6992V9.59766ZM12.6992 12.8789H12.6492V12.9289H12.6992V12.8789ZM12.7188 12.8789V12.9289H12.7472L12.7618 12.9044L12.7188 12.8789ZM15.9512 12.5566L15.9122 12.588L15.9125 12.5883L15.9512 12.5566ZM15.8877 16.3652L15.9265 16.3967L15.9266 16.3966L15.8877 16.3652ZM13.0996 16.0137L13.0628 16.0476L13.0632 16.048L13.0996 16.0137ZM15.2627 15.8867L15.2226 15.8568L15.2224 15.8571L15.2627 15.8867ZM13.124 13.0449L13.1616 13.0779L13.1617 13.0777L13.124 13.0449ZM12.7188 16.2273H12.6992V16.3273H12.7188V16.2273ZM12.6492 16.2773V17H12.7492V16.2773H12.6492ZM12.6992 16.95H11.8984V17.05H12.6992V16.95ZM11.9484 17V9.59766H11.8484V17H11.9484ZM11.8984 9.64766H12.6992V9.54766H11.8984V9.64766ZM12.6492 9.59766V12.8789H12.7492V9.59766H12.6492ZM12.6992 12.9289H12.7188V12.8289H12.6992V12.9289ZM12.7618 12.9044C13.1468 12.2552 13.7068 11.9328 14.4473 11.9328V11.8328C13.6708 11.8328 13.0784 12.1745 12.6757 12.8534L12.7618 12.9044ZM14.4473 11.9328C15.0753 11.9328 15.5615 12.152 15.9122 12.588L15.9901 12.5253C15.6182 12.0629 15.1018 11.8328 14.4473 11.8328V11.9328ZM15.9125 12.5883C16.2678 13.0229 16.448 13.6095 16.448 14.3535H16.548C16.548 13.5936 16.3637 12.9823 15.9899 12.525L15.9125 12.5883ZM16.448 14.3535C16.448 15.182 16.2466 15.8405 15.8488 16.3338L15.9266 16.3966C16.3425 15.8809 16.548 15.1982 16.548 14.3535H16.448ZM15.8489 16.3337C15.4524 16.8221 14.9107 17.0672 14.2178 17.0672V17.1672C14.9376 17.1672 15.5091 16.9109 15.9265 16.3967L15.8489 16.3337ZM14.2178 17.0672C13.5743 17.0672 13.0909 16.7962 12.7615 16.2515L12.676 16.3032C13.0237 16.8783 13.5397 17.1672 14.2178 17.1672V17.0672ZM12.6492 14.2607V14.959H12.7492V14.2607H12.6492ZM12.6492 14.959C12.6492 15.3843 12.787 15.7481 13.0628 16.0476L13.1364 15.9798C12.8784 15.6998 12.7492 15.3605 12.7492 14.959H12.6492ZM13.0632 16.048C13.3434 16.345 13.6986 16.4934 14.125 16.4934V16.3934C13.7246 16.3934 13.3962 16.2553 13.136 15.9794L13.0632 16.048ZM14.125 16.4934C14.6249 16.4934 15.0195 16.301 15.3029 15.9164L15.2224 15.8571C14.959 16.2146 14.5951 16.3934 14.125 16.3934V16.4934ZM15.3028 15.9166C15.5881 15.5339 15.7277 15.006 15.7277 14.3389H15.6277C15.6277 14.9934 15.4906 15.4974 15.2226 15.8568L15.3028 15.9166ZM15.7277 14.3389C15.7277 13.7749 15.5975 13.3262 15.3308 12.9987L15.2532 13.0618C15.5009 13.3659 15.6277 13.7895 15.6277 14.3389H15.7277ZM15.3308 12.9987C15.0633 12.6703 14.7002 12.5066 14.2471 12.5066V12.6066C14.6728 12.6066 15.0064 12.7588 15.2532 13.0618L15.3308 12.9987ZM14.2471 12.5066C13.7684 12.5066 13.3798 12.6747 13.0863 13.0121L13.1617 13.0777C13.4346 12.7641 13.7948 12.6066 14.2471 12.6066V12.5066ZM13.0865 13.0119C12.7941 13.3446 12.6492 13.7621 12.6492 14.2607H12.7492C12.7492 13.7828 12.8875 13.3898 13.1616 13.0779L13.0865 13.0119ZM21.1855 16.7705L21.2113 16.8134L21.2355 16.7988V16.7705H21.1855ZM18.0898 16.4238L18.0534 16.458L18.0536 16.4583L18.0898 16.4238ZM18.1436 12.6348L18.1798 12.6692L18.18 12.669L18.1436 12.6348ZM21.1953 12.127H21.2453V12.0956L21.2171 12.082L21.1953 12.127ZM21.1953 12.9473L21.1666 12.9882L21.2453 13.0434V12.9473H21.1953ZM18.7441 13.1084L18.7069 13.0751L18.7068 13.0751L18.7441 13.1084ZM18.7148 15.9355L18.6777 15.9691L18.6779 15.9693L18.7148 15.9355ZM21.1855 16.0088H21.2355V15.9085L21.1554 15.9689L21.1855 16.0088ZM21.1598 16.7277C20.7847 16.9533 20.3382 17.0672 19.8184 17.0672V17.1672C20.3532 17.1672 20.8181 17.0499 21.2113 16.8134L21.1598 16.7277ZM19.8184 17.0672C19.1174 17.0672 18.5549 16.8405 18.1261 16.3894L18.0536 16.4583C18.5037 16.9317 19.0935 17.1672 19.8184 17.1672V17.0672ZM18.1263 16.3896C17.7002 15.9349 17.4855 15.3456 17.4855 14.6172H17.3855C17.3855 15.3667 17.6071 15.9818 18.0534 16.458L18.1263 16.3896ZM17.4855 14.6172C17.4855 13.8037 17.7184 13.1561 18.1798 12.6692L18.1073 12.6004C17.6247 13.1095 17.3855 13.7835 17.3855 14.6172H17.4855ZM18.18 12.669C18.6411 12.1793 19.257 11.9328 20.0332 11.9328V11.8328C19.2338 11.8328 18.59 12.0877 18.1072 12.6005L18.18 12.669ZM20.0332 11.9328C20.4664 11.9328 20.8461 12.013 21.1735 12.1719L21.2171 12.082C20.8739 11.9154 20.4789 11.8328 20.0332 11.8328V11.9328ZM21.1453 12.127V12.9473H21.2453V12.127H21.1453ZM21.224 12.9063C20.8452 12.6405 20.4381 12.5066 20.0039 12.5066V12.6066C20.4161 12.6066 20.8033 12.7332 21.1666 12.9882L21.224 12.9063ZM20.0039 12.5066C19.4792 12.5066 19.0455 12.6962 18.7069 13.0751L18.7814 13.1417C19.1003 12.7849 19.5065 12.6066 20.0039 12.6066V12.5066ZM18.7068 13.0751C18.3714 13.4507 18.2059 13.9437 18.2059 14.5488H18.3059C18.3059 13.9626 18.4658 13.4952 18.7814 13.1417L18.7068 13.0751ZM18.2059 14.5488C18.2059 15.1435 18.3613 15.619 18.6777 15.9691L18.7519 15.902C18.4564 15.575 18.3059 15.126 18.3059 14.5488H18.2059ZM18.6779 15.9693C18.9979 16.3196 19.4255 16.4934 19.9551 16.4934V16.3934C19.4495 16.3934 19.0503 16.2286 18.7518 15.9018L18.6779 15.9693ZM19.9551 16.4934C20.4033 16.4934 20.8238 16.3443 21.2157 16.0487L21.1554 15.9689C20.7791 16.2528 20.3793 16.3934 19.9551 16.3934V16.4934ZM21.1355 16.0088V16.7705H21.2355V16.0088H21.1355Z" fill="black"/>
</svg>
