<svg width="28" height="28" viewBox="0 0 28 28" fill="none" xmlns="http://www.w3.org/2000/svg">
<path d="M13.8192 21C13.1887 21 12.5827 20.9201 12.0012 20.7603C11.424 20.596 10.8824 20.3674 10.3763 20.0744C9.87017 19.7769 9.40846 19.4217 8.99114 19.0089C8.57826 18.5915 8.2231 18.1298 7.92565 17.6237C7.63264 17.1176 7.404 16.5738 7.23974 15.9922C7.07991 15.4106 7 14.8068 7 14.1808C7 13.5549 7.07991 12.9511 7.23974 12.3695C7.404 11.7879 7.63264 11.2441 7.92565 10.738C8.2231 10.2319 8.57826 9.77236 8.99114 9.35948C9.40846 8.94217 9.87017 8.587 10.3763 8.29399C10.8824 7.99654 11.4262 7.7679 12.0078 7.60808C12.5894 7.44382 13.1932 7.36168 13.8192 7.36168C14.4451 7.36168 15.0489 7.44382 15.6305 7.60808C16.2121 7.7679 16.7559 7.99654 17.262 8.29399C17.7681 8.587 18.2276 8.94217 18.6405 9.35948C19.0578 9.77236 19.413 10.2319 19.706 10.738C20.0035 11.2441 20.2321 11.7879 20.3919 12.3695C20.5562 12.9511 20.6383 13.5549 20.6383 14.1808C20.6383 14.8113 20.5562 15.4173 20.3919 15.9988C20.2321 16.576 20.0035 17.1176 19.706 17.6237C19.413 18.1298 19.0578 18.5915 18.6405 19.0089C18.2276 19.4217 17.7681 19.7769 17.262 20.0744C16.7559 20.3674 16.2121 20.596 15.6305 20.7603C15.0489 20.9201 14.4451 21 13.8192 21ZM13.8192 8.21408C13.2731 8.21408 12.7448 8.28511 12.2342 8.42718C11.7281 8.56924 11.2531 8.77124 10.8091 9.03318C10.3696 9.29067 9.96784 9.60144 9.6038 9.96548C9.23976 10.3295 8.92677 10.7335 8.66483 11.1775C8.40734 11.617 8.20756 12.092 8.06549 12.6026C7.92343 13.1087 7.85239 13.6348 7.85239 14.1808C7.85239 14.7269 7.92343 15.2552 8.06549 15.7658C8.20756 16.2719 8.40734 16.7469 8.66483 17.1909C8.92677 17.6304 9.23976 18.0322 9.6038 18.3962C9.96784 18.7602 10.3696 19.0732 10.8091 19.3352C11.2531 19.5927 11.7281 19.7924 12.2342 19.9345C12.7448 20.0766 13.2731 20.1476 13.8192 20.1476C14.3652 20.1476 14.8913 20.0766 15.3974 19.9345C15.908 19.7924 16.383 19.5927 16.8225 19.3352C17.2665 19.0732 17.6705 18.7602 18.0345 18.3962C18.3986 18.0322 18.7093 17.6304 18.9668 17.1909C19.2288 16.7469 19.4308 16.2719 19.5728 15.7658C19.7149 15.2552 19.7859 14.7269 19.7859 14.1808C19.7859 13.6348 19.7149 13.1087 19.5728 12.6026C19.4308 12.092 19.2288 11.617 18.9668 11.1775C18.7093 10.7335 18.3986 10.3295 18.0345 9.96548C17.6705 9.60144 17.2665 9.29067 16.8225 9.03318C16.383 8.77124 15.908 8.56924 15.3974 8.42718C14.8913 8.28511 14.3652 8.21408 13.8192 8.21408ZM13.8192 14.1808V9.91887H12.9668V15.0332H16.3763V14.1808H13.8192Z" fill="black"/>
</svg>
