<svg width="32" height="32" viewBox="0 0 32 32" fill="none" xmlns="http://www.w3.org/2000/svg">
<path d="M28 8.89062V25.1094L15 31.625L2 25.1094V8.89062L15 2.375L28 8.89062ZM15 4.625L5.23438 9.5L15 14.375L24.7656 9.5L15 4.625ZM4 23.875L14 28.8906V16.125L4 11.1094V23.875ZM26 23.875V11.1094L16 16.125V28.8906L26 23.875Z" fill="#50E6FF"/>
<path d="M3.2 10.4L14.4 16V29.6L3.2 24V10.4Z" fill="#50E6FF" fill-opacity="0.3"/>
<path d="M16 16L26.4 10.4V24L16 28.8V16Z" fill="#50E6FF" fill-opacity="0.3"/>
<path d="M15.2 4L24.8 9.6L15.2 14.4L4.8 9.6L15.2 4Z" fill="#50E6FF" fill-opacity="0.3"/>
</svg>
