<svg width="18" height="24" viewBox="0 0 18 24" fill="none" xmlns="http://www.w3.org/2000/svg">
<path d="M13.0576 0.870117C13.6143 0.870117 14.1416 0.977539 14.6396 1.19238C15.1377 1.40723 15.5674 1.7002 15.9287 2.07129C16.2998 2.43262 16.5928 2.8623 16.8076 3.36035C17.0225 3.8584 17.1299 4.38574 17.1299 4.94238V15.8701C17.1299 16.9932 16.915 18.0479 16.4854 19.0342C16.0654 20.0205 15.4844 20.8848 14.7422 21.627C14.0098 22.3594 13.1504 22.9404 12.1641 23.3701C11.1777 23.79 10.123 24 9 24C7.87695 24 6.82227 23.79 5.83594 23.3701C4.84961 22.9404 3.98535 22.3594 3.24316 21.627C2.51074 20.8848 1.92969 20.0205 1.5 19.0342C1.08008 18.0479 0.870117 16.9932 0.870117 15.8701V4.94238C0.870117 4.38574 0.977539 3.8584 1.19238 3.36035C1.40723 2.8623 1.69531 2.43262 2.05664 2.07129C2.42773 1.7002 2.8623 1.40723 3.36035 1.19238C3.8584 0.977539 4.38574 0.870117 4.94238 0.870117H13.0576ZM15.8701 15.8701V4.94238C15.8701 4.55176 15.7969 4.18555 15.6504 3.84375C15.5039 3.50195 15.3037 3.2041 15.0498 2.9502C14.7959 2.69629 14.498 2.49609 14.1562 2.34961C13.8145 2.20312 13.4482 2.12988 13.0576 2.12988H10.2451V9C10.2451 9.3418 10.123 9.63477 9.87891 9.87891C9.63477 10.123 9.3418 10.2451 9 10.2451C8.6582 10.2451 8.36523 10.123 8.12109 9.87891C7.87695 9.63477 7.75488 9.3418 7.75488 9V2.12988H4.94238C4.55176 2.12988 4.18555 2.20312 3.84375 2.34961C3.50195 2.49609 3.2041 2.69629 2.9502 2.9502C2.69629 3.2041 2.49609 3.50195 2.34961 3.84375C2.20312 4.18555 2.12988 4.55176 2.12988 4.94238V15.8701C2.12988 16.8174 2.31055 17.7109 2.67188 18.5508C3.0332 19.3809 3.52148 20.1084 4.13672 20.7334C4.76172 21.3584 5.48926 21.8516 6.31934 22.2129C7.15918 22.5742 8.05273 22.7549 9 22.7549C9.94727 22.7549 10.8359 22.5742 11.666 22.2129C12.5059 21.8516 13.2334 21.3584 13.8486 20.7334C14.4736 20.1084 14.9668 19.3809 15.3281 18.5508C15.6895 17.7109 15.8701 16.8174 15.8701 15.8701Z" fill="white"/>
</svg>
